<?xml version="1.0" encoding="iso-8859-1"?>
<!-- Generator: Adobe Illustrator 19.0.0, SVG Export Plug-In . SVG Version: 6.00 Build 0)  -->
<svg version="1.1" id="Layer_1" xmlns="http://www.w3.org/2000/svg" xmlns:xlink="http://www.w3.org/1999/xlink" x="0px" y="0px"
	 viewBox="0 0 512 512" style="enable-background:new 0 0 512 512;" xml:space="preserve">
<polygon style="fill:#CCE9F9;" points="276.757,193.73 276.757,152.216 512,152.216 512,27.676 0,27.676 0,152.216 235.243,152.216 
	235.243,193.73 0,193.73 0,318.27 235.243,318.27 235.243,359.784 0,359.784 0,484.324 512,484.324 512,359.784 276.757,359.784 
	276.757,318.27 512,318.27 512,193.73 "/>
<polygon style="fill:#93C7EF;" points="512,152.216 512,27.676 256,27.676 256,484.324 512,484.324 512,359.784 276.757,359.784 
	276.757,318.27 512,318.27 512,193.73 276.757,193.73 276.757,152.216 "/>
<rect x="83.027" y="69.189" style="fill:#FF5023;" width="41.514" height="41.514"/>
<rect x="166.054" y="69.189" style="fill:#93C7EF;" width="41.514" height="41.514"/>
<rect x="304.432" y="69.189" style="fill:#1E2E3B;" width="124.541" height="41.514"/>
<rect x="83.027" y="235.243" style="fill:#93C7EF;" width="41.514" height="41.514"/>
<rect x="166.054" y="235.243" style="fill:#FF5023;" width="41.514" height="41.514"/>
<rect x="304.432" y="235.243" style="fill:#1E2E3B;" width="124.541" height="41.514"/>
<rect x="83.027" y="401.297" style="fill:#FF5023;" width="41.514" height="41.514"/>
<rect x="166.054" y="401.297" style="fill:#93C7EF;" width="41.514" height="41.514"/>
<rect x="304.432" y="401.297" style="fill:#1E2E3B;" width="124.541" height="41.514"/>
<g>
</g>
<g>
</g>
<g>
</g>
<g>
</g>
<g>
</g>
<g>
</g>
<g>
</g>
<g>
</g>
<g>
</g>
<g>
</g>
<g>
</g>
<g>
</g>
<g>
</g>
<g>
</g>
<g>
</g>
</svg>
