<?xml version="1.0" encoding="iso-8859-1"?>
<!-- Generator: Adobe Illustrator 19.0.0, SVG Export Plug-In . SVG Version: 6.00 Build 0)  -->
<svg version="1.1" id="Layer_1" xmlns="http://www.w3.org/2000/svg" xmlns:xlink="http://www.w3.org/1999/xlink" x="0px" y="0px"
	 viewBox="0 0 512 512" style="enable-background:new 0 0 512 512;" xml:space="preserve">
<path style="fill:#2586FD;" d="M414.754,512H97.244c-10.345,0-18.732-8.387-18.732-18.732V322.601
	c0-10.345,8.387-18.732,18.732-18.732h317.51c10.345,0,18.732,8.387,18.732,18.732v170.667C433.485,503.613,425.099,512,414.754,512
	z"/>
<path style="fill:#3A4DE2;" d="M414.754,303.87H255.999V512h158.755c10.345,0,18.732-8.387,18.732-18.732V322.601
	C433.485,312.256,425.099,303.87,414.754,303.87z"/>
<path style="fill:#F1F2F2;" d="M261.48,445.399h-93.315c-10.345,0-18.732-8.387-18.732-18.732c0-10.345,8.387-18.732,18.732-18.732
	h93.315c10.345,0,18.732,8.387,18.732,18.732C280.211,437.012,271.825,445.399,261.48,445.399z"/>
<path style="fill:#FF90C2;" d="M414.754,208.131H97.244c-10.345,0-18.732-8.387-18.732-18.732V18.732
	C78.512,8.387,86.899,0,97.244,0h317.51c10.345,0,18.732,8.387,18.732,18.732v170.667
	C433.485,199.744,425.099,208.131,414.754,208.131z"/>
<path style="fill:#FF52A0;" d="M414.754,0H255.999v208.131h158.755c10.345,0,18.732-8.387,18.732-18.732V18.732
	C433.485,8.387,425.099,0,414.754,0z"/>
<path style="fill:#F1F2F2;" d="M261.48,104.066h-93.315c-10.345,0-18.732-8.387-18.732-18.732s8.387-18.732,18.732-18.732h93.315
	c10.345,0,18.732,8.387,18.732,18.732S271.825,104.066,261.48,104.066z"/>
<path style="fill:#CA80DC;" d="M433.485,341.333H78.512V170.667h354.973L433.485,341.333L433.485,341.333z"/>
<path style="fill:#F1F2F2;" d="M261.48,274.732h-93.315c-10.345,0-18.732-8.387-18.732-18.732c0-10.345,8.387-18.732,18.732-18.732
	h93.315c10.345,0,18.732,8.387,18.732,18.732C280.211,266.345,271.825,274.732,261.48,274.732z"/>
<g>
	<circle style="fill:#E6E7E8;" cx="334.622" cy="426.671" r="23.977"/>
	<path style="fill:#E6E7E8;" d="M261.48,407.935h-5.481v37.463h5.481c10.345,0,18.732-8.387,18.732-18.732
		C280.211,416.322,271.825,407.935,261.48,407.935z"/>
	<circle style="fill:#E6E7E8;" cx="334.622" cy="85.329" r="23.977"/>
	<path style="fill:#E6E7E8;" d="M261.48,66.602h-5.481v37.463h5.481c10.345,0,18.732-8.387,18.732-18.732
		S271.825,66.602,261.48,66.602z"/>
</g>
<rect x="255.999" y="170.671" style="fill:#B757D1;" width="177.489" height="170.671"/>
<g>
	<circle style="fill:#E6E7E8;" cx="334.622" cy="256" r="23.977"/>
	<path style="fill:#E6E7E8;" d="M261.48,237.268h-5.481v37.463h5.481c10.345,0,18.732-8.387,18.732-18.732
		C280.211,245.655,271.825,237.268,261.48,237.268z"/>
</g>
<g>
</g>
<g>
</g>
<g>
</g>
<g>
</g>
<g>
</g>
<g>
</g>
<g>
</g>
<g>
</g>
<g>
</g>
<g>
</g>
<g>
</g>
<g>
</g>
<g>
</g>
<g>
</g>
<g>
</g>
</svg>
