<?xml version="1.0" encoding="UTF-8" standalone="no"?>
<svg
   xmlns:dc="http://purl.org/dc/elements/1.1/"
   xmlns:cc="http://creativecommons.org/ns#"
   xmlns:rdf="http://www.w3.org/1999/02/22-rdf-syntax-ns#"
   xmlns:svg="http://www.w3.org/2000/svg"
   xmlns="http://www.w3.org/2000/svg"
   xmlns:sodipodi="http://sodipodi.sourceforge.net/DTD/sodipodi-0.dtd"
   xmlns:inkscape="http://www.inkscape.org/namespaces/inkscape"
   version="1.1"
   id="Capa_1"
   x="0px"
   y="0px"
   viewBox="0 0 148 149"
   xml:space="preserve"
   sodipodi:docname="backend6.svg"
   width="148"
   height="149"
   inkscape:version="0.92.4 (5da689c313, 2019-01-14)"><metadata
   id="metadata89"><rdf:RDF><cc:Work
       rdf:about=""><dc:format>image/svg+xml</dc:format><dc:type
         rdf:resource="http://purl.org/dc/dcmitype/StillImage" /><dc:title></dc:title></cc:Work></rdf:RDF></metadata><defs
   id="defs87" /><sodipodi:namedview
   pagecolor="#ffffff"
   bordercolor="#666666"
   borderopacity="1"
   objecttolerance="10"
   gridtolerance="10"
   guidetolerance="10"
   inkscape:pageopacity="0"
   inkscape:pageshadow="2"
   inkscape:window-width="1920"
   inkscape:window-height="1001"
   id="namedview85"
   showgrid="false"
   inkscape:zoom="1"
   inkscape:cx="26"
   inkscape:cy="-0.87128713"
   inkscape:window-x="-9"
   inkscape:window-y="-9"
   inkscape:window-maximized="1"
   inkscape:current-layer="Capa_1"
   inkscape:snap-page="true"
   fit-margin-top="0"
   fit-margin-left="0"
   fit-margin-right="0"
   fit-margin-bottom="0" />
<path
   style="fill:#38454f;stroke-width:3.03629112"
   d="M 143.99831,136.04348 H 4.0016922 C 1.7930769,136.04348 0,134.00282 0,131.48926 V 95.24987 C 0,92.736305 1.7930769,90.695652 4.0016922,90.695652 H 143.99547 c 2.21145,0 4.00453,2.040653 4.00453,4.554218 v 36.23615 c 0,2.5168 -1.79308,4.55746 -4.00169,4.55746 z"
   id="path2"
   inkscape:connector-curvature="0" />
<path
   style="fill:#28384c;stroke-width:3.03629112"
   d="m 17.076922,149 v 0 c -4.716075,0 -8.5384603,-4.35015 -8.5384603,-9.71739 v -3.23913 H 25.615384 v 3.23913 C 25.615384,144.64985 21.793,149 17.076922,149 Z"
   id="path4"
   inkscape:connector-curvature="0" />
<path
   style="fill:#28384c;stroke-width:3.03629112"
   d="m 130.92308,149 v 0 c -4.71608,0 -8.53846,-4.35015 -8.53846,-9.71739 v -3.23913 h 17.07691 v 3.23913 c 0,5.36724 -3.82237,9.71739 -8.53845,9.71739 z"
   id="path6"
   inkscape:connector-curvature="0" />
<ellipse
   style="fill:#546a79;stroke-width:3.03629112"
   cx="136.61537"
   cy="106.8913"
   id="circle8"
   rx="2.8461537"
   ry="3.2391303" />
<ellipse
   style="fill:#546a79;stroke-width:3.03629112"
   cx="125.23077"
   cy="106.8913"
   id="circle10"
   rx="2.8461537"
   ry="3.2391303" />
<ellipse
   style="fill:#546a79;stroke-width:3.03629112"
   cx="130.92308"
   cy="119.84782"
   id="circle12"
   rx="2.8461537"
   ry="3.2391303" />
<ellipse
   style="fill:#546a79;stroke-width:3.03629112"
   cx="119.53846"
   cy="119.84782"
   id="circle14"
   rx="2.8461537"
   ry="3.2391303" />
<ellipse
   style="fill:#546a79;stroke-width:3.03629112"
   cx="113.84615"
   cy="106.8913"
   id="circle16"
   rx="2.8461537"
   ry="3.2391303" />
<ellipse
   style="fill:#546a79;stroke-width:3.03629112"
   cx="108.15385"
   cy="119.84782"
   id="circle18"
   rx="2.8461537"
   ry="3.2391303" />
<ellipse
   style="fill:#546a79;stroke-width:3.03629112"
   cx="102.46154"
   cy="106.8913"
   id="circle20"
   rx="2.8461537"
   ry="3.2391303" />
<ellipse
   style="fill:#546a79;stroke-width:3.03629112"
   cx="96.769226"
   cy="119.84782"
   id="circle22"
   rx="2.8461537"
   ry="3.2391303" />
<ellipse
   style="fill:#546a79;stroke-width:3.03629112"
   cx="91.07692"
   cy="106.8913"
   id="circle24"
   rx="2.8461537"
   ry="3.2391303" />
<ellipse
   style="fill:#546a79;stroke-width:3.03629112"
   cx="85.384613"
   cy="119.84782"
   id="circle26"
   rx="2.8461537"
   ry="3.2391303" />
<path
   style="fill:#546a79;stroke-width:3.03629112"
   d="M 143.99831,90.695652 H 4.0016922 C 1.7930769,90.695652 0,88.655 0,86.141435 V 49.902044 C 0,47.388479 1.7930769,45.347826 4.0016922,45.347826 H 143.99547 c 2.21145,0 4.00453,2.040653 4.00453,4.554218 v 36.236151 c 0,2.516805 -1.79308,4.557457 -4.00169,4.557457 z"
   id="path28"
   inkscape:connector-curvature="0" />
<path
   style="fill:#38454f;stroke-width:3.03629112"
   d="M 143.99831,45.347826 H 4.0016922 C 1.7930769,45.347826 0,43.307174 0,40.793608 V 4.5542129 C 0,2.0406481 1.7930769,0 4.0016922,0 H 143.99547 C 146.20692,0 148,2.0406481 148,4.5542129 V 40.790369 c 0,2.516805 -1.79308,4.557457 -4.00169,4.557457 z"
   id="path30"
   inkscape:connector-curvature="0" />
<ellipse
   style="fill:#38454f;stroke-width:3.03629112"
   cx="136.61537"
   cy="61.54348"
   id="circle32"
   rx="2.8461537"
   ry="3.2391303" />
<ellipse
   style="fill:#38454f;stroke-width:3.03629112"
   cx="125.23077"
   cy="61.54348"
   id="circle34"
   rx="2.8461537"
   ry="3.2391303" />
<ellipse
   style="fill:#38454f;stroke-width:3.03629112"
   cx="130.92308"
   cy="74.5"
   id="circle36"
   rx="2.8461537"
   ry="3.2391303" />
<ellipse
   style="fill:#38454f;stroke-width:3.03629112"
   cx="119.53846"
   cy="74.5"
   id="circle38"
   rx="2.8461537"
   ry="3.2391303" />
<ellipse
   style="fill:#38454f;stroke-width:3.03629112"
   cx="113.84615"
   cy="61.54348"
   id="circle40"
   rx="2.8461537"
   ry="3.2391303" />
<ellipse
   style="fill:#38454f;stroke-width:3.03629112"
   cx="108.15385"
   cy="74.5"
   id="circle42"
   rx="2.8461537"
   ry="3.2391303" />
<ellipse
   style="fill:#38454f;stroke-width:3.03629112"
   cx="102.46154"
   cy="61.54348"
   id="circle44"
   rx="2.8461537"
   ry="3.2391303" />
<ellipse
   style="fill:#38454f;stroke-width:3.03629112"
   cx="96.769226"
   cy="74.5"
   id="circle46"
   rx="2.8461537"
   ry="3.2391303" />
<ellipse
   style="fill:#38454f;stroke-width:3.03629112"
   cx="91.07692"
   cy="61.54348"
   id="circle48"
   rx="2.8461537"
   ry="3.2391303" />
<ellipse
   style="fill:#38454f;stroke-width:3.03629112"
   cx="85.384613"
   cy="74.5"
   id="circle50"
   rx="2.8461537"
   ry="3.2391303" />
<ellipse
   style="fill:#546a79;stroke-width:3.03629112"
   cx="136.61537"
   cy="16.195652"
   id="circle52"
   rx="2.8461537"
   ry="3.2391303" />
<ellipse
   style="fill:#546a79;stroke-width:3.03629112"
   cx="125.23077"
   cy="16.195652"
   id="circle54"
   rx="2.8461537"
   ry="3.2391303" />
<ellipse
   style="fill:#546a79;stroke-width:3.03629112"
   cx="130.92308"
   cy="29.15217"
   id="circle56"
   rx="2.8461537"
   ry="3.2391303" />
<ellipse
   style="fill:#546a79;stroke-width:3.03629112"
   cx="119.53846"
   cy="29.15217"
   id="circle58"
   rx="2.8461537"
   ry="3.2391303" />
<ellipse
   style="fill:#546a79;stroke-width:3.03629112"
   cx="113.84615"
   cy="16.195652"
   id="circle60"
   rx="2.8461537"
   ry="3.2391303" />
<ellipse
   style="fill:#546a79;stroke-width:3.03629112"
   cx="108.15385"
   cy="29.15217"
   id="circle62"
   rx="2.8461537"
   ry="3.2391303" />
<ellipse
   style="fill:#546a79;stroke-width:3.03629112"
   cx="102.46154"
   cy="16.195652"
   id="circle64"
   rx="2.8461537"
   ry="3.2391303" />
<ellipse
   style="fill:#546a79;stroke-width:3.03629112"
   cx="96.769226"
   cy="29.15217"
   id="circle66"
   rx="2.8461537"
   ry="3.2391303" />
<ellipse
   style="fill:#546a79;stroke-width:3.03629112"
   cx="91.07692"
   cy="16.195652"
   id="circle68"
   rx="2.8461537"
   ry="3.2391303" />
<ellipse
   style="fill:#546a79;stroke-width:3.03629112"
   cx="85.384613"
   cy="29.15217"
   id="circle70"
   rx="2.8461537"
   ry="3.2391303" />
<ellipse
   style="fill:#283238;stroke-width:3.03629112"
   cx="22.76923"
   cy="22.673912"
   id="circle72"
   rx="8.5384607"
   ry="9.717392" />
<ellipse
   style="fill:#81ea1c;stroke-width:3.03629112"
   cx="22.76923"
   cy="22.673912"
   id="circle74"
   rx="5.6923075"
   ry="6.4782605" />
<ellipse
   style="fill:#283238;stroke-width:3.03629112"
   cx="22.76923"
   cy="68.021744"
   id="circle76"
   rx="8.5384607"
   ry="9.717392" />
<ellipse
   style="fill:#81ea1c;stroke-width:3.03629112"
   cx="22.76923"
   cy="68.021744"
   id="circle78"
   rx="5.6923075"
   ry="6.4782605" />
<ellipse
   style="fill:#283238;stroke-width:3.03629112"
   cx="22.76923"
   cy="113.36956"
   id="circle80"
   rx="8.5384607"
   ry="9.717392" />
<ellipse
   style="fill:#81ea1c;stroke-width:3.03629112"
   cx="22.76923"
   cy="113.36956"
   id="circle82"
   rx="5.6923075"
   ry="6.4782605" />
</svg>