<?xml version="1.0" encoding="UTF-8" standalone="no"?>
<!-- Generator: Adobe Illustrator 19.0.0, SVG Export Plug-In . SVG Version: 6.00 Build 0)  -->

<svg
   xmlns:dc="http://purl.org/dc/elements/1.1/"
   xmlns:cc="http://creativecommons.org/ns#"
   xmlns:rdf="http://www.w3.org/1999/02/22-rdf-syntax-ns#"
   xmlns:svg="http://www.w3.org/2000/svg"
   xmlns="http://www.w3.org/2000/svg"
   xmlns:sodipodi="http://sodipodi.sourceforge.net/DTD/sodipodi-0.dtd"
   xmlns:inkscape="http://www.inkscape.org/namespaces/inkscape"
   version="1.1"
   id="Layer_1"
   x="0px"
   y="0px"
   viewBox="0 0 52.591287 65.910478"
   xml:space="preserve"
   sodipodi:docname="backend.svg"
   width="52.59129"
   height="65.910477"
   inkscape:version="0.92.2 (5c3e80d, 2017-08-06)"><metadata
     id="metadata170"><rdf:RDF><cc:Work
         rdf:about=""><dc:format>image/svg+xml</dc:format><dc:type
           rdf:resource="http://purl.org/dc/dcmitype/StillImage" /><dc:title></dc:title></cc:Work></rdf:RDF></metadata><defs
     id="defs168" /><sodipodi:namedview
     pagecolor="#ffffff"
     bordercolor="#666666"
     borderopacity="1"
     objecttolerance="10"
     gridtolerance="10"
     guidetolerance="10"
     inkscape:pageopacity="0"
     inkscape:pageshadow="2"
     inkscape:window-width="1366"
     inkscape:window-height="705"
     id="namedview166"
     showgrid="false"
     fit-margin-top="0"
     fit-margin-left="0"
     fit-margin-right="0"
     fit-margin-bottom="0"
     inkscape:zoom="1.046875"
     inkscape:cx="67.395761"
     inkscape:cy="154.74634"
     inkscape:window-x="-8"
     inkscape:window-y="-8"
     inkscape:window-maximized="1"
     inkscape:current-layer="Layer_1" /><rect
     x="44.045139"
     y="10.319093"
     style="fill:#2f5e88;stroke-width:0.12263661"
     width="6.5739403"
     height="45.269211"
     id="rect91" /><rect
     x="1.9722172"
     y="10.319093"
     style="fill:#367596;stroke-width:0.12263661"
     width="44.702541"
     height="45.269211"
     id="rect93" /><g
     id="g99"
     transform="matrix(0.11683059,0,0,0.12873115,-3.612986,0)"><path
       style="fill:#88acb5"
       d="m 464.194,0 h -33.761 v 102.668 h 33.761 c 9.284,0 16.881,-7.596 16.881,-16.881 V 16.881 C 481.075,7.596 473.478,0 464.194,0 Z"
       id="path95"
       inkscape:connector-curvature="0" /><path
       style="fill:#88acb5"
       d="m 464.194,136.429 h -33.761 v 102.668 h 33.761 c 9.284,0 16.881,-7.596 16.881,-16.881 V 153.31 c 0,-9.285 -7.597,-16.881 -16.881,-16.881 z"
       id="path97"
       inkscape:connector-curvature="0" /></g><path
     style="fill:#a7cbcf;stroke-width:0.12263661"
     d="m 48.646976,19.735775 v 8.870478 c 0,1.195137 -0.887451,2.173111 -1.972218,2.173111 H 1.972217 C 0.88756,30.779364 1.00425e-6,29.801526 1.00425e-6,28.606253 V 19.735775 C 1.00425e-6,18.540636 0.887446,17.562667 1.972217,17.562667 h 44.702541 c 1.084654,0 1.972218,0.97784 1.972218,2.173108 z"
     id="path101"
     inkscape:connector-curvature="0" /><g
     id="g107"
     transform="matrix(0.11683059,0,0,0.12873115,-3.612986,0)"><path
       style="fill:#88acb5"
       d="m 464.194,272.881 h -33.761 v 102.668 h 33.761 c 9.284,0 16.881,-7.596 16.881,-16.881 v -68.907 c 0,-9.284 -7.597,-16.88 -16.881,-16.88 z"
       id="path103"
       inkscape:connector-curvature="0" /><path
       style="fill:#88acb5"
       d="M 464.194,409.332 H 430.433 V 512 h 33.761 c 9.284,0 16.881,-7.596 16.881,-16.881 v -68.907 c 0,-9.284 -7.597,-16.88 -16.881,-16.88 z"
       id="path105"
       inkscape:connector-curvature="0" /></g><g
     id="g115"
     transform="matrix(0.11683059,0,0,0.12873115,-3.612986,0)"><path
       style="fill:#a7cbcf"
       d="m 447.314,289.761 v 68.907 c 0,9.284 -7.596,16.881 -16.881,16.881 H 47.806 c -9.284,0 -16.881,-7.596 -16.881,-16.881 v -68.907 c 0,-9.284 7.596,-16.881 16.881,-16.881 h 382.627 c 9.284,10e-4 16.881,7.597 16.881,16.881 z"
       id="path109"
       inkscape:connector-curvature="0" /><path
       style="fill:#a7cbcf"
       d="m 447.314,426.213 v 68.907 c 0,9.284 -7.596,16.881 -16.881,16.881 H 47.806 c -9.284,0 -16.881,-7.596 -16.881,-16.881 v -68.907 c 0,-9.284 7.596,-16.881 16.881,-16.881 h 382.627 c 9.284,0 16.881,7.596 16.881,16.881 z"
       id="path111"
       inkscape:connector-curvature="0" /><path
       style="fill:#a7cbcf"
       d="m 447.314,16.881 v 68.907 c 0,9.284 -7.596,16.881 -16.881,16.881 H 47.806 c -9.284,0 -16.881,-7.596 -16.881,-16.881 V 16.881 C 30.925,7.596 38.522,0 47.806,0 h 382.627 c 9.284,0 16.881,7.596 16.881,16.881 z"
       id="path113"
       inkscape:connector-curvature="0" /></g><g
     id="g133"
     transform="matrix(0.11683059,0,0,0.12873115,-3.612986,0)"><path
       style="fill:#e5fafc"
       d="M 256,42.202 H 115.328 c -4.661,0 -8.44,-3.779 -8.44,-8.44 0,-4.661 3.779,-8.44 8.44,-8.44 H 256 c 4.661,0 8.44,3.779 8.44,8.44 0,4.661 -3.779,8.44 -8.44,8.44 z"
       id="path117"
       inkscape:connector-curvature="0" /><path
       style="fill:#e5fafc"
       d="M 81.567,42.202 H 64.686 c -4.661,0 -8.44,-3.779 -8.44,-8.44 0,-4.661 3.779,-8.44 8.44,-8.44 h 16.881 c 4.661,0 8.44,3.779 8.44,8.44 0,4.661 -3.779,8.44 -8.44,8.44 z"
       id="path119"
       inkscape:connector-curvature="0" /><path
       style="fill:#e5fafc"
       d="M 256,178.631 H 115.328 c -4.661,0 -8.44,-3.779 -8.44,-8.44 0,-4.661 3.779,-8.44 8.44,-8.44 H 256 c 4.661,0 8.44,3.779 8.44,8.44 0,4.661 -3.779,8.44 -8.44,8.44 z"
       id="path121"
       inkscape:connector-curvature="0" /><path
       style="fill:#e5fafc"
       d="M 81.567,178.631 H 64.686 c -4.661,0 -8.44,-3.779 -8.44,-8.44 0,-4.661 3.779,-8.44 8.44,-8.44 h 16.881 c 4.661,0 8.44,3.779 8.44,8.44 0,4.661 -3.779,8.44 -8.44,8.44 z"
       id="path123"
       inkscape:connector-curvature="0" /><path
       style="fill:#e5fafc"
       d="M 256,315.082 H 115.328 c -4.661,0 -8.44,-3.779 -8.44,-8.44 0,-4.661 3.779,-8.44 8.44,-8.44 H 256 c 4.661,0 8.44,3.779 8.44,8.44 0,4.661 -3.779,8.44 -8.44,8.44 z"
       id="path125"
       inkscape:connector-curvature="0" /><path
       style="fill:#e5fafc"
       d="M 81.567,315.082 H 64.686 c -4.661,0 -8.44,-3.779 -8.44,-8.44 0,-4.661 3.779,-8.44 8.44,-8.44 h 16.881 c 4.661,0 8.44,3.779 8.44,8.44 0,4.661 -3.779,8.44 -8.44,8.44 z"
       id="path127"
       inkscape:connector-curvature="0" /><path
       style="fill:#e5fafc"
       d="M 256,451.534 H 115.328 c -4.661,0 -8.44,-3.779 -8.44,-8.44 0,-4.661 3.779,-8.44 8.44,-8.44 H 256 c 4.661,0 8.44,3.779 8.44,8.44 0,4.661 -3.779,8.44 -8.44,8.44 z"
       id="path129"
       inkscape:connector-curvature="0" /><path
       style="fill:#e5fafc"
       d="M 81.567,451.534 H 64.686 c -4.661,0 -8.44,-3.779 -8.44,-8.44 0,-4.661 3.779,-8.44 8.44,-8.44 h 16.881 c 4.661,0 8.44,3.779 8.44,8.44 0,4.661 -3.779,8.44 -8.44,8.44 z"
       id="path131"
       inkscape:connector-curvature="0" /></g><g
     id="g135"
     transform="matrix(0.31671201,0,0,0.35074565,-99.77094,-113.67164)" /><g
     id="g137"
     transform="matrix(0.31671201,0,0,0.35074565,-99.77094,-113.67164)" /><g
     id="g139"
     transform="matrix(0.31671201,0,0,0.35074565,-99.77094,-113.67164)" /><g
     id="g141"
     transform="matrix(0.31671201,0,0,0.35074565,-99.77094,-113.67164)" /><g
     id="g143"
     transform="matrix(0.31671201,0,0,0.35074565,-99.77094,-113.67164)" /><g
     id="g145"
     transform="matrix(0.31671201,0,0,0.35074565,-99.77094,-113.67164)" /><g
     id="g147"
     transform="matrix(0.31671201,0,0,0.35074565,-99.77094,-113.67164)" /><g
     id="g149"
     transform="matrix(0.31671201,0,0,0.35074565,-99.77094,-113.67164)" /><g
     id="g151"
     transform="matrix(0.31671201,0,0,0.35074565,-99.77094,-113.67164)" /><g
     id="g153"
     transform="matrix(0.31671201,0,0,0.35074565,-99.77094,-113.67164)" /><g
     id="g155"
     transform="matrix(0.31671201,0,0,0.35074565,-99.77094,-113.67164)" /><g
     id="g157"
     transform="matrix(0.31671201,0,0,0.35074565,-99.77094,-113.67164)" /><g
     id="g159"
     transform="matrix(0.31671201,0,0,0.35074565,-99.77094,-113.67164)" /><g
     id="g161"
     transform="matrix(0.31671201,0,0,0.35074565,-99.77094,-113.67164)" /><g
     id="g163"
     transform="matrix(0.31671201,0,0,0.35074565,-99.77094,-113.67164)" /></svg>