<?xml version="1.0" encoding="UTF-8" standalone="no"?>
<!-- Svg Vector Icons : http://www.onlinewebfonts.com/icon -->

<svg
   xmlns:dc="http://purl.org/dc/elements/1.1/"
   xmlns:cc="http://creativecommons.org/ns#"
   xmlns:rdf="http://www.w3.org/1999/02/22-rdf-syntax-ns#"
   xmlns:svg="http://www.w3.org/2000/svg"
   xmlns="http://www.w3.org/2000/svg"
   xmlns:sodipodi="http://sodipodi.sourceforge.net/DTD/sodipodi-0.dtd"
   xmlns:inkscape="http://www.inkscape.org/namespaces/inkscape"
   version="1.1"
   x="0px"
   y="0px"
   viewBox="0 0 82.47438 74.63118"
   enable-background="new 0 0 1000 1000"
   xml:space="preserve"
   id="svg174"
   sodipodi:docname="browsers.svg"
   width="82.47438"
   height="74.63118"
   inkscape:version="0.92.3 (2405546, 2018-03-11)"><defs
   id="defs178" /><sodipodi:namedview
   pagecolor="#ffffff"
   bordercolor="#666666"
   borderopacity="1"
   objecttolerance="10"
   gridtolerance="10"
   guidetolerance="10"
   inkscape:pageopacity="0"
   inkscape:pageshadow="2"
   inkscape:window-width="1920"
   inkscape:window-height="1017"
   id="namedview176"
   showgrid="false"
   fit-margin-top="0"
   fit-margin-left="0"
   fit-margin-right="0"
   fit-margin-bottom="0"
   inkscape:zoom="2.8284271"
   inkscape:cx="189.81079"
   inkscape:cy="96.584137"
   inkscape:window-x="-8"
   inkscape:window-y="-8"
   inkscape:window-maximized="1"
   inkscape:current-layer="g140" />
<metadata
   id="metadata126"> Svg Vector Icons : http://www.onlinewebfonts.com/icon <rdf:RDF><cc:Work
     rdf:about=""><dc:format>image/svg+xml</dc:format><dc:type
       rdf:resource="http://purl.org/dc/dcmitype/StillImage" /><dc:title></dc:title></cc:Work></rdf:RDF></metadata>
<g
   id="g172"
   transform="matrix(0.12244898,0,0,0.12244898,-18.993146,-23.755032)"><g
     id="g140"><path
       inkscape:connector-curvature="0"
       id="path128"
       d="m 578.7,475.1 -2.3,8.4 c -1.2,4.4 -4.8,7.8 -9.3,8.8 l -45.4,9.6 c 8.5,50.2 -4.3,55.9 -9.3,58.1 -6,2.6 -23.5,16.7 -34.8,26.6 l -10.4,16.6 c 31.1,20.1 31.1,27.8 31.1,32.5 0,1.6 0.3,7.6 0.9,15.8 h 25.1 c 11,-16.2 30.3,-44.2 30.3,-44.2 1.8,-2.6 4.6,-4.4 7.7,-5 l 32.2,-6.4 c 2.3,-2.3 4.6,-4.8 6,-6.4 1.3,-7.1 9,-16.5 24.9,-33.5 1.5,-1.6 3.3,-2.7 5.3,-3.3 l 12.1,-3.8 c -13.5,-30.4 -35.9,-56.3 -64.1,-73.8 z"
       style="fill:#a05a2c" /><path
       inkscape:connector-curvature="0"
       id="path130"
       d="m 367.8,682.4 h 40.6 82.9 14.7 143.5 87.3 V 303.5 H 249.4 v 214 40.1 124.8 h 87.3 z M 707.9,315.1 h 11.9 c 6.8,0 12.3,5.5 12.3,12.3 0,6.8 -5.5,12.3 -12.3,12.3 h -11.9 c -6.8,0 -12.3,-5.5 -12.3,-12.3 0.1,-6.8 5.6,-12.3 12.3,-12.3 z m -50.8,0 H 669 c 6.8,0 12.3,5.5 12.3,12.3 0,6.8 -5.5,12.3 -12.3,12.3 h -11.9 c -6.8,0 -12.3,-5.5 -12.3,-12.3 0,-6.8 5.5,-12.3 12.3,-12.3 z m -50.9,0 h 11.9 c 6.8,0 12.3,5.5 12.3,12.3 0,6.8 -5.5,12.3 -12.3,12.3 h -11.9 c -6.8,0 -12.3,-5.5 -12.3,-12.3 0.1,-6.8 5.6,-12.3 12.3,-12.3 z m -339.4,361 c -6.8,0 -12.3,-5.5 -12.3,-12.3 V 552.7 485.2 362.8 c 0,-6.8 5.5,-12.3 12.3,-12.3 h 452.5 c 6.8,0 12.3,5.5 12.3,12.3 v 301.1 c 0,6.8 -5.5,12.3 -12.3,12.3 h -57.5 -131.1 -43 -45.9 -67.6 -27.8 -22 z"
       style="fill:#552200" /><path
       inkscape:connector-curvature="0"
       id="path132"
       d="m 377.5,577.7 c 8.6,-25.5 14.1,-38.6 17.8,-45.6 -3.5,-3.4 -9.3,-8.1 -14.7,-12 -0.6,-0.4 -1.2,-0.9 -1.7,-1.5 l -10.2,-10.5 c -25.3,29.6 -39.2,66.8 -39.2,106.1 0,12.5 1.5,24.9 4.4,37.2 h 7.7 l 2.7,-2.5 c 3.3,-16.1 6.4,-34.4 6.3,-39.3 -2.1,-8.1 2.4,-16.7 26.9,-31.9 z"
       style="fill:#000080" /><path
       inkscape:connector-curvature="0"
       id="path134"
       d="m 359.7,481.7 c 35.6,-35.8 83,-55.5 133.4,-55.5 29,0 57,6.6 83.3,19.6 0,0 0,0 0,0 0.3,0.1 0.5,0.3 0.7,0.4 0.2,0.1 0.4,0.2 0.6,0.3 43.1,21.8 76.9,60.2 92.8,105.8 0,0.1 0.1,0.1 0.1,0.2 0,0.1 0,0.2 0,0.3 6.9,20.1 10.5,40.8 10.5,61.5 0,12.5 -1.3,24.9 -3.8,37.2 H 707 V 375 H 279 v 110.2 67.5 98.9 h 29.7 c -2.5,-12.3 -3.8,-24.8 -3.8,-37.2 0.1,-50.1 19.5,-97.2 54.8,-132.7 0,0 0,0 0,0 z"
       style="fill:#d45500" /><path
       inkscape:connector-curvature="0"
       id="path136"
       d="m 577.95852,784.99796 c 270.6,0 250.34973,-127.00471 250.34973,-397.60471 0,-270.6 -170.315,-178.16591 -440.915,-178.16591 -270.6,0 -230.13826,135.66677 -230.13826,406.26677 0,270.6 150.10353,169.50385 420.70353,169.50385 z M 224.9,557.6 V 517.5 291.3 c 0,-6.8 5.5,-12.3 12.3,-12.3 H 749 c 6.8,0 12.3,5.5 12.3,12.3 v 403.3 c 0,6.8 -5.5,12.3 -12.3,12.3 H 649.4 506 h -14.7 -82.9 -40.6 -31 -99.6 c -6.8,0 -12.3,-5.5 -12.3,-12.3 z"
       style="fill:#ffb380"
       sodipodi:nodetypes="sssssccssssssccccccssc" /></g><g
     id="g142" /><g
     id="g144" /><g
     id="g146" /><g
     id="g148" /><g
     id="g150" /><g
     id="g152" /><g
     id="g154" /><g
     id="g156" /><g
     id="g158" /><g
     id="g160" /><g
     id="g162" /><g
     id="g164" /><g
     id="g166" /><g
     id="g168" /><g
     id="g170" /></g>
</svg>