<?xml version="1.0" encoding="UTF-8" standalone="no"?>
<svg
   xmlns:dc="http://purl.org/dc/elements/1.1/"
   xmlns:cc="http://creativecommons.org/ns#"
   xmlns:rdf="http://www.w3.org/1999/02/22-rdf-syntax-ns#"
   xmlns:svg="http://www.w3.org/2000/svg"
   xmlns="http://www.w3.org/2000/svg"
   xmlns:xlink="http://www.w3.org/1999/xlink"
   xmlns:sodipodi="http://sodipodi.sourceforge.net/DTD/sodipodi-0.dtd"
   xmlns:inkscape="http://www.inkscape.org/namespaces/inkscape"
   viewBox="1 1 120 120"
   version="1.1"
   id="svg5250"
   sodipodi:docname="chrome.svg"
   width="120"
   height="120"
   inkscape:version="0.92.3 (2405546, 2018-03-11)">
  <metadata
     id="metadata5254">
    <rdf:RDF>
      <cc:Work
         rdf:about="">
        <dc:format>image/svg+xml</dc:format>
        <dc:type
           rdf:resource="http://purl.org/dc/dcmitype/StillImage" />
        <dc:title></dc:title>
      </cc:Work>
    </rdf:RDF>
  </metadata>
  <sodipodi:namedview
     pagecolor="#ffffff"
     bordercolor="#666666"
     borderopacity="1"
     objecttolerance="10"
     gridtolerance="10"
     guidetolerance="10"
     inkscape:pageopacity="0"
     inkscape:pageshadow="2"
     inkscape:window-width="1920"
     inkscape:window-height="1017"
     id="namedview5252"
     showgrid="false"
     fit-margin-top="0"
     fit-margin-left="0"
     fit-margin-right="0"
     fit-margin-bottom="0"
     inkscape:zoom="4.8181818"
     inkscape:cx="60"
     inkscape:cy="60"
     inkscape:window-x="-8"
     inkscape:window-y="-8"
     inkscape:window-maximized="1"
     inkscape:current-layer="svg5250" />
  <defs
     id="defs5116">
    <circle
       id="a"
       cy="96"
       cx="96"
       r="88" />
    <linearGradient
       inkscape:collect="always"
       xlink:href="#c"
       id="linearGradient5256"
       gradientUnits="userSpaceOnUse"
       x1="29.337"
       y1="75.021004"
       x2="81.836998"
       y2="44.354" />
    <linearGradient
       inkscape:collect="always"
       xlink:href="#d"
       id="linearGradient5258"
       gradientUnits="userSpaceOnUse"
       x1="110.87"
       y1="164.5"
       x2="52.537998"
       y2="130.33" />
    <linearGradient
       inkscape:collect="always"
       xlink:href="#g"
       id="linearGradient5260"
       gradientUnits="userSpaceOnUse"
       x1="121.86"
       y1="49.804001"
       x2="136.55"
       y2="114.13" />
    <linearGradient
       inkscape:collect="always"
       xlink:href="#g"
       id="linearGradient5262"
       gradientUnits="userSpaceOnUse"
       x1="121.86"
       y1="49.804001"
       x2="136.55"
       y2="114.13" />
    <linearGradient
       inkscape:collect="always"
       xlink:href="#c"
       id="linearGradient5264"
       gradientUnits="userSpaceOnUse"
       x1="29.337"
       y1="75.021004"
       x2="81.836998"
       y2="44.354" />
    <linearGradient
       inkscape:collect="always"
       xlink:href="#d"
       id="linearGradient5266"
       gradientUnits="userSpaceOnUse"
       x1="110.87"
       y1="164.5"
       x2="52.537998"
       y2="130.33" />
  </defs>
  <clipPath
     id="b">
    <use
       width="100%"
       overflow="visible"
       xlink:href="#a"
       height="100%"
       id="use5118"
       style="overflow:visible"
       x="0"
       y="0" />
  </clipPath>
  <g
     transform="matrix(0.68181818,0,0,0.68181818,-4.454545,-4.454545)"
     clip-path="url(#b)"
     id="g5130">
    <path
       d="M 21.97,8 V 116 H 61.36 L 96,56 h 88 V 8 Z"
       id="path5121"
       inkscape:connector-curvature="0"
       style="fill:#db4437" />
    <linearGradient
       id="c"
       y2="44.354"
       gradientUnits="userSpaceOnUse"
       y1="75.021004"
       x2="81.836998"
       x1="29.337">
      <stop
         stop-color="#A52714"
         stop-opacity=".6"
         offset="0"
         id="stop5123" />
      <stop
         stop-color="#A52714"
         stop-opacity="0"
         offset=".66"
         id="stop5125" />
    </linearGradient>
    <path
       d="M 21.97,8 V 116 H 61.36 L 96,56 h 88 V 8 Z"
       id="path5128"
       style="fill:url(#linearGradient5256)"
       inkscape:connector-curvature="0" />
  </g>
  <path
     clip-path="url(#b)"
     d="m 62.31,115.65 -39.83,-68.31 -0.58,1 39.54,67.8 z"
     transform="matrix(0.68181818,0,0,0.68181818,-4.454545,-4.454545)"
     id="path5132"
     inkscape:connector-curvature="0"
     style="fill:#3e2723;fill-opacity:0.15" />
  <g
     transform="matrix(0.68181818,0,0,0.68181818,-4.454545,-4.454545)"
     clip-path="url(#b)"
     id="g5143">
    <path
       d="m 8,184 h 83.77 l 38.88,-38.88 V 116 H 61.36 L 8,24.48 Z"
       id="path5134"
       inkscape:connector-curvature="0"
       style="fill:#0f9d58" />
    <linearGradient
       id="d"
       y2="130.33"
       gradientUnits="userSpaceOnUse"
       y1="164.5"
       x2="52.537998"
       x1="110.87">
      <stop
         stop-color="#055524"
         stop-opacity=".4"
         offset="0"
         id="stop5136" />
      <stop
         stop-color="#055524"
         stop-opacity="0"
         offset=".33"
         id="stop5138" />
    </linearGradient>
    <path
       d="m 8,184 h 83.77 l 38.88,-38.88 V 116 H 61.36 L 8,24.48 Z"
       id="path5141"
       style="fill:url(#linearGradient5258)"
       inkscape:connector-curvature="0" />
  </g>
  <path
     clip-path="url(#b)"
     d="M 129.84,117.33 129.01,116.85 90.62,184 h 1.15 l 38.1,-66.64 z"
     transform="matrix(0.68181818,0,0,0.68181818,-4.454545,-4.454545)"
     id="path5145"
     inkscape:connector-curvature="0"
     style="fill:#263238;fill-opacity:0.15" />
  <g
     transform="matrix(0.68181818,0,0,0.68181818,-4.454545,-4.454545)"
     clip-path="url(#b)"
     id="g5164">
    <defs
       id="defs5148">
      <path
         id="e"
         d="m 8,184 h 83.77 l 38.88,-38.88 V 116 H 61.36 L 8,24.48 Z"
         inkscape:connector-curvature="0" />
    </defs>
    <clipPath
       id="f">
      <use
         width="100%"
         overflow="visible"
         xlink:href="#e"
         height="100%"
         id="use5150"
         style="overflow:visible"
         x="0"
         y="0" />
    </clipPath>
    <g
       clip-path="url(#f)"
       id="g5162">
      <path
         d="m 96,56 34.65,60 -38.88,68 H 184 V 56 Z"
         id="path5153"
         inkscape:connector-curvature="0"
         style="fill:#ffcd40" />
      <linearGradient
         id="g"
         y2="114.13"
         gradientUnits="userSpaceOnUse"
         y1="49.804001"
         x2="136.55"
         x1="121.86">
        <stop
           stop-color="#EA6100"
           stop-opacity=".3"
           offset="0"
           id="stop5155" />
        <stop
           stop-color="#EA6100"
           stop-opacity="0"
           offset=".66"
           id="stop5157" />
      </linearGradient>
      <path
         d="m 96,56 34.65,60 -38.88,68 H 184 V 56 Z"
         id="path5160"
         style="fill:url(#linearGradient5260)"
         inkscape:connector-curvature="0" />
    </g>
  </g>
  <g
     transform="matrix(0.68181818,0,0,0.68181818,-4.454545,-4.454545)"
     clip-path="url(#b)"
     id="g5170">
    <path
       d="m 96,56 34.65,60 -38.88,68 H 184 V 56 Z"
       id="path5166"
       inkscape:connector-curvature="0"
       style="fill:#ffcd40" />
    <path
       d="m 96,56 34.65,60 -38.88,68 H 184 V 56 Z"
       id="path5168"
       style="fill:url(#linearGradient5262)"
       inkscape:connector-curvature="0" />
  </g>
  <g
     transform="matrix(0.68181818,0,0,0.68181818,-4.454545,-4.454545)"
     clip-path="url(#b)"
     id="g5184">
    <defs
       id="defs5173">
      <path
         id="i"
         d="m 96,56 34.65,60 -38.88,68 H 184 V 56 Z"
         inkscape:connector-curvature="0" />
    </defs>
    <clipPath
       id="j">
      <use
         width="100%"
         overflow="visible"
         xlink:href="#i"
         height="100%"
         id="use5175"
         style="overflow:visible"
         x="0"
         y="0" />
    </clipPath>
    <g
       clip-path="url(#j)"
       id="g5182">
      <path
         d="M 21.97,8 V 116 H 61.36 L 96,56 h 88 V 8 Z"
         id="path5178"
         inkscape:connector-curvature="0"
         style="fill:#db4437" />
      <path
         d="M 21.97,8 V 116 H 61.36 L 96,56 h 88 V 8 Z"
         id="path5180"
         style="fill:url(#linearGradient5264)"
         inkscape:connector-curvature="0" />
    </g>
  </g>
  <radialGradient
     id="l"
     gradientUnits="userSpaceOnUse"
     cy="55.948002"
     cx="668.17999"
     gradientTransform="translate(-576)"
     r="84.078003">
    <stop
       stop-color="#3E2723"
       stop-opacity=".2"
       offset="0"
       id="stop5186" />
    <stop
       stop-color="#3E2723"
       stop-opacity="0"
       offset="1"
       id="stop5188" />
  </radialGradient>
  <path
     clip-path="url(#b)"
     d="M 96,56 V 76.95 L 174.4,56 Z"
     transform="matrix(0.68181818,0,0,0.68181818,-4.454545,-4.454545)"
     id="path5191"
     style="fill:url(#l)"
     inkscape:connector-curvature="0" />
  <g
     transform="matrix(0.68181818,0,0,0.68181818,-4.454545,-4.454545)"
     clip-path="url(#b)"
     id="g5205">
    <defs
       id="defs5194">
      <path
         id="m"
         d="M 21.97,8 V 48.34 L 61.36,116 96,56 h 88 V 8 Z"
         inkscape:connector-curvature="0" />
    </defs>
    <clipPath
       id="n">
      <use
         width="100%"
         overflow="visible"
         xlink:href="#m"
         height="100%"
         id="use5196"
         style="overflow:visible"
         x="0"
         y="0" />
    </clipPath>
    <g
       clip-path="url(#n)"
       id="g5203">
      <path
         d="m 8,184 h 83.77 l 38.88,-38.88 V 116 H 61.36 L 8,24.48 Z"
         id="path5199"
         inkscape:connector-curvature="0"
         style="fill:#0f9d58" />
      <path
         d="m 8,184 h 83.77 l 38.88,-38.88 V 116 H 61.36 L 8,24.48 Z"
         id="path5201"
         style="fill:url(#linearGradient5266)"
         inkscape:connector-curvature="0" />
    </g>
  </g>
  <radialGradient
     id="p"
     gradientUnits="userSpaceOnUse"
     cy="48.52"
     cx="597.88"
     gradientTransform="translate(-576)"
     r="78.043999">
    <stop
       stop-color="#3E2723"
       stop-opacity=".2"
       offset="0"
       id="stop5207" />
    <stop
       stop-color="#3E2723"
       stop-opacity="0"
       offset="1"
       id="stop5209" />
  </radialGradient>
  <path
     clip-path="url(#b)"
     d="M 21.97,48.45 79.22,105.69 61.36,116 Z"
     transform="matrix(0.68181818,0,0,0.68181818,-4.454545,-4.454545)"
     id="path5212"
     style="fill:url(#p)"
     inkscape:connector-curvature="0" />
  <radialGradient
     id="q"
     gradientUnits="userSpaceOnUse"
     cy="96.138"
     cx="671.84003"
     gradientTransform="translate(-576)"
     r="87.870003">
    <stop
       stop-color="#263238"
       stop-opacity=".2"
       offset="0"
       id="stop5214" />
    <stop
       stop-color="#263238"
       stop-opacity="0"
       offset="1"
       id="stop5216" />
  </radialGradient>
  <path
     clip-path="url(#b)"
     d="m 91.83,183.89 20.96,-78.2 17.86,10.31 z"
     transform="matrix(0.68181818,0,0,0.68181818,-4.454545,-4.454545)"
     id="path5219"
     style="fill:url(#q)"
     inkscape:connector-curvature="0" />
  <g
     transform="matrix(0.68181818,0,0,0.68181818,-4.454545,-4.454545)"
     clip-path="url(#b)"
     id="g5225">
    <circle
       cy="96"
       cx="96"
       r="40"
       id="circle5221"
       style="fill:#f1f1f1" />
    <circle
       cy="96"
       cx="96"
       r="32"
       id="circle5223"
       style="fill:#4285f4" />
  </g>
  <g
     transform="matrix(0.68181818,0,0,0.68181818,-4.454545,-4.454545)"
     clip-path="url(#b)"
     id="g5235">
    <path
       d="M 96,55 C 73.91,55 56,72.91 56,95 v 1 C 56,73.91 73.91,56 96,56 h 88 v -1 z"
       id="path5227"
       inkscape:connector-curvature="0"
       style="fill:#3e2723;fill-opacity:0.2" />
    <path
       d="m 130.6,116 c -6.92,11.94 -19.81,20 -34.6,20 -14.8,0 -27.69,-8.06 -34.61,-20 H 61.35 L 8,24.48 v 1 L 61.36,117 h 0.04 c 6.92,11.94 19.81,20 34.61,20 14.79,0 27.68,-8.05 34.6,-20 h 0.05 v -1 z"
       id="path5229"
       inkscape:connector-curvature="0"
       style="fill:#ffffff;fill-opacity:0.1" />
    <path
       d="m 97,56 c -0.17,0 -0.33,0.02 -0.5,0.03 21.86,0.27 39.5,18.05 39.5,39.97 0,21.92 -17.64,39.7 -39.5,39.97 0.17,0 0.33,0.03 0.5,0.03 22.09,0 40,-17.91 40,-40 0,-22.09 -17.91,-40 -40,-40 z"
       id="path5231"
       inkscape:connector-curvature="0"
       style="opacity:0.1;fill:#3e2723" />
    <path
       d="m 131,117.33 c 3.4,-5.88 5.37,-12.68 5.37,-19.96 0,-4.22 -0.66,-8.28 -1.87,-12.09 0.95,3.42 1.5,7.01 1.5,10.73 0,7.28 -1.97,14.08 -5.37,19.96 l 0.02,0.04 -38.88,68 h 1.16 l 38.09,-66.64 z"
       id="path5233"
       inkscape:connector-curvature="0"
       style="fill:#ffffff;fill-opacity:0.2" />
  </g>
  <g
     transform="matrix(0.68181818,0,0,0.68181818,-4.454545,-4.454545)"
     clip-path="url(#b)"
     id="g5241">
    <path
       d="m 96,9 c 48.43,0 87.72,39.13 87.99,87.5 0,-0.17 0.01,-0.33 0.01,-0.5 C 184,47.4 144.6,8 96,8 47.4,8 8,47.4 8,96 8,96.17 8.01,96.33 8.01,96.5 8.28,48.13 47.57,9 96,9 Z"
       id="path5237"
       inkscape:connector-curvature="0"
       style="fill:#ffffff;fill-opacity:0.2" />
    <path
       d="m 96,183 c 48.43,0 87.72,-39.13 87.99,-87.5 0,0.17 0.01,0.33 0.01,0.5 0,48.6 -39.4,88 -88,88 C 47.4,184 8,144.6 8,96 8,95.83 8.01,95.67 8.01,95.5 8.28,143.87 47.57,183 96,183 Z"
       id="path5239"
       inkscape:connector-curvature="0"
       style="fill:#3e2723;fill-opacity:0.15" />
  </g>
  <radialGradient
     id="r"
     gradientUnits="userSpaceOnUse"
     cy="32.014"
     cx="34.285999"
     gradientTransform="matrix(0.68181818,0,0,0.68181818,-4.454545,-4.454545)"
     r="176.75">
    <stop
       stop-color="#fff"
       stop-opacity=".1"
       offset="0"
       id="stop5243" />
    <stop
       stop-color="#fff"
       stop-opacity="0"
       offset="1"
       id="stop5245" />
  </radialGradient>
  <circle
     cy="61"
     cx="61"
     r="60"
     id="circle5248"
     style="fill:url(#r);stroke-width:0.68181819" />
</svg>
