<?xml version="1.0" encoding="UTF-8" standalone="no"?>
<svg
   xmlns:dc="http://purl.org/dc/elements/1.1/"
   xmlns:cc="http://creativecommons.org/ns#"
   xmlns:rdf="http://www.w3.org/1999/02/22-rdf-syntax-ns#"
   xmlns:svg="http://www.w3.org/2000/svg"
   xmlns="http://www.w3.org/2000/svg"
   xmlns:xlink="http://www.w3.org/1999/xlink"
   xmlns:sodipodi="http://sodipodi.sourceforge.net/DTD/sodipodi-0.dtd"
   xmlns:inkscape="http://www.inkscape.org/namespaces/inkscape"
   sodipodi:docname="Applications-database.svg"
   inkscape:version="1.1-dev (ddb55ca, 2020-02-02)"
   version="1.1"
   id="svg2"
   height="131.71353"
   width="132.66934">
  <title
     id="title4980">Database</title>
  <defs
     id="defs4">
    <linearGradient
       id="linearGradient4365">
      <stop
         style="stop-color:#ffffff;stop-opacity:0.80000001;"
         offset="0"
         id="stop4367" />
      <stop
         style="stop-color:#ffffff;stop-opacity:0;"
         offset="1"
         id="stop4369" />
    </linearGradient>
    <linearGradient
       id="linearGradient3829">
      <stop
         id="stop3831"
         offset="0"
         style="stop-color:#ffffff;stop-opacity:0.60000002;" />
      <stop
         id="stop3833"
         offset="1"
         style="stop-color:#ffffff;stop-opacity:0.20784314;" />
    </linearGradient>
    <linearGradient
       id="linearGradient3820">
      <stop
         id="stop3823"
         offset="0"
         style="stop-color:#cbdbed;stop-opacity:1;" />
      <stop
         id="stop3825"
         offset="1"
         style="stop-color:#204a87;stop-opacity:1;" />
    </linearGradient>
    <linearGradient
       id="linearGradient_SkyBlue">
      <stop
         style="stop-color:#729fcf;stop-opacity:1;"
         offset="0"
         id="stop3832" />
      <stop
         style="stop-color:#204a87;stop-opacity:1;"
         offset="1"
         id="stop3834" />
    </linearGradient>
    <filter
       height="1.6873863"
       y="-0.34369317"
       width="1.1309307"
       x="-0.065465368"
       id="filter4938"
       inkscape:collect="always">
      <feGaussianBlur
         id="feGaussianBlur4940"
         stdDeviation="1.1456439"
         inkscape:collect="always" />
    </filter>
    <linearGradient
       y2="12"
       x2="15.5"
       y1="12"
       x1="0.5"
       gradientUnits="userSpaceOnUse"
       id="linearGradient5485"
       xlink:href="#linearGradient_SkyBlue"
       inkscape:collect="always" />
    <linearGradient
       y2="27"
       x2="-81.5"
       y1="27"
       x1="-122.5"
       gradientUnits="userSpaceOnUse"
       id="linearGradient5487"
       xlink:href="#linearGradient3820"
       inkscape:collect="always" />
    <linearGradient
       y2="23.5"
       x2="-82"
       y1="23.5"
       x1="-122"
       gradientUnits="userSpaceOnUse"
       id="linearGradient5489"
       xlink:href="#linearGradient3829"
       inkscape:collect="always" />
    <linearGradient
       y2="30"
       x2="-102"
       y1="30"
       x1="-121"
       gradientUnits="userSpaceOnUse"
       id="linearGradient5491"
       xlink:href="#linearGradient4365"
       inkscape:collect="always" />
    <linearGradient
       y2="12"
       x2="15.5"
       y1="12"
       x1="0.5"
       gradientUnits="userSpaceOnUse"
       id="linearGradient5493"
       xlink:href="#linearGradient_SkyBlue"
       inkscape:collect="always" />
    <linearGradient
       y2="27"
       x2="-81.5"
       y1="27"
       x1="-122.5"
       gradientUnits="userSpaceOnUse"
       id="linearGradient5495"
       xlink:href="#linearGradient3820"
       inkscape:collect="always" />
    <linearGradient
       y2="23.5"
       x2="-82"
       y1="23.5"
       x1="-122"
       gradientUnits="userSpaceOnUse"
       id="linearGradient5497"
       xlink:href="#linearGradient3829"
       inkscape:collect="always" />
    <linearGradient
       y2="30"
       x2="-102"
       y1="30"
       x1="-121"
       gradientUnits="userSpaceOnUse"
       id="linearGradient5499"
       xlink:href="#linearGradient4365"
       inkscape:collect="always" />
    <linearGradient
       y2="12"
       x2="15.5"
       y1="12"
       x1="0.5"
       gradientUnits="userSpaceOnUse"
       id="linearGradient5501"
       xlink:href="#linearGradient_SkyBlue"
       inkscape:collect="always" />
    <linearGradient
       y2="27"
       x2="-81.5"
       y1="27"
       x1="-122.5"
       gradientUnits="userSpaceOnUse"
       id="linearGradient5503"
       xlink:href="#linearGradient3820"
       inkscape:collect="always" />
    <linearGradient
       y2="23.5"
       x2="-82"
       y1="23.5"
       x1="-122"
       gradientUnits="userSpaceOnUse"
       id="linearGradient5505"
       xlink:href="#linearGradient3829"
       inkscape:collect="always" />
    <linearGradient
       y2="30"
       x2="-102"
       y1="30"
       x1="-121"
       gradientUnits="userSpaceOnUse"
       id="linearGradient5507"
       xlink:href="#linearGradient4365"
       inkscape:collect="always" />
    <clipPath
       id="clipPath6054"
       clipPathUnits="userSpaceOnUse">
      <rect
         transform="matrix(0.9545455,0,0,0.89256196,-4.6363639,-1.3719273)"
         y="-6"
         x="-126"
         height="22"
         width="48"
         id="rect6056"
         style="display:inline;fill:#a40000;fill-opacity:1;stroke:none" />
    </clipPath>
  </defs>
  <sodipodi:namedview
     fit-margin-bottom="0"
     fit-margin-right="0"
     fit-margin-left="0"
     fit-margin-top="0"
     inkscape:window-maximized="0"
     inkscape:window-y="26"
     inkscape:window-x="368"
     inkscape:window-height="930"
     inkscape:window-width="1226"
     inkscape:snap-global="true"
     inkscape:guide-bbox="true"
     inkscape:showpageshadow="false"
     borderlayer="true"
     guidetolerance="10"
     objecttolerance="10"
     showguides="false"
     showgrid="false"
     inkscape:current-layer="layer1"
     inkscape:document-units="px"
     inkscape:cy="26.537115"
     inkscape:cx="96.694574"
     inkscape:zoom="1"
     inkscape:pageshadow="2"
     inkscape:pageopacity="0.0"
     borderopacity="1.0"
     bordercolor="#666666"
     pagecolor="#ffffff"
     id="base">
    <inkscape:grid
       originy="54.98599"
       originx="174.52791"
       spacingx="0.5"
       spacingy="0.5"
       snapvisiblegridlinesonly="true"
       enabled="true"
       visible="true"
       empspacing="2"
       id="grid2816"
       type="xygrid" />
    <sodipodi:guide
       id="guide2818"
       position="182.52791,66.727541"
       orientation="1,0" />
    <sodipodi:guide
       id="guide2820"
       position="176.02791,68.727541"
       orientation="0,1" />
    <sodipodi:guide
       id="guide4687"
       position="155.52791,84.727541"
       orientation="1,0" />
    <sodipodi:guide
       id="guide4689"
       position="120.52791,58.727541"
       orientation="1,0" />
    <sodipodi:guide
       id="guide4691"
       position="72.527908,56.727541"
       orientation="1,0" />
    <sodipodi:guide
       id="guide4693"
       position="169.52791,71.727541"
       orientation="0,1" />
    <sodipodi:guide
       id="guide4695"
       position="123.52791,76.727541"
       orientation="0,1" />
    <sodipodi:guide
       id="guide4697"
       position="97.527908,84.727541"
       orientation="0,1" />
  </sodipodi:namedview>
  <metadata
     id="metadata7">
    <rdf:RDF>
      <cc:Work
         rdf:about="">
        <dc:format>image/svg+xml</dc:format>
        <dc:type
           rdf:resource="http://purl.org/dc/dcmitype/StillImage" />
        <dc:title>Database</dc:title>
        <dc:creator>
          <cc:Agent>
            <dc:title>Marty Vance</dc:title>
          </cc:Agent>
        </dc:creator>
        <dc:rights>
          <cc:Agent>
            <dc:title />
          </cc:Agent>
        </dc:rights>
        <cc:license
           rdf:resource="http://creativecommons.org/licenses/by-sa/4.0/" />
        <dc:subject>
          <rdf:Bag>
            <rdf:li>database</rdf:li>
          </rdf:Bag>
        </dc:subject>
        <dc:source>http://dracos.deviantart.com</dc:source>
      </cc:Work>
      <cc:License
         rdf:about="http://creativecommons.org/licenses/by-sa/4.0/">
        <cc:permits
           rdf:resource="http://creativecommons.org/ns#Reproduction" />
        <cc:permits
           rdf:resource="http://creativecommons.org/ns#Distribution" />
        <cc:requires
           rdf:resource="http://creativecommons.org/ns#Notice" />
        <cc:requires
           rdf:resource="http://creativecommons.org/ns#Attribution" />
        <cc:permits
           rdf:resource="http://creativecommons.org/ns#DerivativeWorks" />
        <cc:requires
           rdf:resource="http://creativecommons.org/ns#ShareAlike" />
      </cc:License>
    </rdf:RDF>
  </metadata>
  <g
     style="display:inline"
     transform="translate(174.52791,-981.37621)"
     id="layer1"
     inkscape:groupmode="layer"
     inkscape:label="Layer 1">
    <g
       style="stroke-width:0.361047"
       transform="matrix(2.7639445,0,0,2.7755064,173.7291,-1807.1394)"
       id="g1822">
      <ellipse
         ry="4"
         rx="21"
         cy="6"
         cx="-102"
         style="fill:#2e3436;fill-opacity:0.8;stroke:none;stroke-width:0.361047;filter:url(#filter4938)"
         id="path4932"
         transform="matrix(1.047619,0,0,1.375,4.8571429,1034.6122)"
         clip-path="url(#clipPath6054)" />
      <path
         inkscape:connector-curvature="0"
         id="path4791"
         transform="matrix(2.7333333,0,0,2.5714286,-123.86778,1007.0051)"
         d="m 8,8.5 c -4.1421358,0 -7.5,0.8954304 -7.5,2 v 3 c 0,1.10457 3.3578642,2 7.5,2 4.142136,0 7.5,-0.89543 7.5,-2 v -3 c 0,-1.1045696 -3.357864,-2 -7.5,-2 z"
         style="fill:url(#linearGradient5485);fill-opacity:1;stroke:none;stroke-width:0.361047" />
      <path
         inkscape:connector-curvature="0"
         style="fill:url(#linearGradient5487);fill-opacity:1;stroke:none;stroke-width:0.361047"
         d="m -122.34375,19.5 c -0.10465,0.210567 -0.15625,0.438571 -0.15625,0.65625 v 8.1875 c 0,2.840323 9.17816,5.15625 20.5,5.15625 11.321838,0 20.5,-2.315927 20.5,-5.15625 v -8.1875 c 0,-0.217679 -0.0516,-0.445683 -0.15625,-0.65625 -1.26084,2.536959 -9.889604,4.5 -20.34375,4.5 -10.45415,0 -19.08291,-1.963041 -20.34375,-4.5 z"
         transform="translate(0,1013.3622)"
         id="path4822"
         sodipodi:nodetypes="cccscccsc" />
      <path
         inkscape:connector-curvature="0"
         style="color:#000000;font-style:normal;font-variant:normal;font-weight:normal;font-stretch:normal;font-size:medium;line-height:normal;font-family:'Bitstream Vera Sans';-inkscape-font-specification:'Bitstream Vera Sans';text-indent:0;text-align:start;text-decoration:none;text-decoration-line:none;letter-spacing:normal;word-spacing:normal;text-transform:none;writing-mode:lr-tb;direction:ltr;text-anchor:start;display:inline;overflow:visible;visibility:visible;fill:url(#linearGradient5489);fill-opacity:1;stroke:none;stroke-width:0.408558;marker:none;enable-background:accumulate"
         d="m -102,15 c -5.62377,0 -10.69706,0.58515 -14.34375,1.5 -1.82335,0.457425 -3.31556,0.958477 -4.28125,1.53125 -0.96569,0.572773 -1.375,1.160633 -1.375,1.625 v 7.6875 c 0,0.464367 0.40931,1.052227 1.375,1.625 0.96569,0.572773 2.4579,1.073826 4.28125,1.53125 3.64669,0.91485 8.71998,1.5 14.34375,1.5 5.623773,0 10.697057,-0.58515 14.34375,-1.5 1.823347,-0.457424 3.315563,-0.958477 4.28125,-1.53125 0.965687,-0.572773 1.375,-1.160633 1.375,-1.625 v -7.6875 c 0,-0.464367 -0.409313,-1.052227 -1.375,-1.625 C -84.340687,17.458477 -85.832903,16.957425 -87.65625,16.5 -91.302943,15.58515 -96.376227,15 -102,15 Z m 0,1 c 5.540038,0 10.547949,0.487269 14.0625,1.375 1.757277,0.443866 3.116554,0.947245 3.9375,1.4375 0.820946,0.490255 1,0.8397 1,0.8125 v 7.75 c 0,-0.02719 -0.179049,0.322245 -1,0.8125 -0.820946,0.490255 -2.180223,0.993634 -3.9375,1.4375 C -91.452048,30.51273 -96.459962,31 -102,31 c -5.54004,0 -10.54795,-0.48727 -14.0625,-1.375 -1.75728,-0.443866 -3.11655,-0.947245 -3.9375,-1.4375 -0.82095,-0.490255 -1,-0.8397 -1,-0.8125 v -7.75 c 0,0.02719 0.17905,-0.322245 1,-0.8125 0.82095,-0.490255 2.18022,-0.993634 3.9375,-1.4375 C -112.54795,16.487269 -107.54004,16 -102,16 Z"
         transform="translate(0,1014.3622)"
         id="path4803"
         sodipodi:nodetypes="cssccsssssccssccssccsssssccssc" />
      <path
         inkscape:connector-curvature="0"
         style="fill:none;stroke:#193965;stroke-width:0.136185;stroke-opacity:1"
         d="m 8,8.5 c -4.1421358,0 -7.5,0.8954304 -7.5,2 v 3 c 0,1.10457 3.3578642,2 7.5,2 4.142136,0 7.5,-0.89543 7.5,-2 v -3 c 0,-1.1045696 -3.357864,-2 -7.5,-2 z"
         transform="matrix(2.7333333,0,0,2.5714286,-123.86778,1007.0051)"
         id="path4721" />
      <path
         inkscape:connector-curvature="0"
         style="fill:url(#linearGradient5491);fill-opacity:1;stroke:none;stroke-width:0.361047"
         d="m -121,27.78125 v 1 c 3.04999,1.880266 10.40953,3.21875 19,3.21875 8.590466,0 15.950008,-1.338484 19,-3.21875 v -1 C -86.049992,29.661516 -93.409534,31 -102,31 c -8.59047,0 -15.95001,-1.338484 -19,-3.21875 z"
         transform="translate(0,1006.3622)"
         id="path4831"
         sodipodi:nodetypes="ccsccsc" />
      <path
         inkscape:connector-curvature="0"
         style="fill:url(#linearGradient5493);fill-opacity:1;stroke:none;stroke-width:0.361047"
         d="m 8,8.5 c -4.1421358,0 -7.5,0.8954304 -7.5,2 v 3 c 0,1.10457 3.3578642,2 7.5,2 4.142136,0 7.5,-0.89543 7.5,-2 v -3 c 0,-1.1045696 -3.357864,-2 -7.5,-2 z"
         transform="matrix(2.7333333,0,0,2.5714286,-123.86778,995.0051)"
         id="path4882" />
      <path
         inkscape:connector-curvature="0"
         sodipodi:nodetypes="cccscccsc"
         id="path4884"
         transform="translate(0,1001.3622)"
         d="m -122.34375,19.5 c -0.10465,0.210567 -0.15625,0.438571 -0.15625,0.65625 v 8.1875 c 0,2.840323 9.17816,5.15625 20.5,5.15625 11.321838,0 20.5,-2.315927 20.5,-5.15625 v -8.1875 c 0,-0.217679 -0.0516,-0.445683 -0.15625,-0.65625 -1.26084,2.536959 -9.889604,4.5 -20.34375,4.5 -10.45415,0 -19.08291,-1.963041 -20.34375,-4.5 z"
         style="fill:url(#linearGradient5495);fill-opacity:1;stroke:none;stroke-width:0.361047" />
      <path
         inkscape:connector-curvature="0"
         sodipodi:nodetypes="cssccsssssccssccssccsssssccssc"
         id="path4886"
         transform="translate(0,1002.3622)"
         d="m -102,15 c -5.62377,0 -10.69706,0.58515 -14.34375,1.5 -1.82335,0.457425 -3.31556,0.958477 -4.28125,1.53125 -0.96569,0.572773 -1.375,1.160633 -1.375,1.625 v 7.6875 c 0,0.464367 0.40931,1.052227 1.375,1.625 0.96569,0.572773 2.4579,1.073826 4.28125,1.53125 3.64669,0.91485 8.71998,1.5 14.34375,1.5 5.623773,0 10.697057,-0.58515 14.34375,-1.5 1.823347,-0.457424 3.315563,-0.958477 4.28125,-1.53125 0.965687,-0.572773 1.375,-1.160633 1.375,-1.625 v -7.6875 c 0,-0.464367 -0.409313,-1.052227 -1.375,-1.625 C -84.340687,17.458477 -85.832903,16.957425 -87.65625,16.5 -91.302943,15.58515 -96.376227,15 -102,15 Z m 0,1 c 5.540038,0 10.547949,0.487269 14.0625,1.375 1.757277,0.443866 3.116554,0.947245 3.9375,1.4375 0.820946,0.490255 1,0.8397 1,0.8125 v 7.75 c 0,-0.02719 -0.179049,0.322245 -1,0.8125 -0.820946,0.490255 -2.180223,0.993634 -3.9375,1.4375 C -91.452048,30.51273 -96.459962,31 -102,31 c -5.54004,0 -10.54795,-0.48727 -14.0625,-1.375 -1.75728,-0.443866 -3.11655,-0.947245 -3.9375,-1.4375 -0.82095,-0.490255 -1,-0.8397 -1,-0.8125 v -7.75 c 0,0.02719 0.17905,-0.322245 1,-0.8125 0.82095,-0.490255 2.18022,-0.993634 3.9375,-1.4375 C -112.54795,16.487269 -107.54004,16 -102,16 Z"
         style="color:#000000;font-style:normal;font-variant:normal;font-weight:normal;font-stretch:normal;font-size:medium;line-height:normal;font-family:'Bitstream Vera Sans';-inkscape-font-specification:'Bitstream Vera Sans';text-indent:0;text-align:start;text-decoration:none;text-decoration-line:none;letter-spacing:normal;word-spacing:normal;text-transform:none;writing-mode:lr-tb;direction:ltr;text-anchor:start;display:inline;overflow:visible;visibility:visible;fill:url(#linearGradient5497);fill-opacity:1;stroke:none;stroke-width:0.408558;marker:none;enable-background:accumulate" />
      <path
         inkscape:connector-curvature="0"
         id="path4888"
         transform="matrix(2.7333333,0,0,2.5714286,-123.86778,995.0051)"
         d="m 8,8.5 c -4.1421358,0 -7.5,0.8954304 -7.5,2 v 3 c 0,1.10457 3.3578642,2 7.5,2 4.142136,0 7.5,-0.89543 7.5,-2 v -3 c 0,-1.1045696 -3.357864,-2 -7.5,-2 z"
         style="fill:none;stroke:#193965;stroke-width:0.136185;stroke-opacity:1" />
      <path
         inkscape:connector-curvature="0"
         sodipodi:nodetypes="ccsccsc"
         id="path4892"
         transform="translate(0,994.3622)"
         d="m -121,27.78125 v 1 c 3.04999,1.880266 10.40953,3.21875 19,3.21875 8.590466,0 15.950008,-1.338484 19,-3.21875 v -1 C -86.049992,29.661516 -93.409534,31 -102,31 c -8.59047,0 -15.95001,-1.338484 -19,-3.21875 z"
         style="fill:url(#linearGradient5499);fill-opacity:1;stroke:none;stroke-width:0.361047" />
      <path
         inkscape:connector-curvature="0"
         id="path4912"
         transform="matrix(2.7333333,0,0,2.5714286,-123.86778,983.0051)"
         d="m 8,8.5 c -4.1421358,0 -7.5,0.8954304 -7.5,2 v 3 c 0,1.10457 3.3578642,2 7.5,2 4.142136,0 7.5,-0.89543 7.5,-2 v -3 c 0,-1.1045696 -3.357864,-2 -7.5,-2 z"
         style="fill:url(#linearGradient5501);fill-opacity:1;stroke:none;stroke-width:0.361047" />
      <path
         inkscape:connector-curvature="0"
         style="fill:url(#linearGradient5503);fill-opacity:1;stroke:none;stroke-width:0.361047"
         d="m -122.34375,19.5 c -0.10465,0.210567 -0.15625,0.438571 -0.15625,0.65625 v 8.1875 c 0,2.840323 9.17816,5.15625 20.5,5.15625 11.321838,0 20.5,-2.315927 20.5,-5.15625 v -8.1875 c 0,-0.217679 -0.0516,-0.445683 -0.15625,-0.65625 -1.26084,2.536959 -9.889604,4.5 -20.34375,4.5 -10.45415,0 -19.08291,-1.963041 -20.34375,-4.5 z"
         transform="translate(0,989.3622)"
         id="path4914"
         sodipodi:nodetypes="cccscccsc" />
      <path
         inkscape:connector-curvature="0"
         style="color:#000000;font-style:normal;font-variant:normal;font-weight:normal;font-stretch:normal;font-size:medium;line-height:normal;font-family:'Bitstream Vera Sans';-inkscape-font-specification:'Bitstream Vera Sans';text-indent:0;text-align:start;text-decoration:none;text-decoration-line:none;letter-spacing:normal;word-spacing:normal;text-transform:none;writing-mode:lr-tb;direction:ltr;text-anchor:start;display:inline;overflow:visible;visibility:visible;fill:url(#linearGradient5505);fill-opacity:1;stroke:none;stroke-width:0.408558;marker:none;enable-background:accumulate"
         d="m -102,15 c -5.62377,0 -10.69706,0.58515 -14.34375,1.5 -1.82335,0.457425 -3.31556,0.958477 -4.28125,1.53125 -0.96569,0.572773 -1.375,1.160633 -1.375,1.625 v 7.6875 c 0,0.464367 0.40931,1.052227 1.375,1.625 0.96569,0.572773 2.4579,1.073826 4.28125,1.53125 3.64669,0.91485 8.71998,1.5 14.34375,1.5 5.623773,0 10.697057,-0.58515 14.34375,-1.5 1.823347,-0.457424 3.315563,-0.958477 4.28125,-1.53125 0.965687,-0.572773 1.375,-1.160633 1.375,-1.625 v -7.6875 c 0,-0.464367 -0.409313,-1.052227 -1.375,-1.625 C -84.340687,17.458477 -85.832903,16.957425 -87.65625,16.5 -91.302943,15.58515 -96.376227,15 -102,15 Z m 0,1 c 5.540038,0 10.547949,0.487269 14.0625,1.375 1.757277,0.443866 3.116554,0.947245 3.9375,1.4375 0.820946,0.490255 1,0.8397 1,0.8125 v 7.75 c 0,-0.02719 -0.179049,0.322245 -1,0.8125 -0.820946,0.490255 -2.180223,0.993634 -3.9375,1.4375 C -91.452048,30.51273 -96.459962,31 -102,31 c -5.54004,0 -10.54795,-0.48727 -14.0625,-1.375 -1.75728,-0.443866 -3.11655,-0.947245 -3.9375,-1.4375 -0.82095,-0.490255 -1,-0.8397 -1,-0.8125 v -7.75 c 0,0.02719 0.17905,-0.322245 1,-0.8125 0.82095,-0.490255 2.18022,-0.993634 3.9375,-1.4375 C -112.54795,16.487269 -107.54004,16 -102,16 Z"
         transform="translate(0,990.3622)"
         id="path4916"
         sodipodi:nodetypes="cssccsssssccssccssccsssssccssc" />
      <path
         inkscape:connector-curvature="0"
         style="fill:none;stroke:#193965;stroke-width:0.136185;stroke-opacity:1"
         d="m 8,8.5 c -4.1421358,0 -7.5,0.8954304 -7.5,2 v 3 c 0,1.10457 3.3578642,2 7.5,2 4.142136,0 7.5,-0.89543 7.5,-2 v -3 c 0,-1.1045696 -3.357864,-2 -7.5,-2 z"
         transform="matrix(2.7333333,0,0,2.5714286,-123.86778,983.0051)"
         id="path4918" />
      <path
         inkscape:connector-curvature="0"
         style="fill:url(#linearGradient5507);fill-opacity:1;stroke:none;stroke-width:0.361047"
         d="m -121,27.78125 v 1 c 3.04999,1.880266 10.40953,3.21875 19,3.21875 8.590466,0 15.950008,-1.338484 19,-3.21875 v -1 C -86.049992,29.661516 -93.409534,31 -102,31 c -8.59047,0 -15.95001,-1.338484 -19,-3.21875 z"
         transform="translate(0,982.3622)"
         id="path4922"
         sodipodi:nodetypes="ccsccsc" />
    </g>
  </g>
</svg>
