<?xml version="1.0" encoding="UTF-8" standalone="no"?>
<!-- Svg Vector Icons : http://www.onlinewebfonts.com/icon -->

<svg
   xmlns:dc="http://purl.org/dc/elements/1.1/"
   xmlns:cc="http://creativecommons.org/ns#"
   xmlns:rdf="http://www.w3.org/1999/02/22-rdf-syntax-ns#"
   xmlns:svg="http://www.w3.org/2000/svg"
   xmlns="http://www.w3.org/2000/svg"
   xmlns:sodipodi="http://sodipodi.sourceforge.net/DTD/sodipodi-0.dtd"
   xmlns:inkscape="http://www.inkscape.org/namespaces/inkscape"
   version="1.1"
   x="0px"
   y="0px"
   viewBox="0 0 480.00063 262.27301"
   enable-background="new 0 0 1000 1000"
   xml:space="preserve"
   id="svg5288"
   sodipodi:docname="devices.svg"
   width="480.00064"
   height="262.27301"
   inkscape:version="0.92.2 (5c3e80d, 2017-08-06)"><defs
     id="defs5292" /><sodipodi:namedview
     pagecolor="#ffffff"
     bordercolor="#666666"
     borderopacity="1"
     objecttolerance="10"
     gridtolerance="10"
     guidetolerance="10"
     inkscape:pageopacity="0"
     inkscape:pageshadow="2"
     inkscape:window-width="1366"
     inkscape:window-height="705"
     id="namedview5290"
     showgrid="false"
     fit-margin-top="0"
     fit-margin-left="0"
     fit-margin-right="0"
     fit-margin-bottom="0"
     inkscape:zoom="0.236"
     inkscape:cx="-766.34854"
     inkscape:cy="131.14142"
     inkscape:window-x="-8"
     inkscape:window-y="-8"
     inkscape:window-maximized="1"
     inkscape:current-layer="g5286" /><metadata
     id="metadata5276"> Svg Vector Icons : http://www.onlinewebfonts.com/icon <rdf:RDF><cc:Work
     rdf:about=""><dc:format>image/svg+xml</dc:format><dc:type
       rdf:resource="http://purl.org/dc/dcmitype/StillImage" /><dc:title></dc:title></cc:Work></rdf:RDF></metadata><g
     id="g5286"
     transform="matrix(0.37350325,0,0,0.37350325,53.251344,-55.616971)"><g
       transform="matrix(0.13113661,0,0,-0.13113661,-155.68087,514.42349)"
       id="g5284"
       style="fill:#ffffff"><path
         d="m 1201.1,2764.9 c -70.8,-30.6 -134,-99.5 -160.8,-170.3 -15.3,-38.3 -21.1,-779 -21.1,-2379 V -2108 H 581 c -505.3,0 -490,5.7 -476.6,-162.7 9.6,-112.9 45.9,-179.9 137.8,-246.9 51.7,-40.2 59.3,-40.2 2815.4,-45.9 l 2763.7,-3.8 -26.8,67 c -21.1,47.9 -28.7,149.3 -28.7,382.8 v 315.8 H 3545.7 1325.5 V 341.9 2485.5 H 4694 8062.5 V 2179.3 1873 h 155 153.1 l -5.7,361.7 c -5.7,396.2 -11.5,413.4 -137.8,507.2 l -51.7,40.2 -3458.4,3.9 c -2853.7,3.8 -3468,0 -3515.9,-21.1 z m 4182,-4897.7 c 0,-15.3 -23,-45.9 -49.8,-72.7 l -49.8,-45.9 H 4694 4104.5 l -49.8,45.9 c -103.3,97.6 -103.3,97.6 639.3,97.6 558.9,-0.1 689.1,-3.9 689.1,-24.9 z"
         id="path5278"
         inkscape:connector-curvature="0"
         style="fill:#ffffff" /><path
         d="M 5984.1,1654.9 5919,1589.8 V -423.7 -2437.2 l 65.1,-65.1 65.1,-65.1 H 7075 8100.9 l -19.1,49.8 c -11.5,26.8 -19.1,147.4 -19.1,267.9 v 218.2 h -957 -957 v 1684.3 1684.3 h 1378 1378 v -268 -267.9 h 114.8 114.8 v 394.3 394.3 l -65.1,65.1 -65.1,65.1 H 7526.7 6049.1 Z m 1619.2,-3877.7 c 21,-21.1 38.3,-55.5 38.3,-76.6 0,-21.1 -17.2,-55.5 -38.3,-76.6 -21,-21.1 -55.5,-38.3 -76.6,-38.3 -21.1,0 -55.5,17.2 -76.6,38.3 -21,21.1 -38.3,55.5 -38.3,76.6 0,21 17.2,55.5 38.3,76.6 21,21.1 55.5,38.3 76.6,38.3 21.1,0 55.5,-17.2 76.6,-38.3 z"
         id="path5280"
         inkscape:connector-curvature="0"
         style="fill:#ffffff" /><path
         d="m 8263.6,600.3 -47.9,-45.9 v -1514 -1513.9 l 47.9,-45.9 45.9,-47.8 h 748.3 748.3 l 45.9,47.8 47.9,45.9 V -959.6 554.3 l -47.9,45.9 -45.9,47.9 H 9057.8 8309.5 Z M 9651.2,-883 V -2031.4 H 9038.7 8426.2 V -883 265.3 h 612.5 612.5 z m -516.8,-1339.8 c 21,-21.1 38.3,-55.5 38.3,-76.6 0,-21.1 -17.2,-55.5 -38.3,-76.6 -21.1,-21.1 -55.5,-38.3 -76.6,-38.3 -21.1,0 -55.5,17.2 -76.6,38.3 -21,21.1 -38.3,55.5 -38.3,76.6 0,21 17.2,55.5 38.3,76.6 21.1,21.1 55.5,38.3 76.6,38.3 21.1,0 55.6,-17.2 76.6,-38.3 z"
         id="path5282"
         inkscape:connector-curvature="0"
         style="fill:#ffffff" /></g></g></svg>