<?xml version="1.0" encoding="UTF-8" standalone="no"?>
<!-- Created with Inkscape (http://www.inkscape.org/) -->

<svg
   xmlns:dc="http://purl.org/dc/elements/1.1/"
   xmlns:cc="http://creativecommons.org/ns#"
   xmlns:rdf="http://www.w3.org/1999/02/22-rdf-syntax-ns#"
   xmlns:svg="http://www.w3.org/2000/svg"
   xmlns="http://www.w3.org/2000/svg"
   xmlns:sodipodi="http://sodipodi.sourceforge.net/DTD/sodipodi-0.dtd"
   xmlns:inkscape="http://www.inkscape.org/namespaces/inkscape"
   width="150mm"
   height="150mm"
   viewBox="0 0 150 150"
   version="1.1"
   id="svg8"
   inkscape:version="0.92.3 (2405546, 2018-03-11)"
   sodipodi:docname="frontend.svg">
  <defs
     id="defs2" />
  <sodipodi:namedview
     id="base"
     pagecolor="#ffffff"
     bordercolor="#666666"
     borderopacity="1.0"
     inkscape:pageopacity="0.0"
     inkscape:pageshadow="2"
     inkscape:zoom="0.35"
     inkscape:cx="307.42861"
     inkscape:cy="167.41282"
     inkscape:document-units="mm"
     inkscape:current-layer="g3770"
     showgrid="false"
     fit-margin-top="0"
     fit-margin-left="0"
     fit-margin-right="0"
     fit-margin-bottom="0"
     inkscape:window-width="1920"
     inkscape:window-height="1017"
     inkscape:window-x="-8"
     inkscape:window-y="-8"
     inkscape:window-maximized="1" />
  <metadata
     id="metadata5">
    <rdf:RDF>
      <cc:Work
         rdf:about="">
        <dc:format>image/svg+xml</dc:format>
        <dc:type
           rdf:resource="http://purl.org/dc/dcmitype/StillImage" />
        <dc:title></dc:title>
      </cc:Work>
    </rdf:RDF>
  </metadata>
  <g
     inkscape:label="Layer 1"
     inkscape:groupmode="layer"
     id="layer1"
     transform="translate(-24.492847,-43.127975)">
    <rect
       id="rect3713"
       width="150"
       height="150"
       x="24.492847"
       y="43.127975"
       style="fill:#ffffff;stroke-width:0.33633471"
       ry="14.414347" />
    <g
       id="g3829"
       transform="matrix(0.26458333,0,0,0.26458333,37.50274,57.068215)">
      <g
         id="g3770">
	<path
   id="path3762"
   d="M 166.316,75.172 423.482,74.08 v 174.18 l -141.64,0.6 v 31.338 h 142.732 c 17.018,0 30.854,-13.844 30.854,-30.856 V 74.08 c 0,-17.011 -13.837,-30.856 -30.854,-30.856 H 166.316 c -17.018,0 -30.855,13.845 -30.855,30.856 v 54.854 h 31.198 z"
   style="fill:#008080"
   inkscape:connector-curvature="0" />

	<path
   id="path3764"
   d="m 472.152,287.593 h -190.31 v 36.493 h 173.977 c 14.585,0 26.41,-11.824 26.41,-26.417 0,-5.561 -4.508,-10.076 -10.077,-10.076 z"
   style="fill:#008080"
   inkscape:connector-curvature="0" />

	<path
   id="path3766"
   d="M 224.672,152.894 H 112.484 c -18.313,0 -33.21,14.897 -33.21,33.211 v 46.173 h 18.203 c 4.851,0 9.438,0.999 13.743,2.581 v -48.754 c 0,-0.694 0.56,-1.264 1.264,-1.264 h 112.188 c 0.703,0 1.264,0.569 1.264,1.264 v 155.717 h -88.492 v 45.159 h 87.229 c 18.314,0 33.211,-14.897 33.211,-33.211 V 186.105 c -0.001,-18.313 -14.898,-33.211 -33.212,-33.211 z m -56.094,219.488 c -4.039,0 -7.456,-2.379 -9.188,-5.757 -0.733,-1.426 -1.248,-2.979 -1.248,-4.686 0,-5.765 4.681,-10.435 10.436,-10.435 5.757,0 10.436,4.67 10.436,10.435 0,1.708 -0.514,3.26 -1.247,4.686 -1.732,3.378 -5.149,5.757 -9.189,5.757 z"
   style="fill:#000080"
   inkscape:connector-curvature="0" />

	<path
   id="path3768"
   d="M 97.478,252.245 H 19.998 C 8.969,252.245 0,261.222 0,272.25 v 146.756 c 0,11.03 8.969,19.999 19.998,19.999 h 77.479 c 11.029,0 19.999,-8.969 19.999,-19.999 V 272.25 c 0.001,-11.028 -8.969,-20.005 -19.998,-20.005 z M 23.96,276.205 H 93.516 V 403.064 H 23.96 Z m 34.785,153.082 c -2.199,0 -4.164,-0.89 -5.663,-2.262 -1.699,-1.544 -2.792,-3.712 -2.792,-6.185 0,-4.665 3.776,-8.439 8.455,-8.439 4.648,0 8.425,3.774 8.425,8.439 0,2.473 -1.093,4.64 -2.778,6.185 -1.497,1.372 -3.462,2.262 -5.647,2.262 z"
   style="fill:#800080"
   inkscape:connector-curvature="0" />

</g>
      <g
         id="g3772">
</g>
      <g
         id="g3774">
</g>
      <g
         id="g3776">
</g>
      <g
         id="g3778">
</g>
      <g
         id="g3780">
</g>
      <g
         id="g3782">
</g>
      <g
         id="g3784">
</g>
      <g
         id="g3786">
</g>
      <g
         id="g3788">
</g>
      <g
         id="g3790">
</g>
      <g
         id="g3792">
</g>
      <g
         id="g3794">
</g>
      <g
         id="g3796">
</g>
      <g
         id="g3798">
</g>
      <g
         id="g3800">
</g>
    </g>
  </g>
</svg>
