<?xml version="1.0" encoding="UTF-8" standalone="no"?>
<!-- Generator: Adobe Illustrator 19.0.0, SVG Export Plug-In . SVG Version: 6.00 Build 0)  -->

<svg
   xmlns:dc="http://purl.org/dc/elements/1.1/"
   xmlns:cc="http://creativecommons.org/ns#"
   xmlns:rdf="http://www.w3.org/1999/02/22-rdf-syntax-ns#"
   xmlns:svg="http://www.w3.org/2000/svg"
   xmlns="http://www.w3.org/2000/svg"
   xmlns:sodipodi="http://sodipodi.sourceforge.net/DTD/sodipodi-0.dtd"
   xmlns:inkscape="http://www.inkscape.org/namespaces/inkscape"
   version="1.1"
   id="Layer_1"
   x="0px"
   y="0px"
   viewBox="0 0 512 512"
   xml:space="preserve"
   sodipodi:docname="devices.svg"
   width="512"
   height="512"
   inkscape:version="0.92.2 (5c3e80d, 2017-08-06)"><metadata
     id="metadata5952"><rdf:RDF><cc:Work
         rdf:about=""><dc:format>image/svg+xml</dc:format><dc:type
           rdf:resource="http://purl.org/dc/dcmitype/StillImage" /><dc:title></dc:title></cc:Work></rdf:RDF></metadata><defs
     id="defs5950" /><sodipodi:namedview
     pagecolor="#ffffff"
     bordercolor="#666666"
     borderopacity="1"
     objecttolerance="10"
     gridtolerance="10"
     guidetolerance="10"
     inkscape:pageopacity="0"
     inkscape:pageshadow="2"
     inkscape:window-width="891"
     inkscape:window-height="480"
     id="namedview5948"
     showgrid="false"
     fit-margin-top="0"
     fit-margin-left="0"
     fit-margin-right="0"
     fit-margin-bottom="0"
     inkscape:zoom="0.4609375"
     inkscape:cx="-14.101695"
     inkscape:cy="256"
     inkscape:window-x="-8"
     inkscape:window-y="-8"
     inkscape:window-maximized="1"
     inkscape:current-layer="Layer_1" /><circle
     style="fill:#38c6d9"
     cx="256"
     cy="256"
     r="256"
     id="circle5853" /><path
     style="fill:#02b2b2"
     d="M 58.17,293.445 275.954,511.229 C 393.661,502.154 489.048,413.47 508.393,298.94 l -69.223,-69.223 -55.318,55.31 -125.561,-125.561 -17.203,29.668 z"
     id="path5855"
     inkscape:connector-curvature="0" /><polygon
     style="fill:#808183"
     points="138.156,268.071 178.788,268.071 199.104,329.019 117.839,329.019 "
     id="polygon5857" /><polygon
     style="fill:#59595b"
     points="158.887,329.019 199.104,329.019 178.788,268.071 158.887,268.071 "
     id="polygon5859" /><path
     style="fill:#d0d1d3"
     d="m 200.952,341.333 h -84.961 c -4.42,0 -8.004,-3.584 -8.004,-8.004 v 0 c 0,-4.42 3.584,-8.004 8.004,-8.004 h 84.961 c 4.42,0 8.004,3.584 8.004,8.004 v 0 c -10e-4,4.42 -3.584,8.004 -8.004,8.004 z"
     id="path5861"
     inkscape:connector-curvature="0" /><path
     style="fill:#a6a8aa"
     d="m 200.952,325.327 h -42.065 v 16.006 h 42.065 c 4.42,0 8.004,-3.584 8.004,-8.004 v 0 c -10e-4,-4.42 -3.584,-8.002 -8.004,-8.002 z"
     id="path5863"
     inkscape:connector-curvature="0" /><path
     style="fill:#d0d1d3"
     d="M 250.923,297.931 H 66.02 c -5.044,0 -9.132,-4.089 -9.132,-9.132 V 164.845 c 0,-5.044 4.089,-9.132 9.132,-9.132 h 184.901 c 5.044,0 9.132,4.089 9.132,9.132 v 123.952 c 0.002,5.044 -4.087,9.134 -9.13,9.134 z"
     id="path5865"
     inkscape:connector-curvature="0" /><path
     style="fill:#a6a8aa"
     d="m 250.923,155.714 h -92.036 v 142.215 h 92.036 c 5.044,0 9.132,-4.089 9.132,-9.132 V 164.845 c 0,-5.042 -4.089,-9.131 -9.132,-9.131 z"
     id="path5867"
     inkscape:connector-curvature="0" /><path
     style="fill:#353131"
     d="m 260.055,164.847 c 0,-5.044 -4.089,-9.132 -9.132,-9.132 H 66.02 c -5.044,0 -9.132,4.089 -9.132,9.132 v 98.037 h 203.166 z"
     id="path5869"
     inkscape:connector-curvature="0" /><path
     style="fill:#272525"
     d="m 260.055,164.847 c 0,-5.044 -4.089,-9.132 -9.132,-9.132 h -92.036 v 107.17 h 101.167 v -98.038 z"
     id="path5871"
     inkscape:connector-curvature="0" /><rect
     x="66.128998"
     y="164.94299"
     style="fill:#ff6262"
     width="184.69901"
     height="89.884003"
     id="rect5873" /><rect
     x="158.892"
     y="164.94299"
     style="fill:#ff314f"
     width="91.935997"
     height="89.884003"
     id="rect5875" /><circle
     style="fill:#808183"
     cx="158.479"
     cy="277.61801"
     r="7.3889999"
     id="circle5877" /><path
     style="fill:#59595b"
     d="m 165.86,277.613 c 0,-3.937 -3.089,-7.127 -6.973,-7.346 v 14.691 c 3.882,-0.219 6.973,-3.406 6.973,-7.345 z"
     id="path5879"
     inkscape:connector-curvature="0" /><path
     style="fill:#353131"
     d="m 280.278,341.333 h 153.14 c 4.841,0 8.763,-3.924 8.763,-8.763 v -96.25 c 0,-4.841 -3.924,-8.763 -8.763,-8.763 h -153.14 c -4.841,0 -8.763,3.924 -8.763,8.763 v 96.251 c 0,4.839 3.924,8.762 8.763,8.762 z"
     id="path5881"
     inkscape:connector-curvature="0" /><path
     style="fill:#272525"
     d="m 433.419,227.556 h -77.433 v 113.778 h 77.431 c 4.841,0 8.763,-3.924 8.763,-8.763 V 236.32 c 0.002,-4.841 -3.922,-8.764 -8.761,-8.764 z"
     id="path5883"
     inkscape:connector-curvature="0" /><rect
     x="279.27301"
     y="234.882"
     style="fill:#ffc61b"
     width="155.15199"
     height="85.333"
     id="rect5885" /><rect
     x="355.987"
     y="234.882"
     style="fill:#eaa22f"
     width="78.438004"
     height="85.333"
     id="rect5887" /><path
     style="fill:#ffffff"
     d="m 267.205,349.091 h 179.286 c 6.189,0 11.205,-5.017 11.205,-11.205 v 0 c 0,-6.189 -5.017,-11.205 -11.205,-11.205 H 267.205 c -6.189,0 -11.205,5.017 -11.205,11.205 v 0 c 0,6.188 5.017,11.205 11.205,11.205 z"
     id="path5889"
     inkscape:connector-curvature="0" /><path
     style="fill:#d0d1d3"
     d="m 446.492,326.68 h -90.505 v 22.411 h 90.505 c 6.189,0 11.205,-5.017 11.205,-11.205 0,-6.189 -5.017,-11.206 -11.205,-11.206 z"
     id="path5891"
     inkscape:connector-curvature="0" /><path
     style="fill:#353131"
     d="m 176.471,398.222 h 105.527 c 3.205,0 5.804,-2.598 5.804,-5.804 V 256.726 c 0,-3.205 -2.598,-5.804 -5.804,-5.804 H 176.471 c -3.205,0 -5.804,2.598 -5.804,5.804 v 135.692 c 0,3.206 2.598,5.804 5.804,5.804 z"
     id="path5893"
     inkscape:connector-curvature="0" /><path
     style="fill:#272525"
     d="m 281.998,250.923 h -53.005 v 147.299 h 53.005 c 3.205,0 5.804,-2.598 5.804,-5.804 V 256.726 c -0.001,-3.205 -2.599,-5.803 -5.804,-5.803 z"
     id="path5895"
     inkscape:connector-curvature="0" /><rect
     x="177.218"
     y="262.92999"
     style="fill:#8bc180"
     width="104.02"
     height="113.676"
     id="rect5897" /><rect
     x="228.98599"
     y="262.92999"
     style="fill:#6caf5f"
     width="52.251999"
     height="113.676"
     id="rect5899" /><circle
     style="fill:#808183"
     cx="229.228"
     cy="385.414"
     r="4.4029999"
     id="circle5901" /><path
     style="fill:#59595b"
     d="m 229.235,381.011 c -0.083,0 -0.16,0.019 -0.241,0.024 v 8.757 c 0.081,0.005 0.159,0.024 0.241,0.024 2.432,0 4.403,-1.97 4.403,-4.403 0,-2.433 -1.973,-4.402 -4.403,-4.402 z"
     id="path5903"
     inkscape:connector-curvature="0" /><path
     style="fill:#353131"
     d="m 313.944,398.222 h 51.422 c 2.436,0 4.411,-1.976 4.411,-4.411 V 290.663 c 0,-2.436 -1.976,-4.411 -4.411,-4.411 h -51.422 c -2.436,0 -4.411,1.976 -4.411,4.411 v 103.148 c -0.001,2.436 1.975,4.411 4.411,4.411 z"
     id="path5905"
     inkscape:connector-curvature="0" /><path
     style="fill:#272525"
     d="m 365.366,286.251 h -26.043 v 111.971 h 26.043 c 2.436,0 4.411,-1.976 4.411,-4.411 V 290.663 c 0.001,-2.438 -1.975,-4.412 -4.411,-4.412 z"
     id="path5907"
     inkscape:connector-curvature="0" /><rect
     x="314.509"
     y="295.37399"
     style="fill:#ff7f4f"
     width="50.269001"
     height="86.418999"
     id="rect5909" /><rect
     x="339.31601"
     y="295.37399"
     style="fill:#d35933"
     width="25.469"
     height="86.418999"
     id="rect5911" /><circle
     style="fill:#808183"
     cx="339.66101"
     cy="388.48199"
     r="3.348"
     id="circle5913" /><path
     style="fill:#59595b"
     d="m 339.654,385.138 c -0.114,0 -0.221,0.022 -0.333,0.033 v 6.627 c 0.11,0.01 0.219,0.033 0.333,0.033 1.848,0 3.348,-1.498 3.348,-3.348 0,-1.851 -1.498,-3.345 -3.348,-3.345 z"
     id="path5915"
     inkscape:connector-curvature="0" /><g
     id="g5917" /><g
     id="g5919" /><g
     id="g5921" /><g
     id="g5923" /><g
     id="g5925" /><g
     id="g5927" /><g
     id="g5929" /><g
     id="g5931" /><g
     id="g5933" /><g
     id="g5935" /><g
     id="g5937" /><g
     id="g5939" /><g
     id="g5941" /><g
     id="g5943" /><g
     id="g5945" /></svg>