<?xml version="1.0" encoding="UTF-8" standalone="no"?>
<svg
   xmlns:dc="http://purl.org/dc/elements/1.1/"
   xmlns:cc="http://creativecommons.org/ns#"
   xmlns:rdf="http://www.w3.org/1999/02/22-rdf-syntax-ns#"
   xmlns:svg="http://www.w3.org/2000/svg"
   xmlns="http://www.w3.org/2000/svg"
   xmlns:sodipodi="http://sodipodi.sourceforge.net/DTD/sodipodi-0.dtd"
   xmlns:inkscape="http://www.inkscape.org/namespaces/inkscape"
   viewBox="0 0 116.147 126.0004"
   height="126.0004"
   width="116.147"
   xml:space="preserve"
   version="1.1"
   id="svg2"
   sodipodi:docname="edge.svg"
   inkscape:version="0.92.2 (5c3e80d, 2017-08-06)"><sodipodi:namedview
     pagecolor="#ffffff"
     bordercolor="#666666"
     borderopacity="1"
     objecttolerance="10"
     gridtolerance="10"
     guidetolerance="10"
     inkscape:pageopacity="0"
     inkscape:pageshadow="2"
     inkscape:window-width="1366"
     inkscape:window-height="705"
     id="namedview12"
     showgrid="false"
     fit-margin-top="0"
     fit-margin-left="0"
     fit-margin-right="0"
     fit-margin-bottom="0"
     inkscape:zoom="1"
     inkscape:cx="57.0805"
     inkscape:cy="63.942084"
     inkscape:window-x="-8"
     inkscape:window-y="-8"
     inkscape:window-maximized="1"
     inkscape:current-layer="svg2" /><metadata
     id="metadata8"><rdf:RDF><cc:Work
         rdf:about=""><dc:format>image/svg+xml</dc:format><dc:type
           rdf:resource="http://purl.org/dc/dcmitype/StillImage" /><dc:title></dc:title></cc:Work></rdf:RDF></metadata><defs
     id="defs6"><clipPath
       id="clipPath16"
       clipPathUnits="userSpaceOnUse"><path
         id="path18"
         d="M 0,600 H 600 V 0 H 0 Z"
         inkscape:connector-curvature="0" /></clipPath></defs><g
     transform="matrix(0.4926702,0,0,-0.4926702,-90.118937,210.43003)"
     id="g10"><g
       id="g12"><g
         clip-path="url(#clipPath16)"
         id="g14"><g
           transform="translate(418.6694,307.1215)"
           id="g20"><path
             id="path22"
             style="fill:#3276bc;fill-opacity:1;fill-rule:nonzero;stroke:none"
             d="m 0,0 c 0,70.5 -49.5,118.75 -114.75,120 -67,-0.75 -113.5,-48 -121,-114.25 24,39.25 71.25,65.5 113,65.5 34.5,0 52.25,-18.5 52.25,-54.5 h -91 c 1.75,15.25 8.5,31 18,40.5 -36.75,-14.75 -62.75,-48.5 -62.75,-93 0,-54.75 43.75,-100 105.5,-100 31.5,0 57.25,7 79.25,18.5 V -63 c -20,-12.5 -43.75,-19.5 -70.5,-19.5 -39.5,0 -68.5,19 -68.5,54 H 0 Z"
             inkscape:connector-curvature="0" /></g></g></g></g></svg>