<?xml version="1.0" encoding="iso-8859-1"?>
<!-- Generator: Adobe Illustrator 19.0.0, SVG Export Plug-In . SVG Version: 6.00 Build 0)  -->
<svg version="1.1" id="Layer_1" xmlns="http://www.w3.org/2000/svg" xmlns:xlink="http://www.w3.org/1999/xlink" x="0px" y="0px"
	 viewBox="0 0 500.8 500.8" style="enable-background:new 0 0 500.8 500.8;" xml:space="preserve">
<polygon style="fill:#007BCE;" points="227.2,276.8 174.4,276.8 180.8,229.6 220.8,229.6 "/>
<path style="fill:#0097F4;" d="M390.4,229.6c0,8-6.4,14.4-14.4,14.4H24c-8,0-14.4-6.4-14.4-14.4V14.4C9.6,6.4,16,0,24,0h352
	c8,0,14.4,6.4,14.4,14.4V229.6z"/>
<path style="fill:#007BCE;" d="M376.8,0h-352c-8,0-14.4,6.4-14.4,14.4v190.4h380V14.4C390.4,6.4,384.8,0,376.8,0z"/>
<path style="fill:#FDFFFF;" d="M368.8,36.8c0,8-6.4,15.2-15.2,15.2H39.2c-8,0-6.4-6.4-6.4-15.2l0,0c0-8-1.6-15.2,6.4-15.2h313.6
	C361.6,21.6,368.8,28.8,368.8,36.8L368.8,36.8z"/>
<path style="fill:#E6EFEF;" d="M32.8,36.8L32.8,36.8c0-8-1.6-15.2,6.4-15.2h313.6c8,0,15.2,6.4,15.2,15.2l0,0"/>
<path style="fill:#007BCE;" d="M99.2,30.4l-0.8-0.8H96c-0.8,0-0.8,0-0.8,0.8L93.6,36l0,0l0,0L92,30.4c0-0.8-0.8-0.8-0.8-0.8h-1.6
	c-0.8,0-0.8,0-0.8,0.8l-1.6,6.4l0,0l0,0l-1.6-5.6c0-0.8-0.8-0.8-0.8-0.8h-2.4c0,0,0,0-0.8,0c0,0,0,0-0.8,0h-2.4
	c-0.8,0-0.8,0-0.8,0.8L76,36.8l0,0l0,0l-2.4-5.6c0-0.8-0.8-0.8-0.8-0.8h-1.6c-0.8,0-0.8,0-0.8,0.8L68,36.8l0,0l0,0l-0.8-5.6
	c-0.8-0.8-0.8-0.8-1.6-0.8H64c0,0,0,0-0.8,0c0,0,0,0-0.8,0h-1.6c-0.8,0-0.8,0-0.8,0.8l-2.4,5.6l0,0l0,0L56,31.2
	c0-0.8-0.8-0.8-0.8-0.8h-1.6c-0.8,0-0.8,0-0.8,0.8l-2.4,5.6l0,0l0,0l-1.6-5.6c0-0.8-0.8-0.8-0.8-0.8h-2.4c0,0-0.8,0-0.8,0.8V32
	L48,44c0,0.8,0.8,0.8,0.8,0.8h1.6c0.8,0,0.8,0,0.8-0.8l1.6-5.6c0,0,0,0,0-0.8l0,0l1.6,5.6c0,0.8,0.8,0.8,0.8,0.8h1.6
	c0.8,0,0.8,0,0.8-0.8l3.2-10.4l5.6,10.4c0,0,0,0.8,0.8,0.8h1.6c0.8,0,0.8,0,0.8-0.8l1.6-5.6c0,0,0,0,0-0.8l0,0l1.6,5.6
	c0,0.8,0.8,0.8,0.8,0.8h1.6c0.8,0,0.8,0,0.8-0.8L79.2,32l3.2,10.4c0,0.8,0.8,0.8,0.8,0.8h1.6c0.8,0,0.8,0,0.8-0.8l1.6-5.6
	c0,0,0,0,0-0.8l0,0l1.6,5.6c0,0.8,0.8,0.8,0.8,0.8h1.6c0.8,0,0.8,0,0.8-0.8l4-12C100,31.2,99.2,31.2,99.2,30.4z"/>
<path style="fill:#0097F4;" d="M267.2,277.6c0,5.6-4.8,10.4-10.4,10.4h-112c-5.6,0-10.4-4.8-10.4-10.4l0,0c0-5.6,4.8-10.4,10.4-10.4
	h112C262.4,267.2,267.2,272,267.2,277.6L267.2,277.6z"/>
<path style="opacity:0.2;fill:#B5C6C6;enable-background:new    ;" d="M68,300v171.2c0,10.4,9.6,18.4,20.8,18.4h350.4
	c11.2,0,20.8-8.8,20.8-18.4V300c0-10.4-9.6-18.4-20.8-18.4H88C76.8,281.6,68,289.6,68,300z"/>
<path d="M115.2,318.4v164c0,9.6,8.8,17.6,20,17.6h336c11.2,0,20-8,20-17.6v-164c0-9.6-8.8-17.6-20-17.6h-336
	C124,300.8,115.2,308.8,115.2,318.4z"/>
<path style="fill:#193E44;" d="M108.8,318.4v164c0,9.6,8.8,17.6,20,17.6h336c11.2,0,20-8,20-17.6v-164c0-9.6-8.8-17.6-20-17.6h-336
	C117.6,300.8,108.8,308.8,108.8,318.4z"/>
<rect x="136" y="300.8" width="306.4" height="200"/>
<path style="opacity:0.3;fill:#2B545B;enable-background:new    ;" d="M131.2,329.6V472c0,7.2,6.4,13.6,14.4,13.6h296
	c8,0,8-5.6,8-13.6V329.6c0-7.2,0-13.6-8-13.6h-296C137.6,316,131.2,322.4,131.2,329.6z"/>
<path style="fill:#007BCE;" d="M136,329.6V472c0,7.2,6.4,13.6,14.4,13.6H428c8,0,14.4-5.6,14.4-13.6V329.6c0-7.2-6.4-13.6-14.4-13.6
	H150.4C142.4,316,136,322.4,136,329.6z"/>
<g>
	<path style="fill:#0097F4;" d="M442.4,329.6c0-7.2-6.4-13.6-14.4-13.6H150.4c-8,0-14.4,5.6-14.4,13.6V472c0,7.2,6.4,13.6,14.4,13.6
		"/>
	<circle style="fill:#0097F4;" cx="122.4" cy="480" r="4.8"/>
</g>
<path style="fill:#007BCE;" d="M125.6,476.8c1.6,1.6,1.6,4.8,0,6.4s-4.8,1.6-6.4,0"/>
<path d="M122.4,451.2c2.4,0,4,1.6,4,4v12c0,2.4-1.6,4-4,4l0,0c-2.4,0-4-1.6-4-4v-12C117.6,452.8,120,451.2,122.4,451.2L122.4,451.2z
	"/>
<circle style="fill:#2EE5CA;" cx="122.4" cy="465.6" r="3.2"/>
<path style="fill:#1BCEB8;" d="M124,464c0.8,0.8,0.8,3.2,0,4s-3.2,0.8-4,0"/>
<circle style="fill:#FF5AC8;" cx="122.4" cy="457.6" r="3.2"/>
<path style="fill:#F240AE;" d="M124,455.2c0.8,0.8,0.8,3.2,0,4s-3.2,0.8-4,0"/>
<g>
	<rect x="120.8" y="405.6" style="fill:#20585E;" width="3.2" height="3.2"/>
	<rect x="120.8" y="409.6" style="fill:#20585E;" width="3.2" height="3.2"/>
	<rect x="120.8" y="401.6" style="fill:#20585E;" width="3.2" height="3.2"/>
	<rect x="120.8" y="426.4" style="fill:#20585E;" width="3.2" height="3.2"/>
	<rect x="120.8" y="422.4" style="fill:#20585E;" width="3.2" height="3.2"/>
	<rect x="120.8" y="396.8" style="fill:#20585E;" width="3.2" height="3.2"/>
	<rect x="120.8" y="418.4" style="fill:#20585E;" width="3.2" height="3.2"/>
	<rect x="120.8" y="414.4" style="fill:#20585E;" width="3.2" height="3.2"/>
	<rect x="120.8" y="392.8" style="fill:#20585E;" width="3.2" height="3.2"/>
	<path style="fill:#20585E;" d="M120.8,431.2v3.2c0,0.8,0.8,1.6,1.6,1.6c0.8,0,1.6-0.8,1.6-1.6v-3.2H120.8z"/>
	<rect x="120.8" y="376" style="fill:#20585E;" width="3.2" height="3.2"/>
	<path style="fill:#20585E;" d="M120.8,367.2v3.2h3.2v-3.2c0-0.8-0.8-1.6-1.6-1.6C121.6,365.6,120.8,366.4,120.8,367.2z"/>
	<rect x="120.8" y="372" style="fill:#20585E;" width="3.2" height="3.2"/>
	<rect x="120.8" y="388.8" style="fill:#20585E;" width="3.2" height="3.2"/>
	<rect x="120.8" y="384.8" style="fill:#20585E;" width="3.2" height="3.2"/>
	<rect x="120.8" y="380" style="fill:#20585E;" width="3.2" height="3.2"/>
	<rect x="478.4" y="405.6" style="fill:#20585E;" width="3.2" height="3.2"/>
	<rect x="478.4" y="409.6" style="fill:#20585E;" width="3.2" height="3.2"/>
	<rect x="478.4" y="401.6" style="fill:#20585E;" width="3.2" height="3.2"/>
	<rect x="478.4" y="426.4" style="fill:#20585E;" width="3.2" height="3.2"/>
	<rect x="478.4" y="422.4" style="fill:#20585E;" width="3.2" height="3.2"/>
	<rect x="478.4" y="396.8" style="fill:#20585E;" width="3.2" height="3.2"/>
	<rect x="478.4" y="418.4" style="fill:#20585E;" width="3.2" height="3.2"/>
	<rect x="478.4" y="414.4" style="fill:#20585E;" width="3.2" height="3.2"/>
	<rect x="478.4" y="392.8" style="fill:#20585E;" width="3.2" height="3.2"/>
	<path style="fill:#20585E;" d="M478.4,431.2v3.2c0,0.8,0.8,1.6,1.6,1.6c0.8,0,1.6-0.8,1.6-1.6v-3.2H478.4z"/>
	<rect x="478.4" y="376" style="fill:#20585E;" width="3.2" height="3.2"/>
	<path style="fill:#20585E;" d="M478.4,367.2v3.2h3.2v-3.2c0-0.8-0.8-1.6-1.6-1.6C479.2,365.6,478.4,366.4,478.4,367.2z"/>
	<rect x="478.4" y="372" style="fill:#20585E;" width="3.2" height="3.2"/>
	<rect x="478.4" y="388.8" style="fill:#20585E;" width="3.2" height="3.2"/>
	<rect x="478.4" y="384.8" style="fill:#20585E;" width="3.2" height="3.2"/>
	<rect x="478.4" y="380" style="fill:#20585E;" width="3.2" height="3.2"/>
</g>
<path style="fill:#0097F4;" d="M461.6,389.6c5.6,0,10.4,4.8,10.4,10.4v0.8c0,5.6-4.8,10.4-10.4,10.4h-0.8c-5.6,0-10.4-4.8-10.4-10.4
	V400c0-5.6,4.8-10.4,10.4-10.4H461.6z"/>
<path style="fill:#007BCE;" d="M450.4,401.6v-0.8c0-5.6,4.8-10.4,10.4-10.4h0.8c5.6,0,10.4,4.8,10.4,10.4v0.8"/>
<path style="fill:#0097F4;" d="M416.8,264L416.8,264h8.8c3.2,0,5.6-2.4,5.6-5.6s-2.4-5.6-5.6-5.6h-22.4c-1.6,0-3.2,0.8-4,1.6
	c-0.8,0.8-1.6,2.4-1.6,4v22.4c0,3.2,2.4,5.6,5.6,5.6s5.6-2.4,5.6-5.6V272l0,0l19.2,19.2c0.8,0.8,2.4,1.6,4,1.6s3.2-0.8,4-1.6
	c2.4-2.4,2.4-5.6,0-8L416.8,264z M408.8,264L408.8,264L408.8,264L408.8,264L408.8,264z"/>
<circle style="fill:#007BCE;" cx="200.8" cy="221.6" r="8"/>
<g>
</g>
<g>
</g>
<g>
</g>
<g>
</g>
<g>
</g>
<g>
</g>
<g>
</g>
<g>
</g>
<g>
</g>
<g>
</g>
<g>
</g>
<g>
</g>
<g>
</g>
<g>
</g>
<g>
</g>
</svg>
