<?xml version="1.0" encoding="iso-8859-1"?>
<!-- Generator: Adobe Illustrator 19.0.0, SVG Export Plug-In . SVG Version: 6.00 Build 0)  -->
<svg version="1.1" id="Layer_1" xmlns="http://www.w3.org/2000/svg" xmlns:xlink="http://www.w3.org/1999/xlink" x="0px" y="0px"
	 viewBox="0 0 500 500" style="enable-background:new 0 0 500 500;" xml:space="preserve">
<path style="fill:#7BD100;" d="M472,444c0,9.6-8,16.8-17.6,16.8h-428c-9.6,0-16.8-8-16.8-16.8V16.8C9.6,7.2,17.6,0,26.4,0h428
	C464,0,472,8,472,16.8V444z"/>
<path style="fill:#FDFFFF;" d="M23.2,70.4v360c0,8.8,7.2,16,16,16h403.2c8.8,0,16-7.2,16-16v-360L23.2,70.4L23.2,70.4z"/>
<path style="fill:#E6EFEF;" d="M442.4,446.4c8.8,0,16-7.2,16-16v-360H23.2"/>
<path style="opacity:0.2;fill:#B5C6C6;enable-background:new    ;" d="M67.2,299.2v171.2c0,10.4,9.6,18.4,20.8,18.4h350.4
	c11.2,0,20.8-8.8,20.8-18.4V299.2c0-10.4-9.6-18.4-20.8-18.4H87.2C76,280.8,67.2,288.8,67.2,299.2z"/>
<rect x="23.2" y="70.4" style="fill:#DAE5E5;" width="435.2" height="20"/>
<path style="fill:#97AAA9;" d="M114.4,317.6v164c0,9.6,8.8,17.6,20,17.6h336c11.2,0,20-8,20-17.6v-164c0-9.6-8.8-17.6-20-17.6h-336
	C123.2,300,114.4,308,114.4,317.6z"/>
<path style="fill:#B5C6C6;" d="M108,317.6v164c0,9.6,8.8,17.6,20,17.6h336c11.2,0,20-8,20-17.6v-164c0-9.6-8.8-17.6-20-17.6H128
	C116.8,300,108,308,108,317.6z"/>
<rect x="135.2" y="300" style="fill:#5C777A;" width="306.4" height="200"/>
<path style="opacity:0.3;fill:#2B545B;enable-background:new    ;" d="M130.4,328.8v142.4c0,7.2,6.4,13.6,14.4,13.6h296
	c8,0,8-5.6,8-13.6V328.8c0-7.2,0-13.6-8-13.6h-296C136.8,315.2,130.4,321.6,130.4,328.8z"/>
<path style="fill:#193E44;" d="M135.2,328.8v142.4c0,7.2,6.4,13.6,14.4,13.6h277.6c8,0,14.4-5.6,14.4-13.6V328.8
	c0-7.2-6.4-13.6-14.4-13.6H149.6C141.6,315.2,135.2,321.6,135.2,328.8z"/>
<g>
	<path style="fill:#244B54;" d="M441.6,328.8c0-7.2-6.4-13.6-14.4-13.6H149.6c-8,0-14.4,5.6-14.4,13.6v142.4
		c0,7.2,6.4,13.6,14.4,13.6"/>
	<circle style="fill:#244B54;" cx="121.6" cy="479.2" r="4.8"/>
</g>
<path style="fill:#193E44;" d="M124.8,476c1.6,1.6,1.6,4.8,0,6.4s-4.8,1.6-6.4,0"/>
<path style="fill:#244B54;" d="M121.6,450.4c2.4,0,4,1.6,4,4v12c0,2.4-1.6,4-4,4l0,0c-2.4,0-4-1.6-4-4v-12
	C116.8,452,119.2,450.4,121.6,450.4L121.6,450.4z"/>
<circle style="fill:#2EE5CA;" cx="121.6" cy="464.8" r="3.2"/>
<path style="fill:#1BCEB8;" d="M123.2,463.2c0.8,0.8,0.8,3.2,0,4s-3.2,0.8-4,0"/>
<circle style="fill:#FF5AC8;" cx="121.6" cy="456.8" r="3.2"/>
<path style="fill:#F240AE;" d="M123.2,454.4c0.8,0.8,0.8,3.2,0,4s-3.2,0.8-4,0"/>
<g>
	<rect x="120" y="404.8" style="fill:#798988;" width="3.2" height="3.2"/>
	<rect x="120" y="408.8" style="fill:#798988;" width="3.2" height="3.2"/>
	<rect x="120" y="400.8" style="fill:#798988;" width="3.2" height="3.2"/>
	<rect x="120" y="425.6" style="fill:#798988;" width="3.2" height="3.2"/>
	<rect x="120" y="421.6" style="fill:#798988;" width="3.2" height="3.2"/>
	<rect x="120" y="396" style="fill:#798988;" width="3.2" height="3.2"/>
	<rect x="120" y="417.6" style="fill:#798988;" width="3.2" height="3.2"/>
	<rect x="120" y="413.6" style="fill:#798988;" width="3.2" height="3.2"/>
	<rect x="120" y="392" style="fill:#798988;" width="3.2" height="3.2"/>
	<path style="fill:#798988;" d="M120,430.4v3.2c0,0.8,0.8,1.6,1.6,1.6s1.6-0.8,1.6-1.6v-3.2H120z"/>
	<rect x="120" y="375.2" style="fill:#798988;" width="3.2" height="3.2"/>
	<path style="fill:#798988;" d="M120,366.4v3.2h3.2v-3.2c0-0.8-0.8-1.6-1.6-1.6C120.8,364.8,120,365.6,120,366.4z"/>
	<rect x="120" y="371.2" style="fill:#798988;" width="3.2" height="3.2"/>
	<rect x="120" y="388" style="fill:#798988;" width="3.2" height="3.2"/>
	<rect x="120" y="384" style="fill:#798988;" width="3.2" height="3.2"/>
	<rect x="120" y="379.2" style="fill:#798988;" width="3.2" height="3.2"/>
	<rect x="477.6" y="404.8" style="fill:#798988;" width="3.2" height="3.2"/>
	<rect x="477.6" y="408.8" style="fill:#798988;" width="3.2" height="3.2"/>
	<rect x="477.6" y="400.8" style="fill:#798988;" width="3.2" height="3.2"/>
	<rect x="477.6" y="425.6" style="fill:#798988;" width="3.2" height="3.2"/>
	<rect x="477.6" y="421.6" style="fill:#798988;" width="3.2" height="3.2"/>
	<rect x="477.6" y="396" style="fill:#798988;" width="3.2" height="3.2"/>
	<rect x="477.6" y="417.6" style="fill:#798988;" width="3.2" height="3.2"/>
	<rect x="477.6" y="413.6" style="fill:#798988;" width="3.2" height="3.2"/>
	<rect x="477.6" y="392" style="fill:#798988;" width="3.2" height="3.2"/>
	<path style="fill:#798988;" d="M477.6,430.4v3.2c0,0.8,0.8,1.6,1.6,1.6c0.8,0,1.6-0.8,1.6-1.6v-3.2H477.6z"/>
	<rect x="477.6" y="375.2" style="fill:#798988;" width="3.2" height="3.2"/>
	<path style="fill:#798988;" d="M477.6,366.4v3.2h3.2v-3.2c0-0.8-0.8-1.6-1.6-1.6C478.4,364.8,477.6,365.6,477.6,366.4z"/>
	<rect x="477.6" y="371.2" style="fill:#798988;" width="3.2" height="3.2"/>
	<rect x="477.6" y="388" style="fill:#798988;" width="3.2" height="3.2"/>
	<rect x="477.6" y="384" style="fill:#798988;" width="3.2" height="3.2"/>
	<rect x="477.6" y="379.2" style="fill:#798988;" width="3.2" height="3.2"/>
</g>
<path style="fill:#97AAA9;" d="M460.8,388.8c5.6,0,10.4,4.8,10.4,10.4v0.8c0,5.6-4.8,10.4-10.4,10.4H460c-5.6,0-10.4-4.8-10.4-10.4
	v-0.8c0-5.6,4.8-10.4,10.4-10.4H460.8z"/>
<path style="fill:#8C9997;" d="M449.6,400.8V400c0-5.6,4.8-10.4,10.4-10.4h0.8c5.6,0,10.4,4.8,10.4,10.4v0.8"/>
<path style="fill:#FDFFFF;" d="M380.8,35.2c0,8.8-7.2,16-16,16H38.4c-8.8,0-7.2-7.2-7.2-16l0,0c0-8.8-1.6-16,7.2-16h326.4
	C373.6,19.2,380.8,26.4,380.8,35.2L380.8,35.2z"/>
<path style="fill:#E6EFEF;" d="M31.2,35.2L31.2,35.2c0-8.8-1.6-16,7.2-16h326.4c8.8,0,16,7.2,16,16l0,0"/>
<circle style="opacity:0.4;fill:#B1BCBC;enable-background:new    ;" cx="408.8" cy="36.8" r="8"/>
<circle style="fill:#FFFFFF;" cx="408.8" cy="33.6" r="8"/>
<path style="fill:#E8EFEE;" d="M403.2,27.2c3.2-3.2,8.8-3.2,12,0s3.2,8.8,0,12"/>
<circle style="opacity:0.4;fill:#B1BCBC;enable-background:new    ;" cx="441.6" cy="36.8" r="8"/>
<circle style="fill:#FFFFFF;" cx="441.6" cy="33.6" r="8"/>
<path style="fill:#E8EFEE;" d="M436,27.2c3.2-3.2,8-3.2,12,0c3.2,3.2,3.2,8.8,0,12"/>
<g>
	<path style="fill:#7BD100;" d="M100.8,28l-0.8-0.8h-2.4c-0.8,0-0.8,0-0.8,0.8l-1.6,6.4l0,0l0,0L93.6,28c0-0.8-0.8-0.8-0.8-0.8h-1.6
		c-0.8,0-0.8,0-0.8,0.8l-1.6,6.4l0,0l0,0L87.2,28c0-0.8-0.8-0.8-0.8-0.8H84c0,0,0,0-0.8,0c0,0,0,0-0.8,0H80c-0.8,0-0.8,0-0.8,0.8
		l-1.6,6.4l0,0l0,0L76,28c0-0.8-0.8-0.8-0.8-0.8h-4c-0.8,0-0.8,0-0.8,0.8l-1.6,6.4l0,0l0,0l-1.6-5.6c0-0.8-0.8-0.8-0.8-0.8H64
		c0,0,0,0-0.8,0c0,0,0,0-0.8,0H60c-0.8,0-0.8,0-0.8,0.8l-1.6,5.6l0,0l0,0L56,28.8c0-0.8-0.8-0.8-0.8-0.8h-2.4C52,28,52,28,52,28.8
		l-2.4,5.6l0,0l0,0L48,28.8c0-0.8-0.8-0.8-0.8-0.8h-2.4c0,0-0.8,0-0.8,0.8v0.8l4,12c0,0,0,0,0.8,0h1.6c0.8,0,0.8,0,1.6,0l1.6-5.6
		c0,0,0,0,0-0.8l0,0l2.4,6.4c0,0,0,0,0.8,0h2.4c0,0,0,0,0.8,0l3.2-10.4l3.2,10.4h0.8h1.6c0.8,0,1.6,0,1.6,0L72,36c0,0,0,0,0-0.8l0,0
		l2.4,6.4h0.8h1.6c0.8,0,0.8,0,0.8-0.8l4-10.4l3.2,11.2c0,0,0.8,0,1.6,0H88c0.8,0,0.8,0,0.8-0.8l1.6-5.6c0,0,0,0,0-0.8l0,0l2.4,7.2
		c0,0,0.8,0,1.6,0H96c0.8,0,0.8,0,0.8-0.8l4-12C100.8,28.8,100.8,28.8,100.8,28z"/>
	<path style="fill:#7BD100;" d="M90.4,269.6C89.6,269.6,89.6,269.6,90.4,269.6h8.8c3.2,0,5.6-2.4,5.6-5.6s-2.4-5.6-5.6-5.6H76.8
		c-1.6,0-3.2,0.8-4,1.6c-0.8,0.8-1.6,2.4-1.6,4v22.4c0,3.2,2.4,5.6,5.6,5.6s5.6-2.4,5.6-5.6v-8.8l0,0l19.2,19.2
		c0.8,0.8,2.4,1.6,4,1.6c1.6,0,3.2-0.8,4-1.6c2.4-2.4,2.4-5.6,0-8L90.4,269.6z M82.4,270.4L82.4,270.4L82.4,270.4
		C82.4,269.6,82.4,269.6,82.4,270.4L82.4,270.4z"/>
</g>
<g>
</g>
<g>
</g>
<g>
</g>
<g>
</g>
<g>
</g>
<g>
</g>
<g>
</g>
<g>
</g>
<g>
</g>
<g>
</g>
<g>
</g>
<g>
</g>
<g>
</g>
<g>
</g>
<g>
</g>
</svg>
