<?xml version="1.0" encoding="UTF-8" standalone="no"?>
<!-- Generator: Adobe Illustrator 19.0.0, SVG Export Plug-In . SVG Version: 6.00 Build 0)  -->

<svg
   xmlns:dc="http://purl.org/dc/elements/1.1/"
   xmlns:cc="http://creativecommons.org/ns#"
   xmlns:rdf="http://www.w3.org/1999/02/22-rdf-syntax-ns#"
   xmlns:svg="http://www.w3.org/2000/svg"
   xmlns="http://www.w3.org/2000/svg"
   xmlns:sodipodi="http://sodipodi.sourceforge.net/DTD/sodipodi-0.dtd"
   xmlns:inkscape="http://www.inkscape.org/namespaces/inkscape"
   version="1.1"
   id="Layer_1"
   x="0px"
   y="0px"
   viewBox="0 0 504 504"
   xml:space="preserve"
   sodipodi:docname="frontend3.svg"
   width="504"
   height="504"
   inkscape:version="0.92.2 (5c3e80d, 2017-08-06)"><metadata
     id="metadata5171"><rdf:RDF><cc:Work
         rdf:about=""><dc:format>image/svg+xml</dc:format><dc:type
           rdf:resource="http://purl.org/dc/dcmitype/StillImage" /><dc:title></dc:title></cc:Work></rdf:RDF></metadata><defs
     id="defs5169" /><sodipodi:namedview
     pagecolor="#ffffff"
     bordercolor="#666666"
     borderopacity="1"
     objecttolerance="10"
     gridtolerance="10"
     guidetolerance="10"
     inkscape:pageopacity="0"
     inkscape:pageshadow="2"
     inkscape:window-width="1366"
     inkscape:window-height="705"
     id="namedview5167"
     showgrid="false"
     fit-margin-top="0"
     fit-margin-left="0"
     fit-margin-right="0"
     fit-margin-bottom="0"
     inkscape:zoom="0.46825397"
     inkscape:cx="-13.881356"
     inkscape:cy="252"
     inkscape:window-x="-8"
     inkscape:window-y="-8"
     inkscape:window-maximized="1"
     inkscape:current-layer="Layer_1" /><circle
     style="fill:#ffd05b"
     cx="252"
     cy="252"
     r="252"
     id="circle5094" /><path
     style="fill:#324a5e"
     d="M 355.8,94.5 H 106.3 c -6.5,0 -11.8,5.3 -11.8,11.8 v 187.9 c 0,6.5 5.3,11.8 11.8,11.8 h 249.4 c 6.5,0 11.8,-5.3 11.8,-11.8 V 106.3 c 0.1,-6.5 -5.2,-11.8 -11.7,-11.8 z"
     id="path5096"
     inkscape:connector-curvature="0" /><path
     style="fill:#f6f6f6"
     d="M 336.3,118.1 H 125.8 c -4.2,0 -7.6,3.4 -7.6,7.6 v 149 c 0,4.2 3.4,7.6 7.6,7.6 h 210.6 c 4.2,0 7.6,-3.4 7.6,-7.6 v -149 c 0,-4.2 -3.5,-7.6 -7.7,-7.6 z"
     id="path5098"
     inkscape:connector-curvature="0" /><polygon
     style="fill:#2b3b4e"
     points="181.8,306 172.1,332.7 153.8,332.7 153.8,347.8 166.5,347.8 295.6,347.8 308.3,347.8 308.3,332.7 290,332.7 280.3,306 "
     id="polygon5100" /><path
     style="fill:#f1543f"
     d="m 407.6,409.5 h -90.8 c -1,0 -1.9,-0.8 -1.9,-1.9 V 276.2 c 0,-1 0.8,-1.9 1.9,-1.9 h 90.8 c 1,0 1.9,0.8 1.9,1.9 v 131.5 c 0,1 -0.8,1.8 -1.9,1.8 z"
     id="path5102"
     inkscape:connector-curvature="0" /><rect
     x="328"
     y="287.29999"
     style="fill:#4cdbc4"
     width="68.5"
     height="92.900002"
     id="rect5104" /><circle
     style="fill:#324a5e"
     cx="362.29999"
     cy="394.79999"
     r="9"
     id="circle5106" /><g
     id="g5112"><rect
       x="328"
       y="390.39999"
       style="fill:#e6e9ee"
       width="17.799999"
       height="8.8000002"
       id="rect5108" /><rect
       x="378.70001"
       y="390.39999"
       style="fill:#e6e9ee"
       width="17.799999"
       height="8.8000002"
       id="rect5110" /></g><rect
     x="134.10001"
     y="129.2"
     style="fill:#f1543f"
     width="33.599998"
     height="25.299999"
     id="rect5114" /><rect
     x="188"
     y="129.2"
     style="fill:#ff7058"
     width="139.89999"
     height="25.299999"
     id="rect5116" /><rect
     x="134.10001"
     y="207.10001"
     style="fill:#ffd05b"
     width="33.599998"
     height="25.299999"
     id="rect5118" /><rect
     x="188"
     y="207.10001"
     style="fill:#f9b54c"
     width="139.89999"
     height="25.299999"
     id="rect5120" /><rect
     x="134.10001"
     y="246.10001"
     style="fill:#4cdbc4"
     width="53.900002"
     height="25.299999"
     id="rect5122" /><rect
     x="274"
     y="246.10001"
     style="fill:#84dbff"
     width="53.900002"
     height="25.299999"
     id="rect5124" /><g
     id="g5134"><rect
       x="204.10001"
       y="246.10001"
       style="fill:#2c9984"
       width="53.900002"
       height="25.299999"
       id="rect5126" /><rect
       x="134.10001"
       y="168.2"
       style="fill:#2c9984"
       width="53.900002"
       height="25.299999"
       id="rect5128" /><rect
       x="274"
       y="168.2"
       style="fill:#2c9984"
       width="53.900002"
       height="25.299999"
       id="rect5130" /><rect
       x="204.10001"
       y="168.2"
       style="fill:#2c9984"
       width="53.900002"
       height="25.299999"
       id="rect5132" /></g><g
     id="g5136" /><g
     id="g5138" /><g
     id="g5140" /><g
     id="g5142" /><g
     id="g5144" /><g
     id="g5146" /><g
     id="g5148" /><g
     id="g5150" /><g
     id="g5152" /><g
     id="g5154" /><g
     id="g5156" /><g
     id="g5158" /><g
     id="g5160" /><g
     id="g5162" /><g
     id="g5164" /></svg>