<?xml version="1.0" encoding="UTF-8" standalone="no"?>
<!-- Generator: Adobe Illustrator 19.0.0, SVG Export Plug-In . SVG Version: 6.00 Build 0)  -->

<svg
   xmlns:dc="http://purl.org/dc/elements/1.1/"
   xmlns:cc="http://creativecommons.org/ns#"
   xmlns:rdf="http://www.w3.org/1999/02/22-rdf-syntax-ns#"
   xmlns:svg="http://www.w3.org/2000/svg"
   xmlns="http://www.w3.org/2000/svg"
   xmlns:sodipodi="http://sodipodi.sourceforge.net/DTD/sodipodi-0.dtd"
   xmlns:inkscape="http://www.inkscape.org/namespaces/inkscape"
   version="1.1"
   id="Layer_1"
   x="0px"
   y="0px"
   viewBox="0 0 91.571203 75.917105"
   xml:space="preserve"
   sodipodi:docname="frontend.svg"
   width="91.571198"
   height="75.917107"
   inkscape:version="0.92.2 (5c3e80d, 2017-08-06)"><metadata
     id="metadata494"><rdf:RDF><cc:Work
         rdf:about=""><dc:format>image/svg+xml</dc:format><dc:type
           rdf:resource="http://purl.org/dc/dcmitype/StillImage" /><dc:title></dc:title></cc:Work></rdf:RDF></metadata><defs
     id="defs492" /><sodipodi:namedview
     pagecolor="#ffffff"
     bordercolor="#666666"
     borderopacity="1"
     objecttolerance="10"
     gridtolerance="10"
     guidetolerance="10"
     inkscape:pageopacity="0"
     inkscape:pageshadow="2"
     inkscape:window-width="1366"
     inkscape:window-height="705"
     id="namedview490"
     showgrid="false"
     fit-margin-top="0"
     fit-margin-left="0"
     fit-margin-right="0"
     fit-margin-bottom="0"
     inkscape:zoom="0.92187863"
     inkscape:cx="18.053124"
     inkscape:cy="-134.14868"
     inkscape:window-x="-8"
     inkscape:window-y="-8"
     inkscape:window-maximized="1"
     inkscape:current-layer="g407" /><g
     id="g407"
     transform="matrix(0.39317158,0,0,0.39317158,-70.594783,-45.42193)"><path
       style="fill:#ffffff;stroke-width:0.86273289"
       d="m 210.58627,115.527 h 170.8373 25.43002 c 3.08218,0 5.60241,3.388 5.60241,7.527 v 44.795 140.767 H 179.5531 l -0.001,-140.766 v -44.795 c 0,-4.141 2.52022,-7.527 5.6024,-7.527 h 25.43003 0.002 z"
       id="path405"
       inkscape:connector-curvature="0" /></g><path
     style="fill:#828282;stroke-width:0.33920205"
     d="M 2.2031022,0 H 89.368202 c 1.21183,0 2.20271,1.33128 2.20271,2.95941 V 8.87782 H 3.8915068e-4 V 2.95941 C 3.8915068e-4,1.33168 0.99157015,0 2.2031022,0 Z"
     id="path409"
     inkscape:connector-curvature="0" /><g
     id="g415"
     transform="matrix(0.29264075,0,0,0.39317158,-29.13024,-45.42193)"><path
       style="fill:#c9cacc"
       d="m 120.563,148.046 v 2.357 h -4.714 v -2.357 z m -5.893,4.291 h 2.357 v 4.714 h -2.357 z m 0,11.787 h 2.357 v 4.714 h -2.357 z m 0,11.788 h 2.357 v 4.714 h -2.357 z m 0,11.787 h 2.357 v 4.714 h -2.357 z m 0,11.787 h 2.357 v 4.714 h -2.357 z m 0,11.787 h 2.357 v 4.714 h -2.357 z m 3.672,10.473 v -2.357 h 4.714 v 2.357 z m 11.788,0 v -2.357 h 4.714 v 2.357 z m 11.787,0 v -2.357 h 4.714 v 2.357 z m 11.787,0 v -2.357 h 4.714 v 2.357 z m 11.787,0 v -2.357 h 4.714 v 2.357 z m 11.787,0 v -2.357 h 4.714 v 2.357 z m 11.787,0 v -2.357 h 4.714 v 2.357 z m 11.788,0 v -2.357 h 4.714 v 2.357 z m 11.787,0 v -2.357 h 4.714 v 2.357 z m 11.787,0 v -2.357 h 4.714 v 2.357 z m 11.787,0 v -2.357 h 4.714 v 2.357 z m 11.787,0 v -2.357 h 4.714 v 2.357 z m 11.787,0 v -2.357 h 4.714 v 2.357 z m 11.788,0 v -2.357 h 4.714 v 2.357 z m 11.786,0 v -2.357 h 4.714 v 2.357 z m 11.787,0 v -2.357 h 4.714 v 2.357 z m 11.787,0 v -2.357 h 4.714 v 2.357 z m 11.787,0 v -2.357 h 4.714 v 2.357 z m 11.787,0 v -2.357 h 4.714 v 2.357 z m 11.788,0 v -2.357 h 4.714 v 2.357 z m 11.787,0 v -2.357 h 4.714 v 2.357 z m 11.787,0 v -2.357 h 4.714 v 2.357 z m 11.787,0 v -2.357 h 4.714 v 2.357 z m 11.787,0 v -2.357 h 4.714 v 2.357 z m 7.873,-6.271 h -2.357 v -4.714 h 2.357 z m 0,-11.787 h -2.357 v -4.714 h 2.357 z m 0,-11.788 h -2.357 v -4.714 h 2.357 z m 0,-11.786 h -2.357 V 175.4 h 2.357 z m 0,-11.787 h -2.357 v -4.714 h 2.357 z m 0,-11.787 h -2.357 v -4.714 h 2.357 z m -5.655,-8.492 v 2.357 h -4.714 v -2.357 z m -11.786,0 v 2.357 h -4.714 v -2.357 z m -11.788,0 v 2.357 h -4.714 v -2.357 z m -11.787,0 v 2.357 h -4.714 v -2.357 z m -11.787,0 v 2.357 h -4.714 v -2.357 z m -11.787,0 v 2.357 h -4.714 v -2.357 z m -11.787,0 v 2.357 h -4.714 v -2.357 z m -11.787,0 v 2.357 h -4.714 v -2.357 z m -11.788,0 v 2.357 h -4.714 v -2.357 z m -11.787,0 v 2.357 h -4.714 v -2.357 z m -11.787,0 v 2.357 h -4.714 v -2.357 z m -11.787,0 v 2.357 h -4.714 v -2.357 z m -11.787,0 v 2.357 h -4.714 v -2.357 z m -11.787,0 v 2.357 h -4.714 v -2.357 z m -11.788,0 v 2.357 h -4.714 v -2.357 z m -11.786,0 v 2.357 h -4.714 v -2.357 z m -11.787,0 v 2.357 h -4.714 v -2.357 z m -11.787,0 v 2.357 h -4.714 v -2.357 z m -11.787,0 v 2.357 h -4.714 v -2.357 z m -11.787,0 v 2.357 h -4.714 v -2.357 z m -11.788,0 v 2.357 h -4.714 v -2.357 z m -11.787,0 v 2.357 h -4.714 v -2.357 z m -11.787,0 v 2.357 h -4.714 v -2.357 z"
       id="path411"
       inkscape:connector-curvature="0" /><path
       style="fill:#c9cacc"
       d="m 126.801,247.457 v 2.357 h -4.714 v -2.357 z m 199.946,4.945 h 2.357 v 4.714 h -2.357 z m 0,11.787 h 2.357 v 4.714 h -2.357 z m 0,11.787 h 2.357 v 4.714 h -2.357 z m 0,11.787 h 2.357 v 4.714 h -2.357 z m 3.752,10.392 v -2.357 h 4.714 v 2.357 z m 11.788,0 v -2.357 h 4.714 v 2.357 z m 11.787,0 v -2.357 h 4.714 v 2.357 z m 11.787,0 v -2.357 h 4.714 v 2.357 z m 11.787,0 v -2.357 h 4.714 v 2.357 z m 11.787,0 v -0.474 l -0.704,-0.704 v -4.24 h 2.357 v 4.24 1.18 h -1.18 -0.474 v -0.002 z m 1.654,-12.491 h -2.357 v -4.714 h 2.357 z m 0,-11.787 h -2.357 v -4.714 h 2.357 z m 0,-11.787 h -2.357 v -4.714 h 2.357 z m 0,-11.787 h -2.357 v -0.487 h -1.869 v -2.357 h 3.049 1.18 v 1.18 1.667 z m -11.3,-2.846 v 2.357 h -4.714 v -2.357 z m -11.787,0 v 2.357 h -4.714 v -2.357 z m -11.787,0 v 2.357 h -4.714 v -2.357 z m -11.787,0 v 2.357 h -4.714 v -2.357 z m -11.788,0 v 2.357 h -4.714 v -2.357 z m -211.733,4.945 h 2.357 v 4.714 h -2.357 z m 0,11.787 h 2.357 v 4.714 h -2.357 z m 0,11.787 h 2.357 v 4.714 h -2.357 z m 0,11.787 h 2.357 v 4.714 h -2.357 z m 3.753,10.392 v -2.357 h 4.714 v 2.357 z m 11.787,0 v -2.357 h 4.714 v 2.357 z m 11.787,0 v -2.357 h 4.714 v 2.357 z m 11.787,0 v -2.357 h 4.714 v 2.357 z m 11.787,0 v -2.357 h 4.714 v 2.357 z m 11.788,0 v -0.474 l -0.704,-0.704 v -4.24 h 2.357 v 4.24 1.18 h -1.18 -0.474 z m 1.652,-12.491 h -2.357 v -4.714 h 2.357 z m 0,-11.787 h -2.357 v -4.714 h 2.357 z m 0,-11.787 h -2.357 v -4.714 h 2.357 z m 0,-11.787 h -2.357 v -0.487 h -1.869 v -2.357 h 3.049 1.18 v 1.18 1.667 z m -11.299,-2.846 v 2.357 h -4.714 v -2.357 z m -11.787,0 v 2.357 h -4.714 v -2.357 z m -11.787,0 v 2.357 h -4.714 v -2.357 z m -11.787,0 v 2.357 h -4.714 v -2.357 z"
       id="path413"
       inkscape:connector-curvature="0" /></g><path
     style="fill:#ffffff;stroke-width:0.33920205"
     d="m 37.11836,3.06635 h 47.882472 c 0.326,0 0.59172,0.35896 0.59172,0.79499 v 1.47557 c 0,0.43682 -0.2663,0.795 -0.59172,0.795 H 37.11836 c -0.324541,0 -0.59113,-0.357 -0.59113,-0.795 V 3.86134 c 2.91e-4,-0.43799 0.266009,-0.79499 0.59113,-0.79499 z"
     id="path417"
     inkscape:connector-curvature="0" /><ellipse
     style="fill:#ecf0f1;stroke-width:0.33920205"
     cx="45.785511"
     cy="39.321491"
     id="circle419"
     rx="14.602775"
     ry="19.619263" /><path
     style="fill:#828282;stroke-width:0.33920205"
     d="m 60.733007,39.31991 c 0,5.5453 -1.673026,10.5661 -4.377903,14.20018 -2.704882,3.63409 -6.441904,5.88185 -10.569307,5.88185 -4.127404,0 -7.864433,-2.24776 -10.569308,-5.88185 -2.704882,-3.63408 -4.377908,-8.65488 -4.377908,-14.20018 h 0.689758 c 0,5.28973 1.596064,10.07935 4.175985,13.54516 2.579622,3.46581 6.144575,5.61056 10.081763,5.61056 3.937188,0 7.502141,-2.14436 10.081771,-5.61056 2.579625,-3.46581 4.175979,-8.25543 4.175979,-13.54516 z"
     id="path421"
     inkscape:connector-curvature="0" /><path
     style="fill:#21d0c3;stroke-width:0.33920205"
     d="m 5.2061762,2.53832 c 0.7,0 1.268018,0.76197 1.268018,1.7044 0,0.94125 -0.568309,1.70361 -1.268018,1.70361 -0.70116,0 -1.269179,-0.76197 -1.269179,-1.70361 0,-0.94243 0.568309,-1.7044 1.269179,-1.7044 z"
     id="path423"
     inkscape:connector-curvature="0" /><path
     style="fill:#fad24d;stroke-width:0.33920205"
     d="m 10.212675,2.53832 c 0.701168,0 1.268599,0.76197 1.268599,1.7044 0,0.94125 -0.567133,1.70361 -1.268599,1.70361 -0.6999918,0 -1.2680098,-0.76197 -1.2680098,-1.70361 0,-0.94243 0.568018,-1.7044 1.2680098,-1.7044 z"
     id="path425"
     inkscape:connector-curvature="0" /><path
     style="fill:#ff5b62;stroke-width:0.33920205"
     d="m 15.220052,2.53832 c 0.699999,0 1.26801,0.76197 1.26801,1.7044 0,0.94125 -0.568301,1.70361 -1.26801,1.70361 -0.701168,0 -1.269179,-0.76197 -1.269179,-1.70361 0,-0.94243 0.568599,-1.7044 1.269179,-1.7044 z"
     id="path427"
     inkscape:connector-curvature="0" /><path
     style="fill:#ffba1b;stroke-width:0.33920205"
     d="m 42.793835,31.41245 -3.426236,11.10041 6.218612,15.91519 V 42.44288 c -0.522066,-0.15334 -0.912448,-0.77848 -0.912448,-1.52472 0,-0.86262 0.520309,-1.56129 1.162074,-1.56129 0.642055,0 1.162073,0.69906 1.162073,1.56129 0,0.7942 -0.4413,1.44962 -1.012244,1.54831 v 15.96198 l 6.218031,-15.9152 -3.426236,-11.10041 h -2.991374 -2.991962 -2.9e-4 z"
     id="path429"
     inkscape:connector-curvature="0" /><g
     id="g437"
     transform="matrix(0.29264075,0,0,0.39317158,-29.13024,-45.42193)"><path
       style="fill:#828282"
       d="m 200.18,264.255 h 111.636 v 2.357 H 200.18 Z"
       id="path431"
       inkscape:connector-curvature="0" /><path
       style="fill:#828282"
       d="m 200.18,261.536 c 2.152,0 3.896,1.744 3.896,3.896 0,2.152 -1.744,3.896 -3.896,3.896 -2.152,0 -3.896,-1.744 -3.896,-3.896 0,-2.151 1.744,-3.896 3.896,-3.896 z"
       id="path433"
       inkscape:connector-curvature="0" /><path
       style="fill:#828282"
       d="m 311.818,261.536 c 2.152,0 3.896,1.744 3.896,3.896 0,2.152 -1.744,3.896 -3.896,3.896 -2.152,0 -3.896,-1.744 -3.896,-3.896 0,-2.151 1.744,-3.896 3.896,-3.896 z"
       id="path435"
       inkscape:connector-curvature="0" /></g><path
     style="fill:#ff5b62;stroke-width:0.33920205"
     d="m 41.695556,8.87782 h 8.179603 v 21.23087 c 0,0.71754 -0.436916,1.30376 -0.970689,1.30376 h -6.238224 c -0.534071,0 -0.97069,-0.58583 -0.97069,-1.30376 z"
     id="path439"
     inkscape:connector-curvature="0" /><rect
     x="41.69643"
     y="24.771379"
     style="fill:#ffffff;stroke-width:0.33920205"
     width="8.177846"
     height="1.9859097"
     id="rect441" /><g
     id="g449"
     transform="matrix(0.29264075,0,0,0.39317158,-29.13024,-45.42193)"><circle
       style="fill:#828282"
       cx="255.99899"
       cy="265.67001"
       r="3.938"
       id="circle443" /><path
       style="fill:#828282"
       d="m 206.1,211.639 c 2.152,0 3.896,1.744 3.896,3.896 0,2.152 -1.744,3.896 -3.896,3.896 -2.152,0 -3.896,-1.744 -3.896,-3.896 0,-2.152 1.744,-3.896 3.896,-3.896 z"
       id="path445"
       inkscape:connector-curvature="0" /><path
       style="fill:#828282"
       d="m 305.9,211.639 c 2.152,0 3.896,1.744 3.896,3.896 0,2.152 -1.744,3.896 -3.896,3.896 -2.152,0 -3.896,-1.744 -3.896,-3.896 0,-2.152 1.745,-3.896 3.896,-3.896 z"
       id="path447"
       inkscape:connector-curvature="0" /></g><g
     id="g459"
     transform="translate(-355.02618,-310.00761)" /><g
     id="g461"
     transform="translate(-355.02618,-310.00761)" /><g
     id="g463"
     transform="translate(-355.02618,-310.00761)" /><g
     id="g465"
     transform="translate(-355.02618,-310.00761)" /><g
     id="g467"
     transform="translate(-355.02618,-310.00761)" /><g
     id="g469"
     transform="translate(-355.02618,-310.00761)" /><g
     id="g471"
     transform="translate(-355.02618,-310.00761)" /><g
     id="g473"
     transform="translate(-355.02618,-310.00761)" /><g
     id="g475"
     transform="translate(-355.02618,-310.00761)" /><g
     id="g477"
     transform="translate(-355.02618,-310.00761)" /><g
     id="g479"
     transform="translate(-355.02618,-310.00761)" /><g
     id="g481"
     transform="translate(-355.02618,-310.00761)" /><g
     id="g483"
     transform="translate(-355.02618,-310.00761)" /><g
     id="g485"
     transform="translate(-355.02618,-310.00761)" /><g
     id="g487"
     transform="translate(-355.02618,-310.00761)" /></svg>