<?xml version="1.0" encoding="UTF-8" standalone="no"?>
<!-- Svg Vector Icons : http://www.onlinewebfonts.com/icon -->

<svg
   xmlns:dc="http://purl.org/dc/elements/1.1/"
   xmlns:cc="http://creativecommons.org/ns#"
   xmlns:rdf="http://www.w3.org/1999/02/22-rdf-syntax-ns#"
   xmlns:svg="http://www.w3.org/2000/svg"
   xmlns="http://www.w3.org/2000/svg"
   xmlns:sodipodi="http://sodipodi.sourceforge.net/DTD/sodipodi-0.dtd"
   xmlns:inkscape="http://www.inkscape.org/namespaces/inkscape"
   version="1.1"
   x="0px"
   y="0px"
   viewBox="0 0 138.5821 140.37314"
   enable-background="new 0 0 1000 1000"
   xml:space="preserve"
   id="svg8734"
   sodipodi:docname="gateway.svg"
   width="138.58209"
   height="140.37314"
   inkscape:version="0.92.2 (5c3e80d, 2017-08-06)"><defs
     id="defs8738" /><sodipodi:namedview
     pagecolor="#ffffff"
     bordercolor="#666666"
     borderopacity="1"
     objecttolerance="10"
     gridtolerance="10"
     guidetolerance="10"
     inkscape:pageopacity="0"
     inkscape:pageshadow="2"
     inkscape:window-width="1366"
     inkscape:window-height="705"
     id="namedview8736"
     showgrid="false"
     fit-margin-top="0"
     fit-margin-left="0"
     fit-margin-right="0"
     fit-margin-bottom="0"
     inkscape:zoom="0.536"
     inkscape:cx="490"
     inkscape:cy="-279.62688"
     inkscape:window-x="-8"
     inkscape:window-y="-8"
     inkscape:window-maximized="1"
     inkscape:current-layer="svg8734" /><metadata
     id="metadata8716"> Svg Vector Icons : http://www.onlinewebfonts.com/icon <rdf:RDF><cc:Work
     rdf:about=""><dc:format>image/svg+xml</dc:format><dc:type
       rdf:resource="http://purl.org/dc/dcmitype/StillImage" /><dc:title></dc:title></cc:Work></rdf:RDF></metadata><g
     id="g8732"
     transform="matrix(0.1414103,0,0,0.16711087,-1.414103,-13.36887)"><path
       d="M 10,657.5 V 920 H 990 V 657.5 Z M 955,885 H 45 V 692.5 h 910 z"
       id="path8718"
       inkscape:connector-curvature="0" /><path
       d="m 552.4,465 h 122 v 35 h -122 z m -105.5,0 h -86.4 v 35 h 86.4 z m 333,0 H 921.7 L 990,657.5 H 944.1 L 892.7,500 H 779.9 Z M 255,465 H 78.8 L 10.5,657.5 H 56.9 L 108.3,500 H 255 Z"
       id="path8720"
       inkscape:connector-curvature="0" /><path
       d="m 640,206 v 136.5 l 70,70 v 210 h 35 V 395 L 675,325 V 202.5 185 L 500,115 v 35 z M 290,430 h 35 v 192.5 h -35 z m 192.5,-61.2 h 35 v 253.7 h -35 z"
       id="path8722"
       inkscape:connector-curvature="0" /><path
       d="m 97.5,727.5 h 805 V 745 h -805 z m 0,70 h 35 v 35 h -35 z m 332.5,0 h 472.5 v 35 H 430 Z"
       id="path8724"
       inkscape:connector-curvature="0" /><path
       d="m 473.7,80 c -24.2,0 -43.7,19.6 -43.7,43.7 0,24.2 19.6,43.7 43.7,43.7 24.1,0 43.7,-19.6 43.7,-43.7 C 517.5,99.6 497.9,80 473.7,80 Z m 0,70 c -14.5,0 -26.2,-11.8 -26.2,-26.2 0,-14.4 11.8,-26.2 26.2,-26.2 14.5,0 26.2,11.8 26.2,26.2 0,14.4 -11.7,26.2 -26.2,26.2 z"
       id="path8726"
       inkscape:connector-curvature="0" /><path
       d="m 307.5,360 c -24.2,0 -43.7,19.6 -43.7,43.7 0,24.2 19.6,43.7 43.7,43.7 24.2,0 43.7,-19.6 43.7,-43.7 0,-24.1 -19.5,-43.7 -43.7,-43.7 z m 0,70 c -14.5,0 -26.3,-11.8 -26.3,-26.2 0,-14.5 11.8,-26.3 26.3,-26.3 14.5,0 26.2,11.8 26.2,26.3 0,14.5 -11.7,26.2 -26.2,26.2 z"
       id="path8728"
       inkscape:connector-curvature="0" /><path
       d="m 500,290 c -24.2,0 -43.7,19.6 -43.7,43.7 0,24.2 19.6,43.7 43.7,43.7 24.2,0 43.7,-19.6 43.7,-43.7 0,-24.1 -19.6,-43.7 -43.7,-43.7 z m 0,70 c -14.5,0 -26.2,-11.8 -26.2,-26.2 0,-14.4 11.8,-26.2 26.2,-26.2 14.5,0 26.3,11.8 26.3,26.2 0,14.4 -11.8,26.2 -26.3,26.2 z"
       id="path8730"
       inkscape:connector-curvature="0" /></g></svg>