<?xml version="1.0" encoding="UTF-8" standalone="no"?>
<svg
   xmlns:dc="http://purl.org/dc/elements/1.1/"
   xmlns:cc="http://creativecommons.org/ns#"
   xmlns:rdf="http://www.w3.org/1999/02/22-rdf-syntax-ns#"
   xmlns:svg="http://www.w3.org/2000/svg"
   xmlns="http://www.w3.org/2000/svg"
   xmlns:sodipodi="http://sodipodi.sourceforge.net/DTD/sodipodi-0.dtd"
   xmlns:inkscape="http://www.inkscape.org/namespaces/inkscape"
   version="1.1"
   id="Layer_1"
   x="0px"
   y="0px"
   viewBox="0 0 66.840853 59.1562"
   xml:space="preserve"
   sodipodi:docname="middleware.svg"
   width="66.840851"
   height="59.156197"
   inkscape:version="0.92.2 (5c3e80d, 2017-08-06)"><metadata
     id="metadata608"><rdf:RDF><cc:Work
         rdf:about=""><dc:format>image/svg+xml</dc:format><dc:type
           rdf:resource="http://purl.org/dc/dcmitype/StillImage" /><dc:title></dc:title></cc:Work></rdf:RDF></metadata><defs
     id="defs606" /><sodipodi:namedview
     pagecolor="#ffffff"
     bordercolor="#666666"
     borderopacity="1"
     objecttolerance="10"
     gridtolerance="10"
     guidetolerance="10"
     inkscape:pageopacity="0"
     inkscape:pageshadow="2"
     inkscape:window-width="1366"
     inkscape:window-height="705"
     id="namedview604"
     showgrid="false"
     fit-margin-top="0"
     fit-margin-left="0"
     fit-margin-right="0"
     fit-margin-bottom="0"
     inkscape:zoom="0.74867635"
     inkscape:cx="-79.655647"
     inkscape:cy="157.6115"
     inkscape:window-x="-8"
     inkscape:window-y="-8"
     inkscape:window-maximized="1"
     inkscape:current-layer="Layer_1" /><g
     id="g571"
     transform="matrix(0.22813044,0,0,0.18766459,-2.5354417,0)"><g
       id="g557"><polygon
         style="fill:#005fad"
         points="304.108,230.643 304.108,218.858 11.114,218.858 11.114,230.643 157.611,315.223 "
         id="polygon553" /><polygon
         style="fill:#0071ce"
         points="11.114,218.858 157.611,303.438 304.108,218.858 157.611,134.278 "
         id="polygon555" /></g><g
       id="g563"><polygon
         style="fill:#bf534f"
         points="304.108,163.504 304.108,151.719 11.114,151.719 11.114,163.504 157.611,248.083 "
         id="polygon559" /><polygon
         style="fill:#ff6d68"
         points="11.114,151.719 157.611,236.299 304.108,151.719 157.611,67.139 "
         id="polygon561" /></g><g
       id="g569"><polygon
         style="fill:#e0b03b"
         points="304.108,96.365 304.108,84.58 11.114,84.58 11.114,96.365 157.611,180.944 "
         id="polygon565" /><polygon
         style="fill:#ffc843"
         points="11.114,84.58 157.611,169.159 304.108,84.58 157.611,0 "
         id="polygon567" /></g></g><g
     id="g573"
     transform="translate(-237.26715,-256.0668)" /><g
     id="g575"
     transform="translate(-237.26715,-256.0668)" /><g
     id="g577"
     transform="translate(-237.26715,-256.0668)" /><g
     id="g579"
     transform="translate(-237.26715,-256.0668)" /><g
     id="g581"
     transform="translate(-237.26715,-256.0668)" /><g
     id="g583"
     transform="translate(-237.26715,-256.0668)" /><g
     id="g585"
     transform="translate(-237.26715,-256.0668)" /><g
     id="g587"
     transform="translate(-237.26715,-256.0668)" /><g
     id="g589"
     transform="translate(-237.26715,-256.0668)" /><g
     id="g591"
     transform="translate(-237.26715,-256.0668)" /><g
     id="g593"
     transform="translate(-237.26715,-256.0668)" /><g
     id="g595"
     transform="translate(-237.26715,-256.0668)" /><g
     id="g597"
     transform="translate(-237.26715,-256.0668)" /><g
     id="g599"
     transform="translate(-237.26715,-256.0668)" /><g
     id="g601"
     transform="translate(-237.26715,-256.0668)" /></svg>