<svg enable-background="new 0 0 765 359" height="64" viewBox="0 0 32 32" width="64" xmlns="http://www.w3.org/2000/svg"><g stroke-width=".136657" transform="matrix(1.2754196 0 0 1.2754196 -16.030009 -21.83192)"><path d="m25.035144 17.185382c.191319.355307.450967.9156.669618 1.257241.150322.232317.31431.437302.50563.628621.560292.560293 1.093253 1.147917 1.571552 1.776537 1.13425 1.489558 1.899528 3.143104 2.446155 4.933307.327976 1.093254.505629 2.213839.519295 3.348089.05466 3.389087-1.106919 6.299874-3.457415 8.718698-.382638.382639-.792608.737946-1.22991 1.052256-.232316 0-.341642-.177653-.437301-.341641-.177654-.300645-.286979-.642287-.341642-.983929-.08199-.40997-.136657-.81994-.109325-1.243575 0-.06833 0-.122992 0-.19132-.01367-.041-.218651-18.858624-.136657-18.954284z" fill="#599636"/><path d="m25.035144 17.144385c-.02733-.05466-.05466-.01367-.08199.01366.01367.273314-.08199.519296-.232316.751612-.163989.232317-.382639.40997-.60129.60129-1.216245 1.052256-2.172841 2.323164-2.938119 3.744393-1.01126 1.913194-1.544221 3.963045-1.694543 6.122221-.06833.778943.245982 3.525742.491964 4.318351.669618 2.104513 1.872197 3.867385 3.430083 5.39794.382639.368973.792609.710615 1.216245 1.038591.122991 0 .136657-.109326.163988-.19132.05466-.177653.09566-.355307.122991-.532961.122991-.683283.191319-1.366567.273313-2.04985 0-.08199-.109325-19.145604-.150322-19.213932z" fill="#6cac48"/><path d="m25.704762 39.733737c.02733-.31431.177653-.573958.341642-.833606-.163989-.06833-.28698-.204985-.382639-.355307-.08199-.136657-.150323-.300645-.204985-.450967-.19132-.573958-.232317-1.175248-.286979-1.762872 0-.05466 0-.122991 0-.177653 0-.05466 0-.122991 0-.177654-.06833.05466-.08199.519296-.08199.587624-.041.628621-.122991 1.243576-.245982 1.844865-.041.245982-.06833.491964-.218651.710615 0 .02733 0 .05466.01367.09566.245982.72428.31431 1.462227.355307 2.213838v.273314c0 .327976-.01367.259648.259648.368973.109325.041.232316.05466.341641.136657.08199 0 .09566-.06833.09566-.122991-.01367-.150323-.041-.300645-.041-.450968 0-.423635-.01367-.833605 0-1.257241-.01367-.218651.02733-.437302.05466-.642287z" fill="#c2bfbf"/></g></svg>