<?xml version="1.0" encoding="UTF-8" standalone="no"?>
<!-- Generator: Adobe Illustrator 19.0.0, SVG Export Plug-In . SVG Version: 6.00 Build 0)  -->

<svg
   xmlns:dc="http://purl.org/dc/elements/1.1/"
   xmlns:cc="http://creativecommons.org/ns#"
   xmlns:rdf="http://www.w3.org/1999/02/22-rdf-syntax-ns#"
   xmlns:svg="http://www.w3.org/2000/svg"
   xmlns="http://www.w3.org/2000/svg"
   xmlns:sodipodi="http://sodipodi.sourceforge.net/DTD/sodipodi-0.dtd"
   xmlns:inkscape="http://www.inkscape.org/namespaces/inkscape"
   version="1.1"
   id="Capa_1"
   x="0px"
   y="0px"
   viewBox="0 0 62.40678 59.06356"
   xml:space="preserve"
   sodipodi:docname="services.svg"
   width="62.40678"
   height="59.06356"
   inkscape:version="0.92.2 (5c3e80d, 2017-08-06)"><metadata
     id="metadata292"><rdf:RDF><cc:Work
         rdf:about=""><dc:format>image/svg+xml</dc:format><dc:type
           rdf:resource="http://purl.org/dc/dcmitype/StillImage" /><dc:title></dc:title></cc:Work></rdf:RDF></metadata><defs
     id="defs290" /><sodipodi:namedview
     pagecolor="#ffffff"
     bordercolor="#666666"
     borderopacity="1"
     objecttolerance="10"
     gridtolerance="10"
     guidetolerance="10"
     inkscape:pageopacity="0"
     inkscape:pageshadow="2"
     inkscape:window-width="1366"
     inkscape:window-height="705"
     id="namedview288"
     showgrid="false"
     inkscape:zoom="4.2142857"
     inkscape:cx="39.444026"
     inkscape:cy="32.56356"
     inkscape:window-x="-8"
     inkscape:window-y="-8"
     inkscape:window-maximized="1"
     inkscape:current-layer="Capa_1"
     fit-margin-top="0"
     fit-margin-left="0"
     fit-margin-right="0"
     fit-margin-bottom="0" /><path
     style="fill:#e7eced;stroke-width:1.11440682"
     d="m 39.004237,18.387712 c 0,-0.726593 0.466937,-1.339517 1.114407,-1.569085 V 0 H 0 v 37.889831 h 34.54661 v -6.816827 c 0,-1.158983 0.939445,-2.098428 2.098428,-2.098428 h 2.359199 z"
     id="path233"
     inkscape:connector-curvature="0" /><path
     style="fill:#cbd4d8;stroke-width:1.11440682"
     d="M 30.334153,31.20339 H 10.088725 c -1.6170047,0 -3.0612758,-1.011882 -3.6129072,-2.530818 v 0 c -2.2845339,-6.28414 -2.2845339,-13.171174 0,-19.4553135 v 0 C 7.0274492,7.698322 8.4717203,6.6864407 10.088725,6.6864407 h 20.245428 c 1.617004,0 3.061275,1.0118813 3.612906,2.5308178 v 0 c 2.284534,6.2841395 2.284534,13.1711735 0,19.4553135 v 0 c -0.552745,1.518936 -1.995902,2.530818 -3.612906,2.530818 z"
     id="path235"
     inkscape:connector-curvature="0" /><path
     style="fill:#38454f;stroke-width:1.11440682"
     d="m 14.074958,21.173729 h -1.404153 c -0.839148,0 -1.526737,-0.686475 -1.526737,-1.526737 v -6.976187 c 0,-0.839148 0.686474,-1.526737 1.526737,-1.526737 h 1.405267 c 0.839148,0 1.526737,0.686474 1.526737,1.526737 v 6.977301 c -0.0011,0.839148 -0.687589,1.525623 -1.527851,1.525623 z"
     id="path237"
     inkscape:connector-curvature="0" /><path
     style="fill:#38454f;stroke-width:1.11440682"
     d="m 27.447839,21.173729 h -1.404153 c -0.839148,0 -1.526737,-0.686475 -1.526737,-1.526737 v -6.976187 c 0,-0.839148 0.686475,-1.526737 1.526737,-1.526737 h 1.405267 c 0.839149,0 1.526738,0.686474 1.526738,1.526737 v 6.977301 c -0.0011,0.839148 -0.687589,1.525623 -1.527852,1.525623 z"
     id="path239"
     inkscape:connector-curvature="0" /><path
     style="fill:#38454f;stroke-width:1.11440682"
     d="m 21.547055,27.86017 h -2.97658 c -0.407873,0 -0.739967,-0.332094 -0.739967,-0.741081 v -2.976581 c 0,-0.408987 0.332094,-0.74108 0.741081,-0.74108 h 2.97658 c 0.408988,0 0.741081,0.332093 0.741081,0.74108 v 2.976581 c -0.0011,0.408987 -0.333208,0.741081 -0.742195,0.741081 z"
     id="path241"
     inkscape:connector-curvature="0" /><path
     style="fill:none;stroke:#afb6bb;stroke-width:2.22881365;stroke-linecap:round;stroke-miterlimit:10"
     d="m 18.944915,52.377119 v 0 c 0,-3.677543 3.008899,-6.686441 6.686441,-6.686441 h 1.114407 c 3.677542,0 6.68644,3.008898 6.68644,6.686441 v 0 1.114406 c 0,2.463954 1.993674,4.457628 4.457628,4.457628 h 5.572033 c 2.463954,0 4.457628,-1.993674 4.457628,-4.457628"
     id="path243"
     inkscape:connector-curvature="0" /><path
     style="fill:#cbd4d8;stroke-width:1.11440682"
     d="m 60.346242,28.974576 h -2.397089 v 2.228814 h -3.343221 v -2.228814 h -4.457627 v 2.228814 h -3.34322 v -2.228814 h -4.457627 v 2.228814 h -3.343221 v -2.228814 h -2.359199 c -1.158983,0 -2.098428,0.939445 -2.098428,2.098428 v 12.12586 c 0,3.222865 2.61217,5.835034 5.835034,5.835034 h 16.190102 c 3.222864,0 5.835034,-2.612169 5.835034,-5.835034 v -12.16375 c 0,-1.137809 -0.922729,-2.060538 -2.060538,-2.060538 z"
     id="path245"
     inkscape:connector-curvature="0" /><path
     style="fill:#d3aa6e;stroke-width:1.11440682"
     d="M 42.347458,31.20339 H 39.004237 V 18.387712 c 0,-0.922729 0.748882,-1.67161 1.67161,-1.67161 v 0 c 0.922729,0 1.671611,0.748881 1.671611,1.67161 z"
     id="path247"
     inkscape:connector-curvature="0" /><path
     style="fill:#d3aa6e;stroke-width:1.11440682"
     d="M 57.949153,31.20339 H 54.605932 V 18.387712 c 0,-0.922729 0.748882,-1.67161 1.67161,-1.67161 v 0 c 0.922729,0 1.671611,0.748881 1.671611,1.67161 z"
     id="path249"
     inkscape:connector-curvature="0" /><rect
     x="46.805084"
     y="23.402542"
     style="fill:#839594;stroke-width:1.11440682"
     width="3.3432202"
     height="7.8008475"
     id="rect251" /><rect
     x="45.690678"
     y="49.033897"
     style="fill:#839594;stroke-width:1.11440682"
     width="5.5720339"
     height="4.4576273"
     id="rect253" /><path
     style="fill:#afb6bb;stroke-width:1.11440682"
     d="m 60.346242,28.974576 h -2.397089 v 2.228814 h -3.343221 v -2.228814 h -4.457627 v 2.228814 h -3.34322 v -2.228814 h -4.457627 v 2.228814 h -3.343221 v -2.228814 h -2.359199 c -1.158983,0 -2.098428,0.939445 -2.098428,2.098428 v 0.298661 c 0,1.13781 0.922729,2.060538 2.060538,2.060538 h 2.397089 3.343221 4.457627 3.34322 4.457627 3.343221 2.359199 c 1.158983,0 2.098428,-0.939445 2.098428,-2.098428 v -0.298661 c 0,-1.137809 -0.922729,-2.060538 -2.060538,-2.060538 z"
     id="path255"
     inkscape:connector-curvature="0" /><g
     id="g257"
     transform="translate(0,-1.5)" /><g
     id="g259"
     transform="translate(0,-1.5)" /><g
     id="g261"
     transform="translate(0,-1.5)" /><g
     id="g263"
     transform="translate(0,-1.5)" /><g
     id="g265"
     transform="translate(0,-1.5)" /><g
     id="g267"
     transform="translate(0,-1.5)" /><g
     id="g269"
     transform="translate(0,-1.5)" /><g
     id="g271"
     transform="translate(0,-1.5)" /><g
     id="g273"
     transform="translate(0,-1.5)" /><g
     id="g275"
     transform="translate(0,-1.5)" /><g
     id="g277"
     transform="translate(0,-1.5)" /><g
     id="g279"
     transform="translate(0,-1.5)" /><g
     id="g281"
     transform="translate(0,-1.5)" /><g
     id="g283"
     transform="translate(0,-1.5)" /><g
     id="g285"
     transform="translate(0,-1.5)" /></svg>