<?xml version="1.0" encoding="UTF-8" standalone="no"?>
<!-- Generator: Adobe Illustrator 19.0.0, SVG Export Plug-In . SVG Version: 6.00 Build 0)  -->

<svg
   xmlns:dc="http://purl.org/dc/elements/1.1/"
   xmlns:cc="http://creativecommons.org/ns#"
   xmlns:rdf="http://www.w3.org/1999/02/22-rdf-syntax-ns#"
   xmlns:svg="http://www.w3.org/2000/svg"
   xmlns="http://www.w3.org/2000/svg"
   xmlns:sodipodi="http://sodipodi.sourceforge.net/DTD/sodipodi-0.dtd"
   xmlns:inkscape="http://www.inkscape.org/namespaces/inkscape"
   version="1.1"
   id="Layer_1"
   x="0px"
   y="0px"
   viewBox="0 0 115.60519 206.2495"
   xml:space="preserve"
   width="168.153"
   height="299.99927"
   sodipodi:docname="smartphone.svg"
   inkscape:version="0.92.2 (5c3e80d, 2017-08-06)"><metadata
     id="metadata129"><rdf:RDF><cc:Work
         rdf:about=""><dc:format>image/svg+xml</dc:format><dc:type
           rdf:resource="http://purl.org/dc/dcmitype/StillImage" /><dc:title></dc:title></cc:Work></rdf:RDF></metadata><defs
     id="defs127" /><sodipodi:namedview
     pagecolor="#ffffff"
     bordercolor="#666666"
     borderopacity="1"
     objecttolerance="10"
     gridtolerance="10"
     guidetolerance="10"
     inkscape:pageopacity="0"
     inkscape:pageshadow="2"
     inkscape:window-width="1366"
     inkscape:window-height="705"
     id="namedview125"
     showgrid="false"
     fit-margin-top="0"
     fit-margin-left="0"
     fit-margin-right="0"
     fit-margin-bottom="0"
     inkscape:zoom="1.84375"
     inkscape:cx="-60.531803"
     inkscape:cy="193.86202"
     inkscape:window-x="-8"
     inkscape:window-y="-8"
     inkscape:window-maximized="1"
     inkscape:current-layer="g122" /><g
     id="g122"
     transform="matrix(0.58593607,0,0,0.58593607,-45.322155,0)"><path
       style="fill:#cccccc"
       d="m 112.35,0 h 127.3 c 19.33,0 35,15.67 35,35 v 282 c 0,19.33 -15.67,35 -35,35 h -127.3 c -19.33,0 -35,-15.67 -35,-35 V 35 c 0,-19.33 15.67,-35 35,-35 z"
       id="path88"
       inkscape:connector-curvature="0" /><path
       style="fill:#666666"
       d="m 112.35,0 h 63.15 v 352 h -63.15 c -19.33,0 -35,-15.67 -35,-35 V 35 c 0,-19.33 15.67,-35 35,-35 z"
       id="path90"
       inkscape:connector-curvature="0" /><path
       inkscape:connector-curvature="0"
       id="path94"
       d="m 191,303 h -31 c -4.142,0 -7.5,3.358 -7.5,7.5 0,4.142 3.358,7.5 7.5,7.5 h 31 c 4.142,0 7.5,-3.358 7.5,-7.5 0,-4.142 -3.358,-7.5 -7.5,-7.5 z"
       style="fill:#e6e6e6" /><polygon
       id="polygon96"
       points="258,54.5 258,271.5 175.5,271.5 94,271.5 94,54.5 175.5,54.5 "
       style="fill:#32a5b9" /><rect
       id="rect98"
       height="217"
       width="81.5"
       style="fill:#2b8a9a"
       y="54.5"
       x="94" /><g
       id="g104"><rect
         id="rect102"
         height="62.535999"
         width="104.647"
         style="fill:#f8b242"
         y="146.73199"
         x="123.676" /></g><rect
       x="123.676"
       y="146.73199"
       style="fill:#d09838"
       width="51.824001"
       height="62.535999"
       id="rect106" /><polygon
       id="polygon112"
       points="228.324,146.732 175.5,185.5 123.676,146.732 "
       style="fill:#e45527" /><polygon
       style="fill:#b7461d"
       points="123.676,146.732 175.5,146.732 175.5,185.5 "
       id="polygon116" /></g></svg>