<?xml version="1.0" encoding="UTF-8" standalone="no"?>
<!-- Generator: Adobe Illustrator 19.1.0, SVG Export Plug-In . SVG Version: 6.00 Build 0)  -->

<svg
   xmlns:dc="http://purl.org/dc/elements/1.1/"
   xmlns:cc="http://creativecommons.org/ns#"
   xmlns:rdf="http://www.w3.org/1999/02/22-rdf-syntax-ns#"
   xmlns:svg="http://www.w3.org/2000/svg"
   xmlns="http://www.w3.org/2000/svg"
   xmlns:sodipodi="http://sodipodi.sourceforge.net/DTD/sodipodi-0.dtd"
   xmlns:inkscape="http://www.inkscape.org/namespaces/inkscape"
   version="1.1"
   id="Layer_1"
   x="0px"
   y="0px"
   viewBox="0 0 129.9998 92.857002"
   xml:space="preserve"
   sodipodi:docname="Circle-icons-tablet.svg"
   width="129.9998"
   height="92.857002"
   inkscape:version="0.92.2 (5c3e80d, 2017-08-06)"><metadata
     id="metadata31"><rdf:RDF><cc:Work
         rdf:about=""><dc:format>image/svg+xml</dc:format><dc:type
           rdf:resource="http://purl.org/dc/dcmitype/StillImage" /><dc:title></dc:title></cc:Work></rdf:RDF></metadata><defs
     id="defs29" /><sodipodi:namedview
     pagecolor="#ffffff"
     bordercolor="#666666"
     borderopacity="1"
     objecttolerance="10"
     gridtolerance="10"
     guidetolerance="10"
     inkscape:pageopacity="0"
     inkscape:pageshadow="2"
     inkscape:window-width="1366"
     inkscape:window-height="705"
     id="namedview27"
     showgrid="false"
     fit-margin-top="0"
     fit-margin-left="0"
     fit-margin-right="0"
     fit-margin-bottom="0"
     inkscape:zoom="3.6875"
     inkscape:cx="64.999895"
     inkscape:cy="46.428498"
     inkscape:window-x="-8"
     inkscape:window-y="-8"
     inkscape:window-maximized="1"
     inkscape:current-layer="Layer_1" /><style
     type="text/css"
     id="style2">
	.st0{fill:#E0995E;}
	.st1{opacity:0.2;}
	.st2{fill:#231F20;}
	.st3{fill:#4F5D73;}
	.st4{fill:#FFFFFF;}
	.st5{opacity:0.2;fill:#FFFFFF;}
	.st6{fill:#E0E0D1;}
</style><g
     id="g43"
     transform="matrix(0,3.0952333,-3.0952333,0,164.04736,-52.618966)"><g
       id="g8"
       class="st1"
       style="opacity:0.2"><path
         id="path6"
         d="m 47,49 c 0,2.2 -1.8,4 -4,4 H 21 c -2.2,0 -4,-1.8 -4,-4 V 17 c 0,-2.2 1.8,-4 4,-4 h 22 c 2.2,0 4,1.8 4,4 z"
         class="st2"
         inkscape:connector-curvature="0"
         style="fill:#231f20" /></g><g
       id="g14"><path
         id="path10"
         d="m 21,49.5 c -1.4,0 -2.5,-1.1 -2.5,-2.5 V 15 c 0,-1.4 1.1,-2.5 2.5,-2.5 h 22 c 1.4,0 2.5,1.1 2.5,2.5 v 32 c 0,1.4 -1.1,2.5 -2.5,2.5 z"
         class="st3"
         inkscape:connector-curvature="0"
         style="fill:#4f5d73" /><path
         id="path12"
         d="m 43,14 c 0.6,0 1,0.4 1,1 v 32 c 0,0.6 -0.4,1 -1,1 H 21 c -0.6,0 -1,-0.4 -1,-1 V 15 c 0,-0.6 0.4,-1 1,-1 h 22 m 0,-3 H 21 c -2.2,0 -4,1.8 -4,4 v 32 c 0,2.2 1.8,4 4,4 h 22 c 2.2,0 4,-1.8 4,-4 V 15 c 0,-2.2 -1.8,-4 -4,-4 z"
         class="st4"
         inkscape:connector-curvature="0"
         style="fill:#ffffff" /></g><path
       id="path16"
       d="m 45,48.5 v -36 H 24.7 l 15.3,37 c 1.6,-0.4 3.3,-0.7 5,-1 z"
       class="st5"
       inkscape:connector-curvature="0"
       style="opacity:0.2;fill:#ffffff" /><g
       id="g20"><polygon
         id="polygon18"
         points="20,50 19,43 45,43 45,50 "
         class="st4"
         style="fill:#ffffff" /></g><g
       id="g24"><circle
         id="circle22"
         r="2"
         cy="47"
         cx="32"
         class="st6"
         style="fill:#e0e0d1" /></g></g></svg>