<?xml version="1.0" encoding="UTF-8" standalone="no"?>
<!-- Generator: Adobe Illustrator 16.0.0, SVG Export Plug-In . SVG Version: 6.00 Build 0)  -->

<svg
   xmlns:dc="http://purl.org/dc/elements/1.1/"
   xmlns:cc="http://creativecommons.org/ns#"
   xmlns:rdf="http://www.w3.org/1999/02/22-rdf-syntax-ns#"
   xmlns:svg="http://www.w3.org/2000/svg"
   xmlns="http://www.w3.org/2000/svg"
   xmlns:sodipodi="http://sodipodi.sourceforge.net/DTD/sodipodi-0.dtd"
   xmlns:inkscape="http://www.inkscape.org/namespaces/inkscape"
   version="1.1"
   id="Capa_1"
   x="0px"
   y="0px"
   width="74.362999"
   height="68.991997"
   viewBox="0 0 74.363001 68.991998"
   xml:space="preserve"
   sodipodi:docname="debug.svg"
   inkscape:version="0.92.2 (5c3e80d, 2017-08-06)"><metadata
     id="metadata53"><rdf:RDF><cc:Work
         rdf:about=""><dc:format>image/svg+xml</dc:format><dc:type
           rdf:resource="http://purl.org/dc/dcmitype/StillImage" /><dc:title></dc:title></cc:Work></rdf:RDF></metadata><defs
     id="defs51" /><sodipodi:namedview
     pagecolor="#ffffff"
     bordercolor="#666666"
     borderopacity="1"
     objecttolerance="10"
     gridtolerance="10"
     guidetolerance="10"
     inkscape:pageopacity="0"
     inkscape:pageshadow="2"
     inkscape:window-width="1366"
     inkscape:window-height="705"
     id="namedview49"
     showgrid="false"
     fit-margin-top="0"
     fit-margin-left="0"
     fit-margin-right="0"
     fit-margin-bottom="0"
     inkscape:zoom="3.1735787"
     inkscape:cx="-2.048161"
     inkscape:cy="34.497001"
     inkscape:window-x="-8"
     inkscape:window-y="-8"
     inkscape:window-maximized="1"
     inkscape:current-layer="Capa_1" /><g
     id="g16"
     style="fill:#008000;fill-opacity:1"
     transform="translate(0,-2.687)"><g
       id="g14"
       style="fill:#008000;fill-opacity:1"><path
         d="M 72.123,42.782 H 59.58 c 0,-0.896 0,-1.791 0,-2.688 0,-1.12 0,-2.017 -0.227,-2.912 7.617,-1.567 13.666,-9.856 13.666,-19.937 0,-1.344 -0.896,-2.238 -2.24,-2.238 -1.344,0 -2.239,0.896 -2.239,2.238 0,8.064 -4.479,14.562 -10.526,15.457 -1.121,-1.567 -2.465,-2.017 -4.257,-2.017 -0.448,-6.495 -3.36,-11.872 -7.616,-15.231 2.912,-2.465 4.93,-6.271 4.93,-10.527 0,-1.346 -0.896,-2.24 -2.239,-2.24 -1.345,0 -2.24,0.896 -2.24,2.24 0,3.359 -1.792,6.496 -4.704,8.062 -1.566,-0.672 -3.136,-0.896 -4.704,-0.896 -1.566,0 -3.136,0.224 -4.704,0.896 -2.688,-1.566 -4.704,-4.703 -4.704,-8.062 0,-1.346 -0.896,-2.24 -2.238,-2.24 -1.346,0 -2.24,0.896 -2.24,2.24 0,4.256 1.792,8.062 4.928,10.527 -4.031,3.359 -6.942,8.959 -7.616,15.231 -1.792,0 -3.358,0.673 -4.256,2.017 C 10.306,31.806 5.828,25.309 5.828,17.245 c 0,-1.344 -0.896,-2.238 -2.24,-2.238 -1.344,0 -2.24,0.896 -2.24,2.238 0,9.856 5.824,18.146 13.664,19.938 0,0.896 -0.224,1.792 -0.224,2.912 0,0.896 0,1.792 0,2.688 H 2.24 c -1.346,0 -2.24,0.896 -2.24,2.24 0,1.344 0.896,2.24 2.24,2.24 h 13.216 c 0.448,1.792 0.896,3.809 1.566,5.376 -8.287,1.12 -14.782,8.063 -14.782,16.8 0,1.344 0.896,2.24 2.238,2.24 1.346,0 2.24,-0.896 2.24,-2.24 0,-6.943 5.602,-12.544 12.544,-12.544 v 0 c 4.032,6.72 10.528,11.2 17.92,11.2 7.394,0 13.664,-4.48 17.919,-11.2 v 0 c 6.943,0 12.545,5.601 12.545,12.544 0,1.344 0.896,2.24 2.24,2.24 1.344,0 2.238,-0.896 2.238,-2.24 0,-8.512 -6.496,-15.68 -14.783,-16.8 0.672,-1.792 1.344,-3.584 1.568,-5.376 h 13.215 c 1.346,0 2.239,-0.896 2.239,-2.24 0,-1.344 -1.119,-2.241 -2.24,-2.241 z m -19.711,3.806 h -4.705 c -0.672,4.703 -4.256,8.287 -8.959,8.961 v 4.703 c 0,0.896 -0.672,1.568 -1.568,1.568 -0.896,0 -1.566,-0.674 -1.566,-1.568 v -4.703 c -4.704,-0.674 -8.288,-4.258 -8.96,-8.961 h -4.705 c -0.896,0 -1.568,-0.672 -1.568,-1.567 0,-0.895 0.672,-1.567 1.568,-1.567 h 4.704 c 0.672,-4.703 4.256,-8.288 8.96,-8.959 V 29.79 c 0,-0.896 0.672,-1.566 1.566,-1.566 0.896,0 1.568,0.672 1.568,1.566 v 4.705 c 4.703,0.672 8.287,4.256 8.959,8.959 h 4.705 c 0.896,0 1.565,0.672 1.565,1.567 0,0.895 -0.667,1.567 -1.564,1.567 z"
         id="path2"
         inkscape:connector-curvature="0"
         style="fill:#008000;fill-opacity:1" /><g
         id="g12"
         style="fill:#008000;fill-opacity:1"><path
           d="m 29.788,43.454 h 6.048 v -6.049 c -3.135,0.674 -5.599,3.135 -6.048,6.049 z"
           id="path4"
           inkscape:connector-curvature="0"
           style="fill:#008000;fill-opacity:1" /><path
           d="m 38.748,52.415 c 2.912,-0.672 5.375,-2.912 6.048,-6.049 h -6.048 z"
           id="path6"
           inkscape:connector-curvature="0"
           style="fill:#008000;fill-opacity:1" /><path
           d="m 38.748,37.404 v 6.049 h 6.048 C 44.123,40.54 41.66,38.079 38.748,37.404 Z"
           id="path8"
           inkscape:connector-curvature="0"
           style="fill:#008000;fill-opacity:1" /><path
           d="m 35.613,52.415 v -6.049 h -6.05 c 0.674,3.134 3.138,5.599 6.05,6.049 z"
           id="path10"
           inkscape:connector-curvature="0"
           style="fill:#008000;fill-opacity:1" /></g></g></g><g
     id="g18"
     transform="translate(0,-2.687)" /><g
     id="g20"
     transform="translate(0,-2.687)" /><g
     id="g22"
     transform="translate(0,-2.687)" /><g
     id="g24"
     transform="translate(0,-2.687)" /><g
     id="g26"
     transform="translate(0,-2.687)" /><g
     id="g28"
     transform="translate(0,-2.687)" /><g
     id="g30"
     transform="translate(0,-2.687)" /><g
     id="g32"
     transform="translate(0,-2.687)" /><g
     id="g34"
     transform="translate(0,-2.687)" /><g
     id="g36"
     transform="translate(0,-2.687)" /><g
     id="g38"
     transform="translate(0,-2.687)" /><g
     id="g40"
     transform="translate(0,-2.687)" /><g
     id="g42"
     transform="translate(0,-2.687)" /><g
     id="g44"
     transform="translate(0,-2.687)" /><g
     id="g46"
     transform="translate(0,-2.687)" /></svg>