<svg xmlns="http://www.w3.org/2000/svg" width="1440" height="900"><path d="M771,465L679,411L592,511Z" fill="#7fccc4" stroke="#7fccc4" stroke-width="1.51"/><path d="M915,162L591,262L679,411Z" fill="#9cd7c1" stroke="#9cd7c1" stroke-width="1.51"/><path d="M758,763L933,489L771,465Z" fill="#59b7cf" stroke="#59b7cf" stroke-width="1.51"/><path d="M679,411L591,262L592,511Z" fill="#94d4bd" stroke="#94d4bd" stroke-width="1.51"/><path d="M962,261L679,411L771,465Z" fill="#83cbc3" stroke="#83cbc3" stroke-width="1.51"/><path d="M592,511L758,763L771,465Z" fill="#68bdca" stroke="#68bdca" stroke-width="1.51"/><path d="M592,511L484,704L758,763Z" fill="#6eb3bf" stroke="#6eb3bf" stroke-width="1.51"/><path d="M359,501L484,704L592,511Z" fill="#88c9c6" stroke="#88c9c6" stroke-width="1.51"/><path d="M591,262L359,501L592,511Z" fill="#9ad7bc" stroke="#9ad7bc" stroke-width="1.51"/><path d="M758,763L852,804L933,489Z" fill="#47a1c6" stroke="#47a1c6" stroke-width="1.51"/><path d="M625,986L852,804L758,763Z" fill="#4d8aad" stroke="#4d8aad" stroke-width="1.51"/><path d="M933,489L962,261L771,465Z" fill="#74c4c8" stroke="#74c4c8" stroke-width="1.51"/><path d="M591,262L413,234L359,501Z" fill="#b2e1b9" stroke="#b2e1b9" stroke-width="1.51"/><path d="M482,127L413,234L591,262Z" fill="#c0e6c0" stroke="#c0e6c0" stroke-width="1.51"/><path d="M962,261L915,162L679,411Z" fill="#91cfc6" stroke="#91cfc6" stroke-width="1.51"/><path d="M484,704L625,986L758,763Z" fill="#6197af" stroke="#6197af" stroke-width="1.51"/><path d="M359,501L402,814L484,704Z" fill="#84b9c0" stroke="#84b9c0" stroke-width="1.51"/><path d="M628,49L482,127L591,262Z" fill="#bee6c5" stroke="#bee6c5" stroke-width="1.51"/><path d="M915,162L628,49L591,262Z" fill="#addfcb" stroke="#addfcb" stroke-width="1.51"/><path d="M933,489L1135,332L962,261Z" fill="#76b9c0" stroke="#76b9c0" stroke-width="1.51"/><path d="M962,261L1051,158L915,162Z" fill="#94c7cb" stroke="#94c7cb" stroke-width="1.51"/><path d="M1214,794L1150,473L933,489Z" fill="#3a99c5" stroke="#3a99c5" stroke-width="1.51"/><path d="M359,501L138,650L402,814Z" fill="#90bfc8" stroke="#90bfc8" stroke-width="1.51"/><path d="M413,234L225,376L359,501Z" fill="#b6e2c0" stroke="#b6e2c0" stroke-width="1.51"/><path d="M213,273L225,376L413,234Z" fill="#c6e8c4" stroke="#c6e8c4" stroke-width="1.51"/><path d="M1150,473L1135,332L933,489Z" fill="#60aec1" stroke="#60aec1" stroke-width="1.51"/><path d="M402,814L625,986L484,704Z" fill="#7098aa" stroke="#7098aa" stroke-width="1.51"/><path d="M852,804L1214,794L933,489Z" fill="#3291c1" stroke="#3291c1" stroke-width="1.51"/><path d="M625,986L967,913L852,804Z" fill="#417da6" stroke="#417da6" stroke-width="1.51"/><path d="M915,162L666,-28L628,49Z" fill="#b4e1d5" stroke="#b4e1d5" stroke-width="1.51"/><path d="M1135,332L1051,158L962,261Z" fill="#88bcc2" stroke="#88bcc2" stroke-width="1.51"/><path d="M435,-12L213,273L413,234Z" fill="#d2edcb" stroke="#d2edcb" stroke-width="1.51"/><path d="M628,49L435,-12L482,127Z" fill="#cdecce" stroke="#cdecce" stroke-width="1.51"/><path d="M482,127L435,-12L413,234Z" fill="#cdeccc" stroke="#cdeccc" stroke-width="1.51"/><path d="M1014,10L666,-28L915,162Z" fill="#aad8dc" stroke="#aad8dc" stroke-width="1.51"/><path d="M402,814L541,1023L625,986Z" fill="#6a8a9d" stroke="#6a8a9d" stroke-width="1.51"/><path d="M968,1077L1038,925L967,913Z" fill="#296ea4" stroke="#296ea4" stroke-width="1.51"/><path d="M967,913L1214,794L852,804Z" fill="#2878af" stroke="#2878af" stroke-width="1.51"/><path d="M688,1118L967,913L625,986Z" fill="#4980a4" stroke="#4980a4" stroke-width="1.51"/><path d="M1096,-21L1014,10L1051,158Z" fill="#9cc4d4" stroke="#9cc4d4" stroke-width="1.51"/><path d="M1150,473L1252,480L1135,332Z" fill="#5da2bb" stroke="#5da2bb" stroke-width="1.51"/><path d="M1214,794L1252,480L1150,473Z" fill="#348fc0" stroke="#348fc0" stroke-width="1.51"/><path d="M-116,467L138,650L225,376Z" fill="#b0dcd8" stroke="#b0dcd8" stroke-width="1.51"/><path d="M225,376L138,650L359,501Z" fill="#a4d7d0" stroke="#a4d7d0" stroke-width="1.51"/><path d="M402,814L338,1071L541,1023Z" fill="#738ea1" stroke="#738ea1" stroke-width="1.51"/><path d="M666,-28L435,-12L628,49Z" fill="#cbebd3" stroke="#cbebd3" stroke-width="1.51"/><path d="M1051,158L1014,10L915,162Z" fill="#9ac8d2" stroke="#9ac8d2" stroke-width="1.51"/><path d="M1265,106L1051,158L1135,332Z" fill="#89b3c2" stroke="#89b3c2" stroke-width="1.51"/><path d="M1038,925L1214,794L967,913Z" fill="#1f6aa4" stroke="#1f6aa4" stroke-width="1.51"/><path d="M541,1023L688,1118L625,986Z" fill="#5d879f" stroke="#5d879f" stroke-width="1.51"/><path d="M138,650L137,828L402,814Z" fill="#8badc4" stroke="#8badc4" stroke-width="1.51"/><path d="M541,1023L536,1180L688,1118Z" fill="#61889e" stroke="#61889e" stroke-width="1.51"/><path d="M1183,1059L1306,836L1214,794Z" fill="#0e5798" stroke="#0e5798" stroke-width="1.51"/><path d="M688,1118L968,1077L967,913Z" fill="#3779a9" stroke="#3779a9" stroke-width="1.51"/><path d="M137,828L237,980L402,814Z" fill="#8098af" stroke="#8098af" stroke-width="1.51"/><path d="M1252,480L1322,348L1135,332Z" fill="#65a0b6" stroke="#65a0b6" stroke-width="1.51"/><path d="M1508,541L1322,348L1252,480Z" fill="#4f8bad" stroke="#4f8bad" stroke-width="1.51"/><path d="M237,980L338,1071L402,814Z" fill="#7b91a6" stroke="#7b91a6" stroke-width="1.51"/><path d="M1014,10L920,-159L666,-28Z" fill="#afdae0" stroke="#afdae0" stroke-width="1.51"/><path d="M1265,106L1096,-21L1051,158Z" fill="#94b9cd" stroke="#94b9cd" stroke-width="1.51"/><path d="M435,-12L373,-112L213,273Z" fill="#def2d7" stroke="#def2d7" stroke-width="1.51"/><path d="M520,-303L373,-112L435,-12Z" fill="#daf1d7" stroke="#daf1d7" stroke-width="1.51"/><path d="M520,-303L435,-12L666,-28Z" fill="#d0edd2" stroke="#d0edd2" stroke-width="1.51"/><path d="M688,1118L536,1180L968,1077Z" fill="#4c82a3" stroke="#4c82a3" stroke-width="1.51"/><path d="M338,1071L536,1180L541,1023Z" fill="#6f8c9f" stroke="#6f8c9f" stroke-width="1.51"/><path d="M1214,794L1306,836L1252,480Z" fill="#1a76b3" stroke="#1a76b3" stroke-width="1.51"/><path d="M1183,1059L1214,794L1038,925Z" fill="#185f9c" stroke="#185f9c" stroke-width="1.51"/><path d="M1322,348L1265,106L1135,332Z" fill="#7ca6b8" stroke="#7ca6b8" stroke-width="1.51"/><path d="M1096,-243L920,-159L1096,-21Z" fill="#a2c7da" stroke="#a2c7da" stroke-width="1.51"/><path d="M1096,-21L920,-159L1014,10Z" fill="#a4cadb" stroke="#a4cadb" stroke-width="1.51"/><path d="M213,273L16,221L225,376Z" fill="#ceeccd" stroke="#ceeccd" stroke-width="1.51"/><path d="M138,650L-139,752L137,828Z" fill="#97b5d0" stroke="#97b5d0" stroke-width="1.51"/><path d="M85,-147L16,221L213,273Z" fill="#e5f5df" stroke="#e5f5df" stroke-width="1.51"/><path d="M920,-159L727,-230L666,-28Z" fill="#b7e1dc" stroke="#b7e1dc" stroke-width="1.51"/><path d="M968,1077L1183,1059L1038,925Z" fill="#2067a0" stroke="#2067a0" stroke-width="1.51"/><path d="M1373,1156L1183,1059L968,1077Z" fill="#155c9b" stroke="#155c9b" stroke-width="1.51"/><path d="M338,1071L66,1193L536,1180Z" fill="#7c91a7" stroke="#7c91a7" stroke-width="1.51"/><path d="M237,980L129,1023L338,1071Z" fill="#8093ab" stroke="#8093ab" stroke-width="1.51"/><path d="M137,828L129,1023L237,980Z" fill="#8394af" stroke="#8394af" stroke-width="1.51"/><path d="M-38,1051L129,1023L137,828Z" fill="#8896b4" stroke="#8896b4" stroke-width="1.51"/><path d="M16,221L-116,467L225,376Z" fill="#caead1" stroke="#caead1" stroke-width="1.51"/><path d="M1306,836L1508,541L1252,480Z" fill="#2a77ae" stroke="#2a77ae" stroke-width="1.51"/><path d="M1488,77L1318,-41L1265,106Z" fill="#8da0be" stroke="#8da0be" stroke-width="1.51"/><path d="M1610,700L1508,541L1306,836Z" fill="#1b629e" stroke="#1b629e" stroke-width="1.51"/><path d="M727,-230L520,-303L666,-28Z" fill="#c5e8d6" stroke="#c5e8d6" stroke-width="1.51"/><path d="M373,-112L85,-147L213,273Z" fill="#e9f7e2" stroke="#e9f7e2" stroke-width="1.51"/><path d="M920,-159L1096,-243L727,-230Z" fill="#abd6e1" stroke="#abd6e1" stroke-width="1.51"/><path d="M727,-230L1096,-243L520,-303Z" fill="#b6dfdc" stroke="#b6dfdc" stroke-width="1.51"/><path d="M1265,106L1318,-41L1096,-21Z" fill="#96b2cf" stroke="#96b2cf" stroke-width="1.51"/><path d="M1505,281L1265,106L1322,348Z" fill="#7a99ac" stroke="#7a99ac" stroke-width="1.51"/><path d="M520,-303L235,-199L373,-112Z" fill="#e0f3da" stroke="#e0f3da" stroke-width="1.51"/><path d="M16,221L-174,441L-116,467Z" fill="#c9ead5" stroke="#c9ead5" stroke-width="1.51"/><path d="M1508,541L1505,281L1322,348Z" fill="#5c879f" stroke="#5c879f" stroke-width="1.51"/><path d="M1318,-41L1096,-243L1096,-21Z" fill="#9ab9d3" stroke="#9ab9d3" stroke-width="1.51"/><path d="M-116,467L-139,752L138,650Z" fill="#a5ccdc" stroke="#a5ccdc" stroke-width="1.51"/><path d="M-255,606L-199,764L-139,752Z" fill="#9cbcd5" stroke="#9cbcd5" stroke-width="1.51"/><path d="M-229,371L-174,441L16,221Z" fill="#cfecd3" stroke="#cfecd3" stroke-width="1.51"/><path d="M1183,1059L1406,983L1306,836Z" fill="#094f92" stroke="#094f92" stroke-width="1.51"/><path d="M235,-199L85,-147L373,-112Z" fill="#e9f7e2" stroke="#e9f7e2" stroke-width="1.51"/><path d="M16,-249L85,-147L235,-199Z" fill="#f0f9e9" stroke="#f0f9e9" stroke-width="1.51"/><path d="M85,-147L-118,89L16,221Z" fill="#f2faeb" stroke="#f2faeb" stroke-width="1.51"/><path d="M129,1023L66,1193L338,1071Z" fill="#8294ae" stroke="#8294ae" stroke-width="1.51"/><path d="M-139,752L-38,1051L137,828Z" fill="#8f9dbd" stroke="#8f9dbd" stroke-width="1.51"/><path d="M1505,281L1488,77L1265,106Z" fill="#8095ad" stroke="#8095ad" stroke-width="1.51"/><path d="M1318,-41L1303,-307L1096,-243Z" fill="#97b1cf" stroke="#97b1cf" stroke-width="1.51"/><path d="M-139,752L-259,933L-38,1051Z" fill="#8d98b8" stroke="#8d98b8" stroke-width="1.51"/><path d="M-255,606L-139,752L-116,467Z" fill="#a6cfdd" stroke="#a6cfdd" stroke-width="1.51"/><path d="M-174,441L-255,606L-116,467Z" fill="#b4dedd" stroke="#b4dedd" stroke-width="1.51"/><path d="M-118,89L-229,371L16,221Z" fill="#e1f4da" stroke="#e1f4da" stroke-width="1.51"/><path d="M-38,1051L66,1193L129,1023Z" fill="#8997b5" stroke="#8997b5" stroke-width="1.51"/><path d="M1582,948L1610,700L1306,836Z" fill="#094c8e" stroke="#094c8e" stroke-width="1.51"/><path d="M1508,541L1678,413L1505,281Z" fill="#5785a1" stroke="#5785a1" stroke-width="1.51"/><path d="M1505,281L1686,55L1488,77Z" fill="#8093ac" stroke="#8093ac" stroke-width="1.51"/><path d="M-229,371L-255,606L-174,441Z" fill="#b8e2db" stroke="#b8e2db" stroke-width="1.51"/><path d="M1183,1059L1373,1156L1406,983Z" fill="#094d8f" stroke="#094d8f" stroke-width="1.51"/><path d="M1406,983L1582,948L1306,836Z" fill="#084182" stroke="#084182" stroke-width="1.51"/><path d="M536,1180L1373,1156L968,1077Z" fill="#2c71a6" stroke="#2c71a6" stroke-width="1.51"/><path d="M1488,77L1428,-132L1318,-41Z" fill="#8e9bbc" stroke="#8e9bbc" stroke-width="1.51"/><path d="M1488,77L1655,-114L1428,-132Z" fill="#8d98b8" stroke="#8d98b8" stroke-width="1.51"/><path d="M1696,569L1678,413L1508,541Z" fill="#417da6" stroke="#417da6" stroke-width="1.51"/><path d="M1610,700L1696,569L1508,541Z" fill="#2c71a5" stroke="#2c71a5" stroke-width="1.51"/><path d="M1660,1036L1582,948L1570,1202Z" fill="#084081" stroke="#084081" stroke-width="1.51"/><path d="M85,-147L-129,-102L-118,89Z" fill="#f7fcf0" stroke="#f7fcf0" stroke-width="1.51"/><path d="M520,-303L16,-249L235,-199Z" fill="#e7f6e1" stroke="#e7f6e1" stroke-width="1.51"/><path d="M1727,718L1696,569L1610,700Z" fill="#2167a0" stroke="#2167a0" stroke-width="1.51"/><path d="M16,-249L-129,-102L85,-147Z" fill="#f7fcf0" stroke="#f7fcf0" stroke-width="1.51"/><path d="M-118,89L-259,127L-229,371Z" fill="#e4f5dd" stroke="#e4f5dd" stroke-width="1.51"/><path d="M-229,371L-259,127L-255,606Z" fill="#cbead4" stroke="#cbead4" stroke-width="1.51"/><path d="M-129,-102L-259,127L-118,89Z" fill="#f3fbec" stroke="#f3fbec" stroke-width="1.51"/><path d="M1428,-132L1303,-307L1318,-41Z" fill="#91a3c3" stroke="#91a3c3" stroke-width="1.51"/><path d="M1096,-243L1303,-307L520,-303Z" fill="#a6cfdd" stroke="#a6cfdd" stroke-width="1.51"/><path d="M-38,1051L-105,1168L66,1193Z" fill="#8d98b8" stroke="#8d98b8" stroke-width="1.51"/><path d="M-237,1123L-105,1168L-38,1051Z" fill="#8d98b8" stroke="#8d98b8" stroke-width="1.51"/><path d="M-259,933L-139,752L-199,764Z" fill="#94a8c9" stroke="#94a8c9" stroke-width="1.51"/><path d="M-255,606L-259,933L-199,764Z" fill="#98b2d0" stroke="#98b2d0" stroke-width="1.51"/><path d="M-367,-254L-259,933L-255,606Z" fill="#c0e6d8" stroke="#c0e6d8" stroke-width="1.51"/><path d="M1582,948L1727,718L1610,700Z" fill="#0a5496" stroke="#0a5496" stroke-width="1.51"/><path d="M1696,569L1839,465L1678,413Z" fill="#477fa4" stroke="#477fa4" stroke-width="1.51"/><path d="M1678,413L1686,55L1505,281Z" fill="#758fa2" stroke="#758fa2" stroke-width="1.51"/><path d="M1428,-132L1623,-177L1303,-307Z" fill="#8d98b8" stroke="#8d98b8" stroke-width="1.51"/><path d="M1865,320L1686,55L1678,413Z" fill="#738ea2" stroke="#738ea2" stroke-width="1.51"/><path d="M1570,1202L1582,948L1406,983Z" fill="#084081" stroke="#084081" stroke-width="1.51"/><path d="M1582,948L1660,1036L1727,718Z" fill="#084081" stroke="#084081" stroke-width="1.51"/><path d="M-259,933L-237,1123L-38,1051Z" fill="#8d98b8" stroke="#8d98b8" stroke-width="1.51"/><path d="M-129,-102L-295,-119L-259,127Z" fill="#f7fcf0" stroke="#f7fcf0" stroke-width="1.51"/><path d="M16,-249L-177,-211L-129,-102Z" fill="#f7fcf0" stroke="#f7fcf0" stroke-width="1.51"/><path d="M1373,1156L1570,1202L1406,983Z" fill="#084081" stroke="#084081" stroke-width="1.51"/><path d="M536,1180L1570,1202L1373,1156Z" fill="#175d9b" stroke="#175d9b" stroke-width="1.51"/><path d="M66,1193L1570,1202L536,1180Z" fill="#4d82a3" stroke="#4d82a3" stroke-width="1.51"/><path d="M1686,55L1655,-114L1488,77Z" fill="#8c98b8" stroke="#8c98b8" stroke-width="1.51"/><path d="M1863,-93L1746,-185L1655,-114Z" fill="#8d98b8" stroke="#8d98b8" stroke-width="1.51"/><path d="M1727,718L1839,465L1696,569Z" fill="#2f73a7" stroke="#2f73a7" stroke-width="1.51"/><path d="M2014,844L1839,465L1727,718Z" fill="#1e659f" stroke="#1e659f" stroke-width="1.51"/><path d="M1655,-114L1623,-177L1428,-132Z" fill="#8d98b8" stroke="#8d98b8" stroke-width="1.51"/><path d="M-259,127L-367,-254L-255,606Z" fill="#e8f6e1" stroke="#e8f6e1" stroke-width="1.51"/><path d="M-177,-211L-295,-119L-129,-102Z" fill="#f7fcf0" stroke="#f7fcf0" stroke-width="1.51"/><path d="M1839,465L1865,320L1678,413Z" fill="#5a86a0" stroke="#5a86a0" stroke-width="1.51"/><path d="M1863,-93L1655,-114L1686,55Z" fill="#8d98b8" stroke="#8d98b8" stroke-width="1.51"/><path d="M1655,-114L1746,-185L1623,-177Z" fill="#8d98b8" stroke="#8d98b8" stroke-width="1.51"/><path d="M1623,-177L1746,-185L1303,-307Z" fill="#8d98b8" stroke="#8d98b8" stroke-width="1.51"/><path d="M-177,-211L-367,-254L-295,-119Z" fill="#f7fcf0" stroke="#f7fcf0" stroke-width="1.51"/><path d="M-295,-119L-367,-254L-259,127Z" fill="#f7fcf0" stroke="#f7fcf0" stroke-width="1.51"/><path d="M16,-249L-367,-254L-177,-211Z" fill="#f7fcf0" stroke="#f7fcf0" stroke-width="1.51"/><path d="M520,-303L-367,-254L16,-249Z" fill="#f4fbec" stroke="#f4fbec" stroke-width="1.51"/><path d="M1660,1036L2014,844L1727,718Z" fill="#094687" stroke="#094687" stroke-width="1.51"/><path d="M1839,465L1991,204L1865,320Z" fill="#698b9d" stroke="#698b9d" stroke-width="1.51"/><path d="M1570,1202L1823,1151L1660,1036Z" fill="#084081" stroke="#084081" stroke-width="1.51"/><path d="M1991,204L1863,-93L1686,55Z" fill="#8896b3" stroke="#8896b3" stroke-width="1.51"/><path d="M1865,320L1991,204L1686,55Z" fill="#7c91a7" stroke="#7c91a7" stroke-width="1.51"/><path d="M2014,844L1991,204L1839,465Z" fill="#427da6" stroke="#427da6" stroke-width="1.51"/><path d="M1991,204L1849,-182L1863,-93Z" fill="#8d98b8" stroke="#8d98b8" stroke-width="1.51"/><path d="M1863,-93L1849,-182L1746,-185Z" fill="#8d98b8" stroke="#8d98b8" stroke-width="1.51"/><path d="M1746,-185L1849,-182L1303,-307Z" fill="#8d98b8" stroke="#8d98b8" stroke-width="1.51"/><path d="M2026,953L2014,844L1660,1036Z" fill="#084081" stroke="#084081" stroke-width="1.51"/><path d="M1570,1202L1865,1164L1823,1151Z" fill="#084081" stroke="#084081" stroke-width="1.51"/><path d="M2026,953L1660,1036L1823,1151Z" fill="#084081" stroke="#084081" stroke-width="1.51"/><path d="M1865,1164L2026,953L1823,1151Z" fill="#084081" stroke="#084081" stroke-width="1.51"/><path d="M2014,844L2026,953L1991,204Z" fill="#1f66a0" stroke="#1f66a0" stroke-width="1.51"/></svg>