<?xml version="1.0" encoding="UTF-8" standalone="no"?>
<!-- Generator: Adobe Illustrator 18.1.1, SVG Export Plug-In . SVG Version: 6.00 Build 0)  -->

<svg
   xmlns:dc="http://purl.org/dc/elements/1.1/"
   xmlns:cc="http://creativecommons.org/ns#"
   xmlns:rdf="http://www.w3.org/1999/02/22-rdf-syntax-ns#"
   xmlns:svg="http://www.w3.org/2000/svg"
   xmlns="http://www.w3.org/2000/svg"
   xmlns:sodipodi="http://sodipodi.sourceforge.net/DTD/sodipodi-0.dtd"
   xmlns:inkscape="http://www.inkscape.org/namespaces/inkscape"
   version="1.1"
   id="Layer_1"
   x="0px"
   y="0px"
   viewBox="0 0 28.4 24.9"
   enable-background="new 0 0 28.4 28.4"
   xml:space="preserve"
   sodipodi:docname="properties.svg"
   width="28.4"
   height="24.9"
   inkscape:version="0.92.2 (5c3e80d, 2017-08-06)"><metadata
     id="metadata14"><rdf:RDF><cc:Work
         rdf:about=""><dc:format>image/svg+xml</dc:format><dc:type
           rdf:resource="http://purl.org/dc/dcmitype/StillImage" /><dc:title></dc:title></cc:Work></rdf:RDF></metadata><defs
     id="defs12" /><sodipodi:namedview
     pagecolor="#ffffff"
     bordercolor="#666666"
     borderopacity="1"
     objecttolerance="10"
     gridtolerance="10"
     guidetolerance="10"
     inkscape:pageopacity="0"
     inkscape:pageshadow="2"
     inkscape:window-width="1366"
     inkscape:window-height="705"
     id="namedview10"
     showgrid="false"
     fit-margin-top="0"
     fit-margin-left="0"
     fit-margin-right="0"
     fit-margin-bottom="0"
     inkscape:zoom="8.3098593"
     inkscape:cx="-0.78220338"
     inkscape:cy="12.7"
     inkscape:window-x="-8"
     inkscape:window-y="-8"
     inkscape:window-maximized="1"
     inkscape:current-layer="Layer_1" /><g
     id="list"
     transform="translate(0,-2)"><g
       id="g6"><path
         d="m 27.9,19.1 c 0,0.3 -0.3,0.6 -0.6,0.6 H 6.8 c -0.3,0 -0.6,-0.3 -0.6,-0.6 v -2.3 c 0,-0.3 0.3,-0.6 0.6,-0.6 h 20.6 c 0.3,0 0.6,0.3 0.6,0.6 v 2.3 z M 3.9,16.8 C 3.9,16.5 3.6,16.2 3.3,16.2 H 1 c -0.3,0 -0.6,0.3 -0.6,0.6 v 2.3 c 0,0.3 0.3,0.6 0.6,0.6 h 2.3 c 0.3,0 0.6,-0.3 0.6,-0.6 z m 24,6.8 C 27.9,23.3 27.6,23 27.3,23 H 6.8 c -0.3,0 -0.6,0.3 -0.6,0.6 v 2.3 c 0,0.3 0.3,0.6 0.6,0.6 h 20.6 c 0.3,0 0.6,-0.3 0.6,-0.6 v -2.3 z m -24,0 C 3.9,23.3 3.6,23 3.3,23 H 1 c -0.3,0 -0.6,0.3 -0.6,0.6 v 2.3 c 0,0.3 0.3,0.6 0.6,0.6 h 2.3 c 0.3,0 0.6,-0.3 0.6,-0.6 z M 27.9,9.9 C 27.9,9.6 27.6,9.3 27.3,9.3 H 6.8 C 6.5,9.3 6.2,9.6 6.2,9.9 v 2.3 c 0,0.3 0.3,0.6 0.6,0.6 h 20.6 c 0.3,0 0.6,-0.3 0.6,-0.6 V 9.9 Z m -24,0 C 3.9,9.6 3.6,9.3 3.3,9.3 H 1 C 0.7,9.3 0.4,9.6 0.4,9.9 v 2.3 c 0,0.3 0.3,0.6 0.6,0.6 h 2.3 c 0.3,0 0.6,-0.3 0.6,-0.6 z M 27.9,3 C 27.9,2.7 27.6,2.4 27.3,2.4 H 6.8 C 6.4,2.4 6.2,2.7 6.2,3 v 2.3 c 0,0.3 0.3,0.6 0.6,0.6 H 27.4 C 27.7,5.9 28,5.6 28,5.3 V 3 Z M 3.9,3 C 3.9,2.7 3.6,2.4 3.3,2.4 H 1 C 0.7,2.4 0.5,2.7 0.5,3 v 2.3 c 0,0.3 0.3,0.6 0.6,0.6 H 3.4 C 3.7,5.9 4,5.6 4,5.3 V 3 Z"
         id="path2"
         inkscape:connector-curvature="0"
         style="clip-rule:evenodd;fill:#000000;fill-rule:evenodd" /><path
         d="M 27.4,26.9 H 6.8 c -0.6,0 -1,-0.4 -1,-1 v -2.3 c 0,-0.6 0.4,-1 1,-1 h 20.6 c 0.6,0 1,0.4 1,1 v 2.3 c 0,0.6 -0.5,1 -1,1 z M 6.8,23.5 c -0.1,0 -0.1,0.1 -0.1,0.1 v 2.3 C 6.7,26 6.8,26 6.8,26 h 20.6 c 0.1,0 0.1,-0.1 0.1,-0.1 v -2.3 c 0,-0.1 -0.1,-0.1 -0.1,-0.1 z M 3.3,26.9 H 1 c -0.6,0 -1,-0.4 -1,-1 v -2.3 c 0,-0.6 0.4,-1 1,-1 h 2.3 c 0.6,0 1,0.4 1,1 v 2.3 c 0,0.6 -0.4,1 -1,1 z M 1,23.5 c -0.1,0 -0.1,0.1 -0.1,0.1 v 2.3 C 0.9,26 1,26 1,26 h 2.3 c 0.1,0 0.1,-0.1 0.1,-0.1 V 23.6 C 3.4,23.5 3.3,23.5 3.3,23.5 Z M 27.4,20.1 H 6.8 c -0.6,0 -1,-0.4 -1,-1 v -2.3 c 0,-0.6 0.4,-1 1,-1 h 20.6 c 0.6,0 1,0.4 1,1 v 2.3 c 0,0.5 -0.5,1 -1,1 z M 6.8,16.6 c -0.1,0 -0.1,0.1 -0.1,0.1 V 19 c 0,0.1 0.1,0.1 0.1,0.1 h 20.6 c 0.1,0 0.1,-0.1 0.1,-0.1 v -2.3 c 0,-0.1 -0.1,-0.1 -0.1,-0.1 z M 3.3,20.1 H 1 c -0.6,0 -1,-0.4 -1,-1 v -2.3 c 0,-0.6 0.4,-1 1,-1 h 2.3 c 0.6,0 1,0.4 1,1 v 2.3 c 0,0.5 -0.4,1 -1,1 z M 1,16.6 c -0.1,0 -0.1,0.1 -0.1,0.1 V 19 c 0,0.1 0.1,0.1 0.1,0.1 H 3.3 C 3.4,19.1 3.4,19 3.4,19 V 16.7 C 3.4,16.6 3.3,16.6 3.3,16.6 Z M 27.4,13.2 H 6.8 c -0.6,0 -1,-0.4 -1,-1 V 9.9 c 0,-0.6 0.4,-1 1,-1 h 20.6 c 0.6,0 1,0.4 1,1 v 2.3 c 0,0.5 -0.5,1 -1,1 z M 6.8,9.7 C 6.7,9.7 6.7,9.8 6.7,9.8 v 2.3 c 0,0.1 0.1,0.1 0.1,0.1 h 20.6 c 0.1,0 0.1,-0.1 0.1,-0.1 V 9.9 C 27.5,9.8 27.4,9.8 27.4,9.8 H 6.8 Z M 3.3,13.2 H 1 c -0.6,0 -1,-0.4 -1,-1 V 9.9 c 0,-0.6 0.4,-1 1,-1 h 2.3 c 0.6,0 1,0.4 1,1 v 2.3 c 0,0.5 -0.4,1 -1,1 z M 1,9.7 C 0.9,9.7 0.9,9.8 0.9,9.8 v 2.3 c 0,0.1 0.1,0.1 0.1,0.1 h 2.3 c 0.1,0 0.1,-0.1 0.1,-0.1 V 9.9 C 3.4,9.8 3.3,9.8 3.3,9.8 H 1 Z M 27.4,6.3 H 6.8 c -0.6,0 -1,-0.4 -1,-1 V 3 c 0,-0.6 0.4,-1 1,-1 h 20.6 c 0.6,0 1,0.4 1,1 v 2.3 c 0,0.6 -0.5,1 -1,1 z M 6.8,2.9 C 6.7,2.9 6.6,2.9 6.6,3 v 2.3 c 0,0.1 0.1,0.1 0.1,0.1 h 20.6 c 0.1,0 0.1,-0.1 0.1,-0.1 V 3 C 27.4,2.9 27.3,2.9 27.3,2.9 Z M 3.3,6.3 H 1 C 0.4,6.3 0,5.9 0,5.3 V 3 C 0,2.4 0.4,2 1,2 h 2.3 c 0.6,0 1,0.4 1,1 v 2.3 c 0,0.6 -0.4,1 -1,1 z M 1,2.9 C 0.9,2.9 0.9,2.9 0.9,3 V 5.3 C 0.9,5.4 1,5.4 1,5.4 H 3.3 C 3.4,5.4 3.4,5.3 3.4,5.3 V 3 C 3.4,2.9 3.3,2.9 3.3,2.9 Z"
         id="path4"
         inkscape:connector-curvature="0"
         style="fill:#000000" /></g></g></svg>